<?xml version="1.0" encoding="utf-8" standalone="no"?>
<!DOCTYPE svg PUBLIC "-//W3C//DTD SVG 1.1//EN"
  "http://www.w3.org/Graphics/SVG/1.1/DTD/svg11.dtd">
<svg xmlns:xlink="http://www.w3.org/1999/xlink" width="460.8pt" height="345.6pt" viewBox="0 0 460.8 345.6" xmlns="http://www.w3.org/2000/svg" version="1.1">
 <metadata>
  <rdf:RDF xmlns:dc="http://purl.org/dc/elements/1.1/" xmlns:cc="http://creativecommons.org/ns#" xmlns:rdf="http://www.w3.org/1999/02/22-rdf-syntax-ns#">
   <cc:Work>
    <dc:type rdf:resource="http://purl.org/dc/dcmitype/StillImage"/>
    <dc:date>2023-06-19T18:59:19.331535</dc:date>
    <dc:format>image/svg+xml</dc:format>
    <dc:creator>
     <cc:Agent>
      <dc:title>Matplotlib v3.7.1, https://matplotlib.org/</dc:title>
     </cc:Agent>
    </dc:creator>
   </cc:Work>
  </rdf:RDF>
 </metadata>
 <defs>
  <style type="text/css">*{stroke-linejoin: round; stroke-linecap: butt}</style>
 </defs>
 <g id="figure_1">
  <g id="patch_1">
   <path d="M 0 345.6 
L 460.8 345.6 
L 460.8 0 
L 0 0 
z
" style="fill: #ffffff"/>
  </g>
  <g id="axes_1">
   <g id="patch_2">
    <path d="M 57.6 307.584 
L 414.72 307.584 
L 414.72 41.472 
L 57.6 41.472 
z
" style="fill: #ffffff"/>
   </g>
   <g id="matplotlib.axis_1">
    <g id="xtick_1">
     <g id="line2d_1">
      <defs>
       <path id="me90c439170" d="M 0 0 
L 0 3.5 
" style="stroke: #000000; stroke-width: 0.8"/>
      </defs>
      <g>
       <use xlink:href="#me90c439170" x="73.832727" y="307.584" style="stroke: #000000; stroke-width: 0.8"/>
      </g>
     </g>
     <g id="text_1">
      <!-- 2 -->
      <g transform="translate(70.651477 322.182437) scale(0.1 -0.1)">
       <defs>
        <path id="DejaVuSans-32" d="M 1228 531 
L 3431 531 
L 3431 0 
L 469 0 
L 469 531 
Q 828 903 1448 1529 
Q 2069 2156 2228 2338 
Q 2531 2678 2651 2914 
Q 2772 3150 2772 3378 
Q 2772 3750 2511 3984 
Q 2250 4219 1831 4219 
Q 1534 4219 1204 4116 
Q 875 4013 500 3803 
L 500 4441 
Q 881 4594 1212 4672 
Q 1544 4750 1819 4750 
Q 2544 4750 2975 4387 
Q 3406 4025 3406 3419 
Q 3406 3131 3298 2873 
Q 3191 2616 2906 2266 
Q 2828 2175 2409 1742 
Q 1991 1309 1228 531 
z
" transform="scale(0.015625)"/>
       </defs>
       <use xlink:href="#DejaVuSans-32"/>
      </g>
     </g>
    </g>
    <g id="xtick_2">
     <g id="line2d_2">
      <g>
       <use xlink:href="#me90c439170" x="143.575916" y="307.584" style="stroke: #000000; stroke-width: 0.8"/>
      </g>
     </g>
     <g id="text_2">
      <!-- 4 -->
      <g transform="translate(140.394666 322.182437) scale(0.1 -0.1)">
       <defs>
        <path id="DejaVuSans-34" d="M 2419 4116 
L 825 1625 
L 2419 1625 
L 2419 4116 
z
M 2253 4666 
L 3047 4666 
L 3047 1625 
L 3713 1625 
L 3713 1100 
L 3047 1100 
L 3047 0 
L 2419 0 
L 2419 1100 
L 313 1100 
L 313 1709 
L 2253 4666 
z
" transform="scale(0.015625)"/>
       </defs>
       <use xlink:href="#DejaVuSans-34"/>
      </g>
     </g>
    </g>
    <g id="xtick_3">
     <g id="line2d_3">
      <g>
       <use xlink:href="#me90c439170" x="213.319106" y="307.584" style="stroke: #000000; stroke-width: 0.8"/>
      </g>
     </g>
     <g id="text_3">
      <!-- 6 -->
      <g transform="translate(210.137856 322.182437) scale(0.1 -0.1)">
       <defs>
        <path id="DejaVuSans-36" d="M 2113 2584 
Q 1688 2584 1439 2293 
Q 1191 2003 1191 1497 
Q 1191 994 1439 701 
Q 1688 409 2113 409 
Q 2538 409 2786 701 
Q 3034 994 3034 1497 
Q 3034 2003 2786 2293 
Q 2538 2584 2113 2584 
z
M 3366 4563 
L 3366 3988 
Q 3128 4100 2886 4159 
Q 2644 4219 2406 4219 
Q 1781 4219 1451 3797 
Q 1122 3375 1075 2522 
Q 1259 2794 1537 2939 
Q 1816 3084 2150 3084 
Q 2853 3084 3261 2657 
Q 3669 2231 3669 1497 
Q 3669 778 3244 343 
Q 2819 -91 2113 -91 
Q 1303 -91 875 529 
Q 447 1150 447 2328 
Q 447 3434 972 4092 
Q 1497 4750 2381 4750 
Q 2619 4750 2861 4703 
Q 3103 4656 3366 4563 
z
" transform="scale(0.015625)"/>
       </defs>
       <use xlink:href="#DejaVuSans-36"/>
      </g>
     </g>
    </g>
    <g id="xtick_4">
     <g id="line2d_4">
      <g>
       <use xlink:href="#me90c439170" x="283.062295" y="307.584" style="stroke: #000000; stroke-width: 0.8"/>
      </g>
     </g>
     <g id="text_4">
      <!-- 8 -->
      <g transform="translate(279.881045 322.182437) scale(0.1 -0.1)">
       <defs>
        <path id="DejaVuSans-38" d="M 2034 2216 
Q 1584 2216 1326 1975 
Q 1069 1734 1069 1313 
Q 1069 891 1326 650 
Q 1584 409 2034 409 
Q 2484 409 2743 651 
Q 3003 894 3003 1313 
Q 3003 1734 2745 1975 
Q 2488 2216 2034 2216 
z
M 1403 2484 
Q 997 2584 770 2862 
Q 544 3141 544 3541 
Q 544 4100 942 4425 
Q 1341 4750 2034 4750 
Q 2731 4750 3128 4425 
Q 3525 4100 3525 3541 
Q 3525 3141 3298 2862 
Q 3072 2584 2669 2484 
Q 3125 2378 3379 2068 
Q 3634 1759 3634 1313 
Q 3634 634 3220 271 
Q 2806 -91 2034 -91 
Q 1263 -91 848 271 
Q 434 634 434 1313 
Q 434 1759 690 2068 
Q 947 2378 1403 2484 
z
M 1172 3481 
Q 1172 3119 1398 2916 
Q 1625 2713 2034 2713 
Q 2441 2713 2670 2916 
Q 2900 3119 2900 3481 
Q 2900 3844 2670 4047 
Q 2441 4250 2034 4250 
Q 1625 4250 1398 4047 
Q 1172 3844 1172 3481 
z
" transform="scale(0.015625)"/>
       </defs>
       <use xlink:href="#DejaVuSans-38"/>
      </g>
     </g>
    </g>
    <g id="xtick_5">
     <g id="line2d_5">
      <g>
       <use xlink:href="#me90c439170" x="352.805484" y="307.584" style="stroke: #000000; stroke-width: 0.8"/>
      </g>
     </g>
     <g id="text_5">
      <!-- 10 -->
      <g transform="translate(346.442984 322.182437) scale(0.1 -0.1)">
       <defs>
        <path id="DejaVuSans-31" d="M 794 531 
L 1825 531 
L 1825 4091 
L 703 3866 
L 703 4441 
L 1819 4666 
L 2450 4666 
L 2450 531 
L 3481 531 
L 3481 0 
L 794 0 
L 794 531 
z
" transform="scale(0.015625)"/>
        <path id="DejaVuSans-30" d="M 2034 4250 
Q 1547 4250 1301 3770 
Q 1056 3291 1056 2328 
Q 1056 1369 1301 889 
Q 1547 409 2034 409 
Q 2525 409 2770 889 
Q 3016 1369 3016 2328 
Q 3016 3291 2770 3770 
Q 2525 4250 2034 4250 
z
M 2034 4750 
Q 2819 4750 3233 4129 
Q 3647 3509 3647 2328 
Q 3647 1150 3233 529 
Q 2819 -91 2034 -91 
Q 1250 -91 836 529 
Q 422 1150 422 2328 
Q 422 3509 836 4129 
Q 1250 4750 2034 4750 
z
" transform="scale(0.015625)"/>
       </defs>
       <use xlink:href="#DejaVuSans-31"/>
       <use xlink:href="#DejaVuSans-30" x="63.623047"/>
      </g>
     </g>
    </g>
    <g id="text_6">
     <!-- pH -->
     <g transform="translate(229.225625 335.860562) scale(0.1 -0.1)">
      <defs>
       <path id="DejaVuSans-70" d="M 1159 525 
L 1159 -1331 
L 581 -1331 
L 581 3500 
L 1159 3500 
L 1159 2969 
Q 1341 3281 1617 3432 
Q 1894 3584 2278 3584 
Q 2916 3584 3314 3078 
Q 3713 2572 3713 1747 
Q 3713 922 3314 415 
Q 2916 -91 2278 -91 
Q 1894 -91 1617 61 
Q 1341 213 1159 525 
z
M 3116 1747 
Q 3116 2381 2855 2742 
Q 2594 3103 2138 3103 
Q 1681 3103 1420 2742 
Q 1159 2381 1159 1747 
Q 1159 1113 1420 752 
Q 1681 391 2138 391 
Q 2594 391 2855 752 
Q 3116 1113 3116 1747 
z
" transform="scale(0.015625)"/>
       <path id="DejaVuSans-48" d="M 628 4666 
L 1259 4666 
L 1259 2753 
L 3553 2753 
L 3553 4666 
L 4184 4666 
L 4184 0 
L 3553 0 
L 3553 2222 
L 1259 2222 
L 1259 0 
L 628 0 
L 628 4666 
z
" transform="scale(0.015625)"/>
      </defs>
      <use xlink:href="#DejaVuSans-70"/>
      <use xlink:href="#DejaVuSans-48" x="63.476562"/>
     </g>
    </g>
   </g>
   <g id="matplotlib.axis_2">
    <g id="ytick_1">
     <g id="line2d_6">
      <defs>
       <path id="m9a20274e48" d="M 0 0 
L -3.5 0 
" style="stroke: #000000; stroke-width: 0.8"/>
      </defs>
      <g>
       <use xlink:href="#m9a20274e48" x="57.6" y="306.691872" style="stroke: #000000; stroke-width: 0.8"/>
      </g>
     </g>
     <g id="text_7">
      <!-- 7.5 -->
      <g transform="translate(34.696875 310.491091) scale(0.1 -0.1)">
       <defs>
        <path id="DejaVuSans-37" d="M 525 4666 
L 3525 4666 
L 3525 4397 
L 1831 0 
L 1172 0 
L 2766 4134 
L 525 4134 
L 525 4666 
z
" transform="scale(0.015625)"/>
        <path id="DejaVuSans-2e" d="M 684 794 
L 1344 794 
L 1344 0 
L 684 0 
L 684 794 
z
" transform="scale(0.015625)"/>
        <path id="DejaVuSans-35" d="M 691 4666 
L 3169 4666 
L 3169 4134 
L 1269 4134 
L 1269 2991 
Q 1406 3038 1543 3061 
Q 1681 3084 1819 3084 
Q 2600 3084 3056 2656 
Q 3513 2228 3513 1497 
Q 3513 744 3044 326 
Q 2575 -91 1722 -91 
Q 1428 -91 1123 -41 
Q 819 9 494 109 
L 494 744 
Q 775 591 1075 516 
Q 1375 441 1709 441 
Q 2250 441 2565 725 
Q 2881 1009 2881 1497 
Q 2881 1984 2565 2268 
Q 2250 2553 1709 2553 
Q 1456 2553 1204 2497 
Q 953 2441 691 2322 
L 691 4666 
z
" transform="scale(0.015625)"/>
       </defs>
       <use xlink:href="#DejaVuSans-37"/>
       <use xlink:href="#DejaVuSans-2e" x="63.623047"/>
       <use xlink:href="#DejaVuSans-35" x="95.410156"/>
      </g>
     </g>
    </g>
    <g id="ytick_2">
     <g id="line2d_7">
      <g>
       <use xlink:href="#m9a20274e48" x="57.6" y="273.291347" style="stroke: #000000; stroke-width: 0.8"/>
      </g>
     </g>
     <g id="text_8">
      <!-- 10.0 -->
      <g transform="translate(28.334375 277.090566) scale(0.1 -0.1)">
       <use xlink:href="#DejaVuSans-31"/>
       <use xlink:href="#DejaVuSans-30" x="63.623047"/>
       <use xlink:href="#DejaVuSans-2e" x="127.246094"/>
       <use xlink:href="#DejaVuSans-30" x="159.033203"/>
      </g>
     </g>
    </g>
    <g id="ytick_3">
     <g id="line2d_8">
      <g>
       <use xlink:href="#m9a20274e48" x="57.6" y="239.890823" style="stroke: #000000; stroke-width: 0.8"/>
      </g>
     </g>
     <g id="text_9">
      <!-- 12.5 -->
      <g transform="translate(28.334375 243.690041) scale(0.1 -0.1)">
       <use xlink:href="#DejaVuSans-31"/>
       <use xlink:href="#DejaVuSans-32" x="63.623047"/>
       <use xlink:href="#DejaVuSans-2e" x="127.246094"/>
       <use xlink:href="#DejaVuSans-35" x="159.033203"/>
      </g>
     </g>
    </g>
    <g id="ytick_4">
     <g id="line2d_9">
      <g>
       <use xlink:href="#m9a20274e48" x="57.6" y="206.490298" style="stroke: #000000; stroke-width: 0.8"/>
      </g>
     </g>
     <g id="text_10">
      <!-- 15.0 -->
      <g transform="translate(28.334375 210.289517) scale(0.1 -0.1)">
       <use xlink:href="#DejaVuSans-31"/>
       <use xlink:href="#DejaVuSans-35" x="63.623047"/>
       <use xlink:href="#DejaVuSans-2e" x="127.246094"/>
       <use xlink:href="#DejaVuSans-30" x="159.033203"/>
      </g>
     </g>
    </g>
    <g id="ytick_5">
     <g id="line2d_10">
      <g>
       <use xlink:href="#m9a20274e48" x="57.6" y="173.089773" style="stroke: #000000; stroke-width: 0.8"/>
      </g>
     </g>
     <g id="text_11">
      <!-- 17.5 -->
      <g transform="translate(28.334375 176.888992) scale(0.1 -0.1)">
       <use xlink:href="#DejaVuSans-31"/>
       <use xlink:href="#DejaVuSans-37" x="63.623047"/>
       <use xlink:href="#DejaVuSans-2e" x="127.246094"/>
       <use xlink:href="#DejaVuSans-35" x="159.033203"/>
      </g>
     </g>
    </g>
    <g id="ytick_6">
     <g id="line2d_11">
      <g>
       <use xlink:href="#m9a20274e48" x="57.6" y="139.689249" style="stroke: #000000; stroke-width: 0.8"/>
      </g>
     </g>
     <g id="text_12">
      <!-- 20.0 -->
      <g transform="translate(28.334375 143.488468) scale(0.1 -0.1)">
       <use xlink:href="#DejaVuSans-32"/>
       <use xlink:href="#DejaVuSans-30" x="63.623047"/>
       <use xlink:href="#DejaVuSans-2e" x="127.246094"/>
       <use xlink:href="#DejaVuSans-30" x="159.033203"/>
      </g>
     </g>
    </g>
    <g id="ytick_7">
     <g id="line2d_12">
      <g>
       <use xlink:href="#m9a20274e48" x="57.6" y="106.288724" style="stroke: #000000; stroke-width: 0.8"/>
      </g>
     </g>
     <g id="text_13">
      <!-- 22.5 -->
      <g transform="translate(28.334375 110.087943) scale(0.1 -0.1)">
       <use xlink:href="#DejaVuSans-32"/>
       <use xlink:href="#DejaVuSans-32" x="63.623047"/>
       <use xlink:href="#DejaVuSans-2e" x="127.246094"/>
       <use xlink:href="#DejaVuSans-35" x="159.033203"/>
      </g>
     </g>
    </g>
    <g id="ytick_8">
     <g id="line2d_13">
      <g>
       <use xlink:href="#m9a20274e48" x="57.6" y="72.888199" style="stroke: #000000; stroke-width: 0.8"/>
      </g>
     </g>
     <g id="text_14">
      <!-- 25.0 -->
      <g transform="translate(28.334375 76.687418) scale(0.1 -0.1)">
       <use xlink:href="#DejaVuSans-32"/>
       <use xlink:href="#DejaVuSans-35" x="63.623047"/>
       <use xlink:href="#DejaVuSans-2e" x="127.246094"/>
       <use xlink:href="#DejaVuSans-30" x="159.033203"/>
      </g>
     </g>
    </g>
    <g id="text_15">
     <!-- Conductivity -->
     <g transform="translate(22.254687 205.956906) rotate(-90) scale(0.1 -0.1)">
      <defs>
       <path id="DejaVuSans-43" d="M 4122 4306 
L 4122 3641 
Q 3803 3938 3442 4084 
Q 3081 4231 2675 4231 
Q 1875 4231 1450 3742 
Q 1025 3253 1025 2328 
Q 1025 1406 1450 917 
Q 1875 428 2675 428 
Q 3081 428 3442 575 
Q 3803 722 4122 1019 
L 4122 359 
Q 3791 134 3420 21 
Q 3050 -91 2638 -91 
Q 1578 -91 968 557 
Q 359 1206 359 2328 
Q 359 3453 968 4101 
Q 1578 4750 2638 4750 
Q 3056 4750 3426 4639 
Q 3797 4528 4122 4306 
z
" transform="scale(0.015625)"/>
       <path id="DejaVuSans-6f" d="M 1959 3097 
Q 1497 3097 1228 2736 
Q 959 2375 959 1747 
Q 959 1119 1226 758 
Q 1494 397 1959 397 
Q 2419 397 2687 759 
Q 2956 1122 2956 1747 
Q 2956 2369 2687 2733 
Q 2419 3097 1959 3097 
z
M 1959 3584 
Q 2709 3584 3137 3096 
Q 3566 2609 3566 1747 
Q 3566 888 3137 398 
Q 2709 -91 1959 -91 
Q 1206 -91 779 398 
Q 353 888 353 1747 
Q 353 2609 779 3096 
Q 1206 3584 1959 3584 
z
" transform="scale(0.015625)"/>
       <path id="DejaVuSans-6e" d="M 3513 2113 
L 3513 0 
L 2938 0 
L 2938 2094 
Q 2938 2591 2744 2837 
Q 2550 3084 2163 3084 
Q 1697 3084 1428 2787 
Q 1159 2491 1159 1978 
L 1159 0 
L 581 0 
L 581 3500 
L 1159 3500 
L 1159 2956 
Q 1366 3272 1645 3428 
Q 1925 3584 2291 3584 
Q 2894 3584 3203 3211 
Q 3513 2838 3513 2113 
z
" transform="scale(0.015625)"/>
       <path id="DejaVuSans-64" d="M 2906 2969 
L 2906 4863 
L 3481 4863 
L 3481 0 
L 2906 0 
L 2906 525 
Q 2725 213 2448 61 
Q 2172 -91 1784 -91 
Q 1150 -91 751 415 
Q 353 922 353 1747 
Q 353 2572 751 3078 
Q 1150 3584 1784 3584 
Q 2172 3584 2448 3432 
Q 2725 3281 2906 2969 
z
M 947 1747 
Q 947 1113 1208 752 
Q 1469 391 1925 391 
Q 2381 391 2643 752 
Q 2906 1113 2906 1747 
Q 2906 2381 2643 2742 
Q 2381 3103 1925 3103 
Q 1469 3103 1208 2742 
Q 947 2381 947 1747 
z
" transform="scale(0.015625)"/>
       <path id="DejaVuSans-75" d="M 544 1381 
L 544 3500 
L 1119 3500 
L 1119 1403 
Q 1119 906 1312 657 
Q 1506 409 1894 409 
Q 2359 409 2629 706 
Q 2900 1003 2900 1516 
L 2900 3500 
L 3475 3500 
L 3475 0 
L 2900 0 
L 2900 538 
Q 2691 219 2414 64 
Q 2138 -91 1772 -91 
Q 1169 -91 856 284 
Q 544 659 544 1381 
z
M 1991 3584 
L 1991 3584 
z
" transform="scale(0.015625)"/>
       <path id="DejaVuSans-63" d="M 3122 3366 
L 3122 2828 
Q 2878 2963 2633 3030 
Q 2388 3097 2138 3097 
Q 1578 3097 1268 2742 
Q 959 2388 959 1747 
Q 959 1106 1268 751 
Q 1578 397 2138 397 
Q 2388 397 2633 464 
Q 2878 531 3122 666 
L 3122 134 
Q 2881 22 2623 -34 
Q 2366 -91 2075 -91 
Q 1284 -91 818 406 
Q 353 903 353 1747 
Q 353 2603 823 3093 
Q 1294 3584 2113 3584 
Q 2378 3584 2631 3529 
Q 2884 3475 3122 3366 
z
" transform="scale(0.015625)"/>
       <path id="DejaVuSans-74" d="M 1172 4494 
L 1172 3500 
L 2356 3500 
L 2356 3053 
L 1172 3053 
L 1172 1153 
Q 1172 725 1289 603 
Q 1406 481 1766 481 
L 2356 481 
L 2356 0 
L 1766 0 
Q 1100 0 847 248 
Q 594 497 594 1153 
L 594 3053 
L 172 3053 
L 172 3500 
L 594 3500 
L 594 4494 
L 1172 4494 
z
" transform="scale(0.015625)"/>
       <path id="DejaVuSans-69" d="M 603 3500 
L 1178 3500 
L 1178 0 
L 603 0 
L 603 3500 
z
M 603 4863 
L 1178 4863 
L 1178 4134 
L 603 4134 
L 603 4863 
z
" transform="scale(0.015625)"/>
       <path id="DejaVuSans-76" d="M 191 3500 
L 800 3500 
L 1894 563 
L 2988 3500 
L 3597 3500 
L 2284 0 
L 1503 0 
L 191 3500 
z
" transform="scale(0.015625)"/>
       <path id="DejaVuSans-79" d="M 2059 -325 
Q 1816 -950 1584 -1140 
Q 1353 -1331 966 -1331 
L 506 -1331 
L 506 -850 
L 844 -850 
Q 1081 -850 1212 -737 
Q 1344 -625 1503 -206 
L 1606 56 
L 191 3500 
L 800 3500 
L 1894 763 
L 2988 3500 
L 3597 3500 
L 2059 -325 
z
" transform="scale(0.015625)"/>
      </defs>
      <use xlink:href="#DejaVuSans-43"/>
      <use xlink:href="#DejaVuSans-6f" x="69.824219"/>
      <use xlink:href="#DejaVuSans-6e" x="131.005859"/>
      <use xlink:href="#DejaVuSans-64" x="194.384766"/>
      <use xlink:href="#DejaVuSans-75" x="257.861328"/>
      <use xlink:href="#DejaVuSans-63" x="321.240234"/>
      <use xlink:href="#DejaVuSans-74" x="376.220703"/>
      <use xlink:href="#DejaVuSans-69" x="415.429688"/>
      <use xlink:href="#DejaVuSans-76" x="443.212891"/>
      <use xlink:href="#DejaVuSans-69" x="502.392578"/>
      <use xlink:href="#DejaVuSans-74" x="530.175781"/>
      <use xlink:href="#DejaVuSans-79" x="569.384766"/>
     </g>
    </g>
   </g>
   <g id="line2d_14">
    <path d="M 397.789841 282.126454 
L 398.487273 282.126454 
L 398.487273 282.126454 
L 393.605249 279.709592 
L 393.605249 280.193232 
L 393.605249 279.709592 
L 392.907818 280.193232 
L 392.907818 279.709592 
L 392.907818 280.193232 
L 391.86167 280.193232 
L 391.86167 280.193232 
L 391.86167 280.676871 
L 391.86167 280.193232 
L 390.11809 280.193232 
L 389.769374 280.676871 
L 389.769374 280.676871 
L 390.466806 280.676871 
L 390.466806 280.676871 
L 389.071942 281.160511 
L 387.677078 281.160511 
L 388.025794 281.160511 
L 388.37451 280.676871 
L 388.37451 281.642815 
L 388.37451 281.642815 
L 388.025794 281.642815 
L 388.025794 281.642815 
L 388.025794 282.126454 
L 388.025794 282.126454 
L 387.677078 282.126454 
L 387.677078 282.126454 
L 387.677078 282.610094 
L 387.677078 282.126454 
L 387.328362 282.126454 
L 387.328362 282.126454 
L 387.328362 282.610094 
L 387.328362 282.610094 
L 386.979647 282.610094 
L 386.979647 282.610094 
L 386.979647 282.126454 
L 386.979647 282.610094 
L 386.282215 282.610094 
L 383.841203 283.092397 
L 384.189919 282.610094 
L 384.189919 283.092397 
L 384.189919 282.610094 
L 384.538635 283.092397 
L 384.538635 283.092397 
L 384.538635 283.576037 
L 381.051475 283.576037 
L 381.748907 283.576037 
L 381.748907 283.092397 
L 382.097623 283.576037 
L 382.097623 283.576037 
L 376.866884 283.576037 
L 377.913032 283.576037 
L 378.261748 284.059676 
L 378.261748 284.059676 
L 378.610464 283.576037 
L 378.610464 283.576037 
L 378.261748 283.576037 
L 378.261748 284.059676 
L 378.261748 283.576037 
L 376.169452 283.576037 
L 361.174667 284.54198 
L 365.359258 284.54198 
L 366.754122 284.059676 
L 368.497701 284.059676 
L 368.148985 284.059676 
L 317.933889 285.02562 
L 300.846808 285.02562 
L 308.867275 285.509259 
L 329.0928 285.02562 
L 343.390153 285.02562 
L 345.133733 284.54198 
L 344.785017 284.54198 
L 344.087585 284.54198 
L 344.087585 285.02562 
L 344.087585 284.54198 
L 344.436301 284.54198 
L 344.436301 284.54198 
L 339.554278 283.576037 
L 288.64175 284.059676 
L 277.831556 285.02562 
L 272.2521 285.02562 
L 269.462373 285.509259 
L 266.323929 285.509259 
L 265.975213 285.02562 
L 265.626497 285.509259 
L 265.277781 285.02562 
L 264.231634 285.02562 
L 263.534202 285.509259 
L 261.790622 285.509259 
L 261.790622 285.02562 
L 261.441906 285.509259 
L 261.441906 285.509259 
L 261.09319 285.509259 
L 261.09319 285.509259 
L 261.09319 285.02562 
L 261.09319 285.509259 
L 261.441906 285.02562 
L 252.375291 285.02562 
L 249.585564 285.509259 
L 248.1907 285.509259 
L 247.493268 285.991563 
L 246.795836 285.509259 
L 246.795836 285.509259 
L 247.144552 285.509259 
L 247.144552 285.509259 
L 242.611245 285.02562 
L 224.1293 285.509259 
L 218.898561 285.991563 
L 219.247277 285.991563 
L 220.293424 285.991563 
L 222.037004 285.509259 
L 225.524164 285.509259 
L 225.524164 285.991563 
L 225.524164 285.509259 
L 225.87288 285.991563 
L 225.87288 285.509259 
L 195.534592 285.509259 
L 182.980818 286.475202 
L 185.42183 285.991563 
L 201.811479 285.991563 
L 201.811479 285.991563 
L 201.811479 285.509259 
L 202.160195 285.991563 
L 202.160195 285.991563 
L 202.508911 285.991563 
L 202.508911 285.509259 
L 202.508911 285.991563 
L 203.206343 285.991563 
L 203.206343 285.991563 
L 203.206343 285.509259 
L 203.206343 285.991563 
L 203.555059 285.509259 
L 203.555059 285.991563 
L 203.903775 285.509259 
L 203.903775 285.991563 
L 203.903775 285.991563 
L 204.252491 285.991563 
L 204.252491 285.509259 
L 204.252491 285.991563 
L 204.601207 285.509259 
L 204.601207 285.991563 
L 204.601207 285.991563 
L 184.026966 285.02562 
L 166.591169 285.509259 
L 167.637317 285.991563 
L 169.03218 285.991563 
L 170.77576 285.509259 
L 172.170624 285.991563 
L 173.565488 285.509259 
L 174.26292 285.991563 
L 174.26292 285.509259 
L 174.26292 285.509259 
L 173.914204 285.509259 
L 173.914204 285.509259 
L 174.26292 285.991563 
L 174.26292 285.509259 
L 174.26292 285.509259 
L 174.611636 285.509259 
L 174.611636 285.991563 
L 174.611636 285.509259 
L 175.309067 285.509259 
L 164.498873 285.509259 
L 167.288601 285.509259 
L 167.288601 285.02562 
L 167.288601 285.509259 
L 159.965566 285.02562 
L 160.662998 285.02562 
L 161.011714 285.509259 
L 161.36043 285.02562 
L 162.057862 285.02562 
L 162.057862 285.02562 
L 162.057862 285.509259 
L 162.057862 285.02562 
L 162.406577 285.02562 
L 162.057862 285.509259 
L 162.406577 285.509259 
L 162.406577 285.02562 
L 162.406577 285.02562 
L 162.057862 285.02562 
L 152.293815 284.54198 
L 152.642531 285.02562 
L 153.339963 284.54198 
L 154.037395 285.02562 
L 154.734827 285.02562 
L 151.596383 285.02562 
L 150.898951 284.54198 
L 151.945099 284.54198 
L 151.945099 285.02562 
L 151.945099 285.02562 
L 150.201519 284.54198 
L 148.806656 284.54198 
L 148.806656 285.02562 
L 149.155372 284.54198 
L 149.852803 284.54198 
L 144.622064 284.54198 
L 146.016928 284.54198 
L 142.181053 284.059676 
L 141.832337 284.54198 
L 142.181053 284.059676 
L 142.878485 284.059676 
L 142.878485 284.059676 
L 142.878485 284.54198 
L 142.878485 284.059676 
L 137.996461 283.576037 
L 138.345177 283.576037 
L 138.693893 284.059676 
L 139.391325 284.059676 
L 139.391325 284.059676 
L 139.042609 283.576037 
L 135.206734 283.576037 
L 135.55545 283.092397 
L 135.904166 283.576037 
L 135.904166 283.576037 
L 136.252882 283.576037 
L 136.252882 283.576037 
L 134.509302 283.092397 
L 132.06829 283.092397 
L 132.417006 283.092397 
L 132.765722 283.576037 
L 133.114438 283.092397 
L 133.114438 283.092397 
L 133.114438 283.576037 
L 133.114438 283.092397 
L 129.278563 282.610094 
L 129.975995 282.610094 
L 130.32471 283.092397 
L 130.32471 282.610094 
L 129.278563 282.126454 
L 126.837551 282.126454 
L 127.186267 282.126454 
L 123.699108 281.642815 
L 124.396539 281.642815 
L 124.745255 281.642815 
L 124.745255 281.642815 
L 122.65296 280.676871 
L 121.258096 280.676871 
L 121.606812 280.676871 
L 121.955528 281.160511 
L 121.955528 280.676871 
L 118.468368 279.709592 
L 118.817084 279.709592 
L 119.1658 280.193232 
L 119.1658 280.193232 
L 119.514516 280.193232 
L 119.514516 280.193232 
L 116.027357 279.227289 
L 116.376073 279.227289 
L 116.724789 279.227289 
L 116.724789 279.227289 
L 117.073505 279.709592 
L 114.981209 277.294066 
L 113.586345 277.777706 
L 113.935061 277.777706 
L 113.935061 278.743649 
L 111.145333 275.844483 
L 110.796618 276.328123 
L 110.796618 276.328123 
L 111.145333 276.328123 
L 111.494049 276.810427 
L 111.494049 276.328123 
L 111.842765 276.810427 
L 111.842765 276.328123 
L 111.494049 276.810427 
L 108.704322 274.394901 
L 107.309458 274.394901 
L 108.00689 274.394901 
L 108.355606 274.87854 
L 108.355606 274.87854 
L 108.355606 274.394901 
L 108.355606 274.87854 
L 108.704322 274.87854 
L 108.355606 274.87854 
L 108.704322 274.394901 
L 108.355606 274.87854 
L 108.704322 274.87854 
L 108.355606 274.87854 
L 108.355606 274.394901 
L 108.355606 274.394901 
L 103.473583 271.012096 
L 103.822299 271.495735 
L 103.822299 271.495735 
L 104.51973 271.979375 
L 104.51973 271.979375 
L 104.868446 271.979375 
L 104.868446 271.979375 
L 101.032571 270.046152 
L 100.683855 270.046152 
L 101.032571 270.046152 
L 101.730003 271.012096 
L 101.730003 271.012096 
L 101.730003 270.529792 
L 97.196696 265.213764 
L 97.196696 266.179708 
L 97.545412 266.179708 
L 98.242843 267.146987 
L 94.755684 260.865016 
L 94.058252 261.348656 
L 94.406968 261.348656 
L 94.406968 262.314599 
L 91.617241 255.550325 
L 91.268525 256.516268 
L 91.965956 257.482211 
L 91.965956 257.965851 
L 91.965956 257.965851 
L 91.268525 253.133463 
L 86.735217 245.401909 
L 86.735217 246.851492 
L 87.083933 247.335132 
L 87.432649 248.301075 
L 87.781365 248.784714 
L 87.781365 249.268354 
L 88.130081 249.268354 
L 87.432649 247.818771 
L 87.432649 247.818771 
L 87.432649 245.401909 
L 85.689069 243.952326 
L 86.037785 243.952326 
L 86.037785 243.952326 
L 83.248058 235.25483 
L 83.596774 236.220773 
L 83.596774 237.188052 
L 83.94549 237.670356 
L 83.94549 238.153995 
L 83.248058 232.355664 
L 81.504478 229.456499 
L 81.504478 229.940138 
L 82.20191 231.872025 
L 82.20191 231.872025 
L 82.20191 232.355664 
L 82.20191 230.906082 
L 79.063466 215.926614 
L 79.063466 217.859837 
L 79.412182 218.82578 
L 79.412182 219.309419 
L 79.760898 219.791723 
L 79.760898 219.791723 
L 79.760898 220.275363 
L 77.319887 205.779535 
L 76.971171 207.229118 
L 76.971171 206.261838 
L 75.227591 197.082038 
L 75.576307 198.531621 
L 75.576307 199.981204 
L 75.925023 200.947147 
L 75.925023 201.430787 
L 75.925023 201.430787 
L 75.227591 194.665176 
L 73.832727 179.202069 
L 73.832727 185.001737 
L 73.832727 53.568 
L 73.832727 69.99705 
" clip-path="url(#p784403aa1d)" style="fill: none; stroke: #1f77b4; stroke-width: 1.5; stroke-linecap: square"/>
   </g>
   <g id="line2d_15">
    <path d="M 395.697545 281.474476 
L 395.697545 281.958115 
L 395.697545 281.958115 
L 395.348829 281.958115 
L 395.697545 281.958115 
L 395.697545 281.474476 
L 395.697545 281.474476 
L 395.348829 281.958115 
L 395.697545 281.958115 
L 395.348829 281.958115 
L 395.697545 281.474476 
L 395.697545 281.474476 
L 395.697545 281.958115 
L 395.697545 281.474476 
L 395.348829 281.958115 
L 395.348829 281.958115 
L 395.348829 281.474476 
L 395.348829 281.958115 
L 395.697545 281.958115 
L 395.348829 281.958115 
L 395.348829 281.474476 
L 395.348829 281.958115 
L 395.000113 281.958115 
L 395.000113 281.958115 
L 395.000113 282.924059 
L 395.000113 282.441755 
L 395.348829 282.441755 
L 395.348829 282.441755 
L 395.000113 282.924059 
L 395.348829 282.441755 
L 395.348829 282.924059 
L 395.000113 282.924059 
L 395.000113 282.924059 
L 395.000113 283.407698 
L 395.000113 283.407698 
L 395.348829 283.407698 
L 395.348829 283.407698 
L 395.348829 282.924059 
L 395.348829 283.407698 
L 395.000113 283.407698 
L 395.000113 283.407698 
L 395.000113 283.891338 
L 395.000113 283.891338 
L 395.348829 283.891338 
L 395.000113 283.891338 
L 395.000113 283.407698 
L 395.000113 283.891338 
L 395.348829 283.891338 
L 395.000113 283.891338 
L 395.000113 284.857281 
L 395.000113 284.857281 
L 395.348829 284.857281 
L 395.348829 284.857281 
L 395.348829 285.340921 
L 395.348829 284.857281 
L 395.000113 285.340921 
L 395.348829 284.857281 
L 395.348829 285.340921 
L 395.000113 285.340921 
L 395.000113 285.340921 
L 395.000113 285.823224 
L 395.000113 285.823224 
L 395.348829 285.823224 
L 395.000113 285.823224 
L 395.000113 286.306864 
L 395.348829 285.823224 
L 395.000113 286.306864 
L 395.348829 286.306864 
L 395.348829 286.306864 
L 395.348829 285.823224 
L 395.348829 286.306864 
L 395.000113 286.306864 
L 395.348829 286.306864 
L 395.348829 286.790503 
L 395.348829 286.790503 
L 395.000113 286.790503 
L 395.000113 286.306864 
L 395.000113 286.790503 
L 395.348829 286.790503 
L 395.000113 286.306864 
L 395.348829 286.790503 
L 395.000113 286.790503 
L 395.000113 286.790503 
L 395.000113 287.272807 
L 395.348829 287.272807 
L 395.000113 287.272807 
L 395.000113 286.790503 
L 395.000113 287.272807 
L 395.348829 287.272807 
L 395.000113 287.272807 
L 395.000113 295.488 
L 395.000113 292.588834 
L 394.651397 292.588834 
L 395.000113 292.588834 
L 395.000113 291.622891 
L 395.000113 291.622891 
L 394.651397 291.622891 
L 394.651397 291.622891 
L 394.651397 282.924059 
L 394.651397 282.924059 
L 394.302681 282.924059 
L 394.651397 282.924059 
L 394.302681 282.441755 
L 394.302681 282.441755 
L 394.651397 282.441755 
L 394.302681 282.441755 
L 394.302681 281.958115 
L 394.651397 281.958115 
L 394.651397 281.958115 
L 394.302681 281.474476 
L 394.302681 281.474476 
L 394.651397 281.474476 
L 394.302681 281.474476 
L 394.302681 280.992172 
L 394.651397 281.474476 
L 394.302681 280.992172 
L 394.651397 280.992172 
L 394.302681 280.992172 
L 394.302681 280.508533 
L 394.651397 280.508533 
L 394.302681 280.508533 
L 394.302681 278.093007 
L 394.302681 278.093007 
L 393.953965 278.093007 
L 394.302681 278.093007 
L 393.953965 277.609367 
L 393.953965 278.093007 
L 393.953965 277.609367 
L 394.302681 277.609367 
L 394.302681 278.093007 
L 393.953965 277.609367 
L 393.953965 277.609367 
L 393.953965 274.710202 
L 393.953965 274.710202 
L 393.605249 274.710202 
L 393.605249 274.710202 
L 393.605249 272.776979 
L 393.256534 272.776979 
L 393.256534 272.776979 
L 393.256534 271.811036 
L 393.256534 271.811036 
L 392.907818 271.811036 
L 392.907818 271.811036 
L 392.907818 271.327396 
L 392.907818 271.327396 
L 392.559102 271.327396 
L 392.559102 270.843757 
L 392.559102 270.843757 
L 392.210386 270.843757 
L 392.559102 270.843757 
L 392.210386 270.361453 
L 392.210386 270.843757 
L 392.210386 270.361453 
L 391.86167 270.361453 
L 391.86167 270.361453 
L 391.86167 270.843757 
L 391.86167 269.877814 
L 391.86167 269.877814 
L 391.512954 270.361453 
L 391.512954 269.877814 
L 391.512954 269.877814 
L 391.164238 269.877814 
L 391.164238 269.877814 
L 391.164238 269.394174 
L 391.164238 269.394174 
L 390.815522 269.394174 
L 390.815522 269.394174 
L 390.815522 268.911871 
L 390.815522 268.911871 
L 390.466806 268.911871 
L 390.466806 268.911871 
L 390.466806 268.428231 
L 390.466806 268.428231 
L 389.769374 268.428231 
L 389.769374 267.944591 
L 389.769374 267.944591 
L 390.11809 267.944591 
L 389.420658 267.944591 
L 389.420658 267.462288 
L 389.420658 267.462288 
L 389.769374 267.462288 
L 389.071942 267.462288 
L 389.071942 267.462288 
L 389.071942 266.978648 
L 389.071942 266.978648 
L 388.37451 266.978648 
L 388.37451 266.495009 
L 388.37451 266.495009 
L 388.723226 266.495009 
L 388.025794 266.495009 
L 388.025794 266.495009 
L 387.677078 265.529065 
L 387.677078 265.529065 
L 388.025794 265.529065 
L 387.328362 265.529065 
L 387.328362 265.529065 
L 387.328362 265.045426 
L 387.328362 265.045426 
" clip-path="url(#p784403aa1d)" style="fill: none; stroke: #ff7f0e; stroke-width: 1.5; stroke-linecap: square"/>
   </g>
   <g id="patch_3">
    <path d="M 57.6 307.584 
L 57.6 41.472 
" style="fill: none; stroke: #000000; stroke-width: 0.8; stroke-linejoin: miter; stroke-linecap: square"/>
   </g>
   <g id="patch_4">
    <path d="M 414.72 307.584 
L 414.72 41.472 
" style="fill: none; stroke: #000000; stroke-width: 0.8; stroke-linejoin: miter; stroke-linecap: square"/>
   </g>
   <g id="patch_5">
    <path d="M 57.6 307.584 
L 414.72 307.584 
" style="fill: none; stroke: #000000; stroke-width: 0.8; stroke-linejoin: miter; stroke-linecap: square"/>
   </g>
   <g id="patch_6">
    <path d="M 57.6 41.472 
L 414.72 41.472 
" style="fill: none; stroke: #000000; stroke-width: 0.8; stroke-linejoin: miter; stroke-linecap: square"/>
   </g>
   <g id="text_16">
    <!-- pH/Conductivity for 0.1M KCl dataset -->
    <g transform="translate(125.360625 35.472) scale(0.12 -0.12)">
     <defs>
      <path id="DejaVuSans-2f" d="M 1625 4666 
L 2156 4666 
L 531 -594 
L 0 -594 
L 1625 4666 
z
" transform="scale(0.015625)"/>
      <path id="DejaVuSans-20" transform="scale(0.015625)"/>
      <path id="DejaVuSans-66" d="M 2375 4863 
L 2375 4384 
L 1825 4384 
Q 1516 4384 1395 4259 
Q 1275 4134 1275 3809 
L 1275 3500 
L 2222 3500 
L 2222 3053 
L 1275 3053 
L 1275 0 
L 697 0 
L 697 3053 
L 147 3053 
L 147 3500 
L 697 3500 
L 697 3744 
Q 697 4328 969 4595 
Q 1241 4863 1831 4863 
L 2375 4863 
z
" transform="scale(0.015625)"/>
      <path id="DejaVuSans-72" d="M 2631 2963 
Q 2534 3019 2420 3045 
Q 2306 3072 2169 3072 
Q 1681 3072 1420 2755 
Q 1159 2438 1159 1844 
L 1159 0 
L 581 0 
L 581 3500 
L 1159 3500 
L 1159 2956 
Q 1341 3275 1631 3429 
Q 1922 3584 2338 3584 
Q 2397 3584 2469 3576 
Q 2541 3569 2628 3553 
L 2631 2963 
z
" transform="scale(0.015625)"/>
      <path id="DejaVuSans-4d" d="M 628 4666 
L 1569 4666 
L 2759 1491 
L 3956 4666 
L 4897 4666 
L 4897 0 
L 4281 0 
L 4281 4097 
L 3078 897 
L 2444 897 
L 1241 4097 
L 1241 0 
L 628 0 
L 628 4666 
z
" transform="scale(0.015625)"/>
      <path id="DejaVuSans-4b" d="M 628 4666 
L 1259 4666 
L 1259 2694 
L 3353 4666 
L 4166 4666 
L 1850 2491 
L 4331 0 
L 3500 0 
L 1259 2247 
L 1259 0 
L 628 0 
L 628 4666 
z
" transform="scale(0.015625)"/>
      <path id="DejaVuSans-6c" d="M 603 4863 
L 1178 4863 
L 1178 0 
L 603 0 
L 603 4863 
z
" transform="scale(0.015625)"/>
      <path id="DejaVuSans-61" d="M 2194 1759 
Q 1497 1759 1228 1600 
Q 959 1441 959 1056 
Q 959 750 1161 570 
Q 1363 391 1709 391 
Q 2188 391 2477 730 
Q 2766 1069 2766 1631 
L 2766 1759 
L 2194 1759 
z
M 3341 1997 
L 3341 0 
L 2766 0 
L 2766 531 
Q 2569 213 2275 61 
Q 1981 -91 1556 -91 
Q 1019 -91 701 211 
Q 384 513 384 1019 
Q 384 1609 779 1909 
Q 1175 2209 1959 2209 
L 2766 2209 
L 2766 2266 
Q 2766 2663 2505 2880 
Q 2244 3097 1772 3097 
Q 1472 3097 1187 3025 
Q 903 2953 641 2809 
L 641 3341 
Q 956 3463 1253 3523 
Q 1550 3584 1831 3584 
Q 2591 3584 2966 3190 
Q 3341 2797 3341 1997 
z
" transform="scale(0.015625)"/>
      <path id="DejaVuSans-73" d="M 2834 3397 
L 2834 2853 
Q 2591 2978 2328 3040 
Q 2066 3103 1784 3103 
Q 1356 3103 1142 2972 
Q 928 2841 928 2578 
Q 928 2378 1081 2264 
Q 1234 2150 1697 2047 
L 1894 2003 
Q 2506 1872 2764 1633 
Q 3022 1394 3022 966 
Q 3022 478 2636 193 
Q 2250 -91 1575 -91 
Q 1294 -91 989 -36 
Q 684 19 347 128 
L 347 722 
Q 666 556 975 473 
Q 1284 391 1588 391 
Q 1994 391 2212 530 
Q 2431 669 2431 922 
Q 2431 1156 2273 1281 
Q 2116 1406 1581 1522 
L 1381 1569 
Q 847 1681 609 1914 
Q 372 2147 372 2553 
Q 372 3047 722 3315 
Q 1072 3584 1716 3584 
Q 2034 3584 2315 3537 
Q 2597 3491 2834 3397 
z
" transform="scale(0.015625)"/>
      <path id="DejaVuSans-65" d="M 3597 1894 
L 3597 1613 
L 953 1613 
Q 991 1019 1311 708 
Q 1631 397 2203 397 
Q 2534 397 2845 478 
Q 3156 559 3463 722 
L 3463 178 
Q 3153 47 2828 -22 
Q 2503 -91 2169 -91 
Q 1331 -91 842 396 
Q 353 884 353 1716 
Q 353 2575 817 3079 
Q 1281 3584 2069 3584 
Q 2775 3584 3186 3129 
Q 3597 2675 3597 1894 
z
M 3022 2063 
Q 3016 2534 2758 2815 
Q 2500 3097 2075 3097 
Q 1594 3097 1305 2825 
Q 1016 2553 972 2059 
L 3022 2063 
z
" transform="scale(0.015625)"/>
     </defs>
     <use xlink:href="#DejaVuSans-70"/>
     <use xlink:href="#DejaVuSans-48" x="63.476562"/>
     <use xlink:href="#DejaVuSans-2f" x="138.671875"/>
     <use xlink:href="#DejaVuSans-43" x="172.363281"/>
     <use xlink:href="#DejaVuSans-6f" x="242.1875"/>
     <use xlink:href="#DejaVuSans-6e" x="303.369141"/>
     <use xlink:href="#DejaVuSans-64" x="366.748047"/>
     <use xlink:href="#DejaVuSans-75" x="430.224609"/>
     <use xlink:href="#DejaVuSans-63" x="493.603516"/>
     <use xlink:href="#DejaVuSans-74" x="548.583984"/>
     <use xlink:href="#DejaVuSans-69" x="587.792969"/>
     <use xlink:href="#DejaVuSans-76" x="615.576172"/>
     <use xlink:href="#DejaVuSans-69" x="674.755859"/>
     <use xlink:href="#DejaVuSans-74" x="702.539062"/>
     <use xlink:href="#DejaVuSans-79" x="741.748047"/>
     <use xlink:href="#DejaVuSans-20" x="800.927734"/>
     <use xlink:href="#DejaVuSans-66" x="832.714844"/>
     <use xlink:href="#DejaVuSans-6f" x="867.919922"/>
     <use xlink:href="#DejaVuSans-72" x="929.101562"/>
     <use xlink:href="#DejaVuSans-20" x="970.214844"/>
     <use xlink:href="#DejaVuSans-30" x="1002.001953"/>
     <use xlink:href="#DejaVuSans-2e" x="1065.625"/>
     <use xlink:href="#DejaVuSans-31" x="1097.412109"/>
     <use xlink:href="#DejaVuSans-4d" x="1161.035156"/>
     <use xlink:href="#DejaVuSans-20" x="1247.314453"/>
     <use xlink:href="#DejaVuSans-4b" x="1279.101562"/>
     <use xlink:href="#DejaVuSans-43" x="1339.177734"/>
     <use xlink:href="#DejaVuSans-6c" x="1409.001953"/>
     <use xlink:href="#DejaVuSans-20" x="1436.785156"/>
     <use xlink:href="#DejaVuSans-64" x="1468.572266"/>
     <use xlink:href="#DejaVuSans-61" x="1532.048828"/>
     <use xlink:href="#DejaVuSans-74" x="1593.328125"/>
     <use xlink:href="#DejaVuSans-61" x="1632.537109"/>
     <use xlink:href="#DejaVuSans-73" x="1693.816406"/>
     <use xlink:href="#DejaVuSans-65" x="1745.916016"/>
     <use xlink:href="#DejaVuSans-74" x="1807.439453"/>
    </g>
   </g>
   <g id="legend_1">
    <g id="patch_7">
     <path d="M 234.423125 78.82825 
L 407.72 78.82825 
Q 409.72 78.82825 409.72 76.82825 
L 409.72 48.472 
Q 409.72 46.472 407.72 46.472 
L 234.423125 46.472 
Q 232.423125 46.472 232.423125 48.472 
L 232.423125 76.82825 
Q 232.423125 78.82825 234.423125 78.82825 
z
" style="fill: #ffffff; opacity: 0.8; stroke: #cccccc; stroke-linejoin: miter"/>
    </g>
    <g id="line2d_16">
     <path d="M 236.423125 54.570437 
L 246.423125 54.570437 
L 256.423125 54.570437 
" style="fill: none; stroke: #1f77b4; stroke-width: 1.5; stroke-linecap: square"/>
    </g>
    <g id="text_17">
     <!-- Conductivity/pH feed -->
     <g transform="translate(264.423125 58.070437) scale(0.1 -0.1)">
      <use xlink:href="#DejaVuSans-43"/>
      <use xlink:href="#DejaVuSans-6f" x="69.824219"/>
      <use xlink:href="#DejaVuSans-6e" x="131.005859"/>
      <use xlink:href="#DejaVuSans-64" x="194.384766"/>
      <use xlink:href="#DejaVuSans-75" x="257.861328"/>
      <use xlink:href="#DejaVuSans-63" x="321.240234"/>
      <use xlink:href="#DejaVuSans-74" x="376.220703"/>
      <use xlink:href="#DejaVuSans-69" x="415.429688"/>
      <use xlink:href="#DejaVuSans-76" x="443.212891"/>
      <use xlink:href="#DejaVuSans-69" x="502.392578"/>
      <use xlink:href="#DejaVuSans-74" x="530.175781"/>
      <use xlink:href="#DejaVuSans-79" x="569.384766"/>
      <use xlink:href="#DejaVuSans-2f" x="628.564453"/>
      <use xlink:href="#DejaVuSans-70" x="662.255859"/>
      <use xlink:href="#DejaVuSans-48" x="725.732422"/>
      <use xlink:href="#DejaVuSans-20" x="800.927734"/>
      <use xlink:href="#DejaVuSans-66" x="832.714844"/>
      <use xlink:href="#DejaVuSans-65" x="867.919922"/>
      <use xlink:href="#DejaVuSans-65" x="929.443359"/>
      <use xlink:href="#DejaVuSans-64" x="990.966797"/>
     </g>
    </g>
    <g id="line2d_17">
     <path d="M 236.423125 69.248562 
L 246.423125 69.248562 
L 256.423125 69.248562 
" style="fill: none; stroke: #ff7f0e; stroke-width: 1.5; stroke-linecap: square"/>
    </g>
    <g id="text_18">
     <!-- Conductivity/pH premeate 1 -->
     <g transform="translate(264.423125 72.748562) scale(0.1 -0.1)">
      <defs>
       <path id="DejaVuSans-6d" d="M 3328 2828 
Q 3544 3216 3844 3400 
Q 4144 3584 4550 3584 
Q 5097 3584 5394 3201 
Q 5691 2819 5691 2113 
L 5691 0 
L 5113 0 
L 5113 2094 
Q 5113 2597 4934 2840 
Q 4756 3084 4391 3084 
Q 3944 3084 3684 2787 
Q 3425 2491 3425 1978 
L 3425 0 
L 2847 0 
L 2847 2094 
Q 2847 2600 2669 2842 
Q 2491 3084 2119 3084 
Q 1678 3084 1418 2786 
Q 1159 2488 1159 1978 
L 1159 0 
L 581 0 
L 581 3500 
L 1159 3500 
L 1159 2956 
Q 1356 3278 1631 3431 
Q 1906 3584 2284 3584 
Q 2666 3584 2933 3390 
Q 3200 3197 3328 2828 
z
" transform="scale(0.015625)"/>
      </defs>
      <use xlink:href="#DejaVuSans-43"/>
      <use xlink:href="#DejaVuSans-6f" x="69.824219"/>
      <use xlink:href="#DejaVuSans-6e" x="131.005859"/>
      <use xlink:href="#DejaVuSans-64" x="194.384766"/>
      <use xlink:href="#DejaVuSans-75" x="257.861328"/>
      <use xlink:href="#DejaVuSans-63" x="321.240234"/>
      <use xlink:href="#DejaVuSans-74" x="376.220703"/>
      <use xlink:href="#DejaVuSans-69" x="415.429688"/>
      <use xlink:href="#DejaVuSans-76" x="443.212891"/>
      <use xlink:href="#DejaVuSans-69" x="502.392578"/>
      <use xlink:href="#DejaVuSans-74" x="530.175781"/>
      <use xlink:href="#DejaVuSans-79" x="569.384766"/>
      <use xlink:href="#DejaVuSans-2f" x="628.564453"/>
      <use xlink:href="#DejaVuSans-70" x="662.255859"/>
      <use xlink:href="#DejaVuSans-48" x="725.732422"/>
      <use xlink:href="#DejaVuSans-20" x="800.927734"/>
      <use xlink:href="#DejaVuSans-70" x="832.714844"/>
      <use xlink:href="#DejaVuSans-72" x="896.191406"/>
      <use xlink:href="#DejaVuSans-65" x="935.054688"/>
      <use xlink:href="#DejaVuSans-6d" x="996.578125"/>
      <use xlink:href="#DejaVuSans-65" x="1093.990234"/>
      <use xlink:href="#DejaVuSans-61" x="1155.513672"/>
      <use xlink:href="#DejaVuSans-74" x="1216.792969"/>
      <use xlink:href="#DejaVuSans-65" x="1256.001953"/>
      <use xlink:href="#DejaVuSans-20" x="1317.525391"/>
      <use xlink:href="#DejaVuSans-31" x="1349.3125"/>
     </g>
    </g>
   </g>
  </g>
 </g>
 <defs>
  <clipPath id="p784403aa1d">
   <rect x="57.6" y="41.472" width="357.12" height="266.112"/>
  </clipPath>
 </defs>
</svg>
