<?xml version="1.0" encoding="utf-8" standalone="no"?>
<!DOCTYPE svg PUBLIC "-//W3C//DTD SVG 1.1//EN"
  "http://www.w3.org/Graphics/SVG/1.1/DTD/svg11.dtd">
<svg xmlns:xlink="http://www.w3.org/1999/xlink" width="460.8pt" height="345.6pt" viewBox="0 0 460.8 345.6" xmlns="http://www.w3.org/2000/svg" version="1.1">
 <metadata>
  <rdf:RDF xmlns:dc="http://purl.org/dc/elements/1.1/" xmlns:cc="http://creativecommons.org/ns#" xmlns:rdf="http://www.w3.org/1999/02/22-rdf-syntax-ns#">
   <cc:Work>
    <dc:type rdf:resource="http://purl.org/dc/dcmitype/StillImage"/>
    <dc:date>2023-06-19T18:59:19.825156</dc:date>
    <dc:format>image/svg+xml</dc:format>
    <dc:creator>
     <cc:Agent>
      <dc:title>Matplotlib v3.7.1, https://matplotlib.org/</dc:title>
     </cc:Agent>
    </dc:creator>
   </cc:Work>
  </rdf:RDF>
 </metadata>
 <defs>
  <style type="text/css">*{stroke-linejoin: round; stroke-linecap: butt}</style>
 </defs>
 <g id="figure_1">
  <g id="patch_1">
   <path d="M 0 345.6 
L 460.8 345.6 
L 460.8 0 
L 0 0 
z
" style="fill: #ffffff"/>
  </g>
  <g id="axes_1">
   <g id="patch_2">
    <path d="M 57.6 307.584 
L 414.72 307.584 
L 414.72 41.472 
L 57.6 41.472 
z
" style="fill: #ffffff"/>
   </g>
   <g id="matplotlib.axis_1">
    <g id="xtick_1">
     <g id="line2d_1">
      <defs>
       <path id="md316ef0cb9" d="M 0 0 
L 0 3.5 
" style="stroke: #000000; stroke-width: 0.8"/>
      </defs>
      <g>
       <use xlink:href="#md316ef0cb9" x="73.706697" y="307.584" style="stroke: #000000; stroke-width: 0.8"/>
      </g>
     </g>
     <g id="text_1">
      <!-- 0 -->
      <g transform="translate(70.525447 322.182437) scale(0.1 -0.1)">
       <defs>
        <path id="DejaVuSans-30" d="M 2034 4250 
Q 1547 4250 1301 3770 
Q 1056 3291 1056 2328 
Q 1056 1369 1301 889 
Q 1547 409 2034 409 
Q 2525 409 2770 889 
Q 3016 1369 3016 2328 
Q 3016 3291 2770 3770 
Q 2525 4250 2034 4250 
z
M 2034 4750 
Q 2819 4750 3233 4129 
Q 3647 3509 3647 2328 
Q 3647 1150 3233 529 
Q 2819 -91 2034 -91 
Q 1250 -91 836 529 
Q 422 1150 422 2328 
Q 422 3509 836 4129 
Q 1250 4750 2034 4750 
z
" transform="scale(0.015625)"/>
       </defs>
       <use xlink:href="#DejaVuSans-30"/>
      </g>
     </g>
    </g>
    <g id="xtick_2">
     <g id="line2d_2">
      <g>
       <use xlink:href="#md316ef0cb9" x="149.324992" y="307.584" style="stroke: #000000; stroke-width: 0.8"/>
      </g>
     </g>
     <g id="text_2">
      <!-- 5 -->
      <g transform="translate(146.143742 322.182437) scale(0.1 -0.1)">
       <defs>
        <path id="DejaVuSans-35" d="M 691 4666 
L 3169 4666 
L 3169 4134 
L 1269 4134 
L 1269 2991 
Q 1406 3038 1543 3061 
Q 1681 3084 1819 3084 
Q 2600 3084 3056 2656 
Q 3513 2228 3513 1497 
Q 3513 744 3044 326 
Q 2575 -91 1722 -91 
Q 1428 -91 1123 -41 
Q 819 9 494 109 
L 494 744 
Q 775 591 1075 516 
Q 1375 441 1709 441 
Q 2250 441 2565 725 
Q 2881 1009 2881 1497 
Q 2881 1984 2565 2268 
Q 2250 2553 1709 2553 
Q 1456 2553 1204 2497 
Q 953 2441 691 2322 
L 691 4666 
z
" transform="scale(0.015625)"/>
       </defs>
       <use xlink:href="#DejaVuSans-35"/>
      </g>
     </g>
    </g>
    <g id="xtick_3">
     <g id="line2d_3">
      <g>
       <use xlink:href="#md316ef0cb9" x="224.943286" y="307.584" style="stroke: #000000; stroke-width: 0.8"/>
      </g>
     </g>
     <g id="text_3">
      <!-- 10 -->
      <g transform="translate(218.580786 322.182437) scale(0.1 -0.1)">
       <defs>
        <path id="DejaVuSans-31" d="M 794 531 
L 1825 531 
L 1825 4091 
L 703 3866 
L 703 4441 
L 1819 4666 
L 2450 4666 
L 2450 531 
L 3481 531 
L 3481 0 
L 794 0 
L 794 531 
z
" transform="scale(0.015625)"/>
       </defs>
       <use xlink:href="#DejaVuSans-31"/>
       <use xlink:href="#DejaVuSans-30" x="63.623047"/>
      </g>
     </g>
    </g>
    <g id="xtick_4">
     <g id="line2d_4">
      <g>
       <use xlink:href="#md316ef0cb9" x="300.561581" y="307.584" style="stroke: #000000; stroke-width: 0.8"/>
      </g>
     </g>
     <g id="text_4">
      <!-- 15 -->
      <g transform="translate(294.199081 322.182437) scale(0.1 -0.1)">
       <use xlink:href="#DejaVuSans-31"/>
       <use xlink:href="#DejaVuSans-35" x="63.623047"/>
      </g>
     </g>
    </g>
    <g id="xtick_5">
     <g id="line2d_5">
      <g>
       <use xlink:href="#md316ef0cb9" x="376.179876" y="307.584" style="stroke: #000000; stroke-width: 0.8"/>
      </g>
     </g>
     <g id="text_5">
      <!-- 20 -->
      <g transform="translate(369.817376 322.182437) scale(0.1 -0.1)">
       <defs>
        <path id="DejaVuSans-32" d="M 1228 531 
L 3431 531 
L 3431 0 
L 469 0 
L 469 531 
Q 828 903 1448 1529 
Q 2069 2156 2228 2338 
Q 2531 2678 2651 2914 
Q 2772 3150 2772 3378 
Q 2772 3750 2511 3984 
Q 2250 4219 1831 4219 
Q 1534 4219 1204 4116 
Q 875 4013 500 3803 
L 500 4441 
Q 881 4594 1212 4672 
Q 1544 4750 1819 4750 
Q 2544 4750 2975 4387 
Q 3406 4025 3406 3419 
Q 3406 3131 3298 2873 
Q 3191 2616 2906 2266 
Q 2828 2175 2409 1742 
Q 1991 1309 1228 531 
z
" transform="scale(0.015625)"/>
       </defs>
       <use xlink:href="#DejaVuSans-32"/>
       <use xlink:href="#DejaVuSans-30" x="63.623047"/>
      </g>
     </g>
    </g>
    <g id="text_6">
     <!-- Time (s) -->
     <g transform="translate(215.831094 335.860562) scale(0.1 -0.1)">
      <defs>
       <path id="DejaVuSans-54" d="M -19 4666 
L 3928 4666 
L 3928 4134 
L 2272 4134 
L 2272 0 
L 1638 0 
L 1638 4134 
L -19 4134 
L -19 4666 
z
" transform="scale(0.015625)"/>
       <path id="DejaVuSans-69" d="M 603 3500 
L 1178 3500 
L 1178 0 
L 603 0 
L 603 3500 
z
M 603 4863 
L 1178 4863 
L 1178 4134 
L 603 4134 
L 603 4863 
z
" transform="scale(0.015625)"/>
       <path id="DejaVuSans-6d" d="M 3328 2828 
Q 3544 3216 3844 3400 
Q 4144 3584 4550 3584 
Q 5097 3584 5394 3201 
Q 5691 2819 5691 2113 
L 5691 0 
L 5113 0 
L 5113 2094 
Q 5113 2597 4934 2840 
Q 4756 3084 4391 3084 
Q 3944 3084 3684 2787 
Q 3425 2491 3425 1978 
L 3425 0 
L 2847 0 
L 2847 2094 
Q 2847 2600 2669 2842 
Q 2491 3084 2119 3084 
Q 1678 3084 1418 2786 
Q 1159 2488 1159 1978 
L 1159 0 
L 581 0 
L 581 3500 
L 1159 3500 
L 1159 2956 
Q 1356 3278 1631 3431 
Q 1906 3584 2284 3584 
Q 2666 3584 2933 3390 
Q 3200 3197 3328 2828 
z
" transform="scale(0.015625)"/>
       <path id="DejaVuSans-65" d="M 3597 1894 
L 3597 1613 
L 953 1613 
Q 991 1019 1311 708 
Q 1631 397 2203 397 
Q 2534 397 2845 478 
Q 3156 559 3463 722 
L 3463 178 
Q 3153 47 2828 -22 
Q 2503 -91 2169 -91 
Q 1331 -91 842 396 
Q 353 884 353 1716 
Q 353 2575 817 3079 
Q 1281 3584 2069 3584 
Q 2775 3584 3186 3129 
Q 3597 2675 3597 1894 
z
M 3022 2063 
Q 3016 2534 2758 2815 
Q 2500 3097 2075 3097 
Q 1594 3097 1305 2825 
Q 1016 2553 972 2059 
L 3022 2063 
z
" transform="scale(0.015625)"/>
       <path id="DejaVuSans-20" transform="scale(0.015625)"/>
       <path id="DejaVuSans-28" d="M 1984 4856 
Q 1566 4138 1362 3434 
Q 1159 2731 1159 2009 
Q 1159 1288 1364 580 
Q 1569 -128 1984 -844 
L 1484 -844 
Q 1016 -109 783 600 
Q 550 1309 550 2009 
Q 550 2706 781 3412 
Q 1013 4119 1484 4856 
L 1984 4856 
z
" transform="scale(0.015625)"/>
       <path id="DejaVuSans-73" d="M 2834 3397 
L 2834 2853 
Q 2591 2978 2328 3040 
Q 2066 3103 1784 3103 
Q 1356 3103 1142 2972 
Q 928 2841 928 2578 
Q 928 2378 1081 2264 
Q 1234 2150 1697 2047 
L 1894 2003 
Q 2506 1872 2764 1633 
Q 3022 1394 3022 966 
Q 3022 478 2636 193 
Q 2250 -91 1575 -91 
Q 1294 -91 989 -36 
Q 684 19 347 128 
L 347 722 
Q 666 556 975 473 
Q 1284 391 1588 391 
Q 1994 391 2212 530 
Q 2431 669 2431 922 
Q 2431 1156 2273 1281 
Q 2116 1406 1581 1522 
L 1381 1569 
Q 847 1681 609 1914 
Q 372 2147 372 2553 
Q 372 3047 722 3315 
Q 1072 3584 1716 3584 
Q 2034 3584 2315 3537 
Q 2597 3491 2834 3397 
z
" transform="scale(0.015625)"/>
       <path id="DejaVuSans-29" d="M 513 4856 
L 1013 4856 
Q 1481 4119 1714 3412 
Q 1947 2706 1947 2009 
Q 1947 1309 1714 600 
Q 1481 -109 1013 -844 
L 513 -844 
Q 928 -128 1133 580 
Q 1338 1288 1338 2009 
Q 1338 2731 1133 3434 
Q 928 4138 513 4856 
z
" transform="scale(0.015625)"/>
      </defs>
      <use xlink:href="#DejaVuSans-54"/>
      <use xlink:href="#DejaVuSans-69" x="57.958984"/>
      <use xlink:href="#DejaVuSans-6d" x="85.742188"/>
      <use xlink:href="#DejaVuSans-65" x="183.154297"/>
      <use xlink:href="#DejaVuSans-20" x="244.677734"/>
      <use xlink:href="#DejaVuSans-28" x="276.464844"/>
      <use xlink:href="#DejaVuSans-73" x="315.478516"/>
      <use xlink:href="#DejaVuSans-29" x="367.578125"/>
     </g>
    </g>
   </g>
   <g id="matplotlib.axis_2">
    <g id="ytick_1">
     <g id="line2d_6">
      <defs>
       <path id="m3444d9b999" d="M 0 0 
L -3.5 0 
" style="stroke: #000000; stroke-width: 0.8"/>
      </defs>
      <g>
       <use xlink:href="#m3444d9b999" x="57.6" y="306.691872" style="stroke: #000000; stroke-width: 0.8"/>
      </g>
     </g>
     <g id="text_7">
      <!-- 7.5 -->
      <g transform="translate(34.696875 310.491091) scale(0.1 -0.1)">
       <defs>
        <path id="DejaVuSans-37" d="M 525 4666 
L 3525 4666 
L 3525 4397 
L 1831 0 
L 1172 0 
L 2766 4134 
L 525 4134 
L 525 4666 
z
" transform="scale(0.015625)"/>
        <path id="DejaVuSans-2e" d="M 684 794 
L 1344 794 
L 1344 0 
L 684 0 
L 684 794 
z
" transform="scale(0.015625)"/>
       </defs>
       <use xlink:href="#DejaVuSans-37"/>
       <use xlink:href="#DejaVuSans-2e" x="63.623047"/>
       <use xlink:href="#DejaVuSans-35" x="95.410156"/>
      </g>
     </g>
    </g>
    <g id="ytick_2">
     <g id="line2d_7">
      <g>
       <use xlink:href="#m3444d9b999" x="57.6" y="273.291347" style="stroke: #000000; stroke-width: 0.8"/>
      </g>
     </g>
     <g id="text_8">
      <!-- 10.0 -->
      <g transform="translate(28.334375 277.090566) scale(0.1 -0.1)">
       <use xlink:href="#DejaVuSans-31"/>
       <use xlink:href="#DejaVuSans-30" x="63.623047"/>
       <use xlink:href="#DejaVuSans-2e" x="127.246094"/>
       <use xlink:href="#DejaVuSans-30" x="159.033203"/>
      </g>
     </g>
    </g>
    <g id="ytick_3">
     <g id="line2d_8">
      <g>
       <use xlink:href="#m3444d9b999" x="57.6" y="239.890823" style="stroke: #000000; stroke-width: 0.8"/>
      </g>
     </g>
     <g id="text_9">
      <!-- 12.5 -->
      <g transform="translate(28.334375 243.690041) scale(0.1 -0.1)">
       <use xlink:href="#DejaVuSans-31"/>
       <use xlink:href="#DejaVuSans-32" x="63.623047"/>
       <use xlink:href="#DejaVuSans-2e" x="127.246094"/>
       <use xlink:href="#DejaVuSans-35" x="159.033203"/>
      </g>
     </g>
    </g>
    <g id="ytick_4">
     <g id="line2d_9">
      <g>
       <use xlink:href="#m3444d9b999" x="57.6" y="206.490298" style="stroke: #000000; stroke-width: 0.8"/>
      </g>
     </g>
     <g id="text_10">
      <!-- 15.0 -->
      <g transform="translate(28.334375 210.289517) scale(0.1 -0.1)">
       <use xlink:href="#DejaVuSans-31"/>
       <use xlink:href="#DejaVuSans-35" x="63.623047"/>
       <use xlink:href="#DejaVuSans-2e" x="127.246094"/>
       <use xlink:href="#DejaVuSans-30" x="159.033203"/>
      </g>
     </g>
    </g>
    <g id="ytick_5">
     <g id="line2d_10">
      <g>
       <use xlink:href="#m3444d9b999" x="57.6" y="173.089773" style="stroke: #000000; stroke-width: 0.8"/>
      </g>
     </g>
     <g id="text_11">
      <!-- 17.5 -->
      <g transform="translate(28.334375 176.888992) scale(0.1 -0.1)">
       <use xlink:href="#DejaVuSans-31"/>
       <use xlink:href="#DejaVuSans-37" x="63.623047"/>
       <use xlink:href="#DejaVuSans-2e" x="127.246094"/>
       <use xlink:href="#DejaVuSans-35" x="159.033203"/>
      </g>
     </g>
    </g>
    <g id="ytick_6">
     <g id="line2d_11">
      <g>
       <use xlink:href="#m3444d9b999" x="57.6" y="139.689249" style="stroke: #000000; stroke-width: 0.8"/>
      </g>
     </g>
     <g id="text_12">
      <!-- 20.0 -->
      <g transform="translate(28.334375 143.488468) scale(0.1 -0.1)">
       <use xlink:href="#DejaVuSans-32"/>
       <use xlink:href="#DejaVuSans-30" x="63.623047"/>
       <use xlink:href="#DejaVuSans-2e" x="127.246094"/>
       <use xlink:href="#DejaVuSans-30" x="159.033203"/>
      </g>
     </g>
    </g>
    <g id="ytick_7">
     <g id="line2d_12">
      <g>
       <use xlink:href="#m3444d9b999" x="57.6" y="106.288724" style="stroke: #000000; stroke-width: 0.8"/>
      </g>
     </g>
     <g id="text_13">
      <!-- 22.5 -->
      <g transform="translate(28.334375 110.087943) scale(0.1 -0.1)">
       <use xlink:href="#DejaVuSans-32"/>
       <use xlink:href="#DejaVuSans-32" x="63.623047"/>
       <use xlink:href="#DejaVuSans-2e" x="127.246094"/>
       <use xlink:href="#DejaVuSans-35" x="159.033203"/>
      </g>
     </g>
    </g>
    <g id="ytick_8">
     <g id="line2d_13">
      <g>
       <use xlink:href="#m3444d9b999" x="57.6" y="72.888199" style="stroke: #000000; stroke-width: 0.8"/>
      </g>
     </g>
     <g id="text_14">
      <!-- 25.0 -->
      <g transform="translate(28.334375 76.687418) scale(0.1 -0.1)">
       <use xlink:href="#DejaVuSans-32"/>
       <use xlink:href="#DejaVuSans-35" x="63.623047"/>
       <use xlink:href="#DejaVuSans-2e" x="127.246094"/>
       <use xlink:href="#DejaVuSans-30" x="159.033203"/>
      </g>
     </g>
    </g>
    <g id="text_15">
     <!-- Conductivity -->
     <g transform="translate(22.254687 205.956906) rotate(-90) scale(0.1 -0.1)">
      <defs>
       <path id="DejaVuSans-43" d="M 4122 4306 
L 4122 3641 
Q 3803 3938 3442 4084 
Q 3081 4231 2675 4231 
Q 1875 4231 1450 3742 
Q 1025 3253 1025 2328 
Q 1025 1406 1450 917 
Q 1875 428 2675 428 
Q 3081 428 3442 575 
Q 3803 722 4122 1019 
L 4122 359 
Q 3791 134 3420 21 
Q 3050 -91 2638 -91 
Q 1578 -91 968 557 
Q 359 1206 359 2328 
Q 359 3453 968 4101 
Q 1578 4750 2638 4750 
Q 3056 4750 3426 4639 
Q 3797 4528 4122 4306 
z
" transform="scale(0.015625)"/>
       <path id="DejaVuSans-6f" d="M 1959 3097 
Q 1497 3097 1228 2736 
Q 959 2375 959 1747 
Q 959 1119 1226 758 
Q 1494 397 1959 397 
Q 2419 397 2687 759 
Q 2956 1122 2956 1747 
Q 2956 2369 2687 2733 
Q 2419 3097 1959 3097 
z
M 1959 3584 
Q 2709 3584 3137 3096 
Q 3566 2609 3566 1747 
Q 3566 888 3137 398 
Q 2709 -91 1959 -91 
Q 1206 -91 779 398 
Q 353 888 353 1747 
Q 353 2609 779 3096 
Q 1206 3584 1959 3584 
z
" transform="scale(0.015625)"/>
       <path id="DejaVuSans-6e" d="M 3513 2113 
L 3513 0 
L 2938 0 
L 2938 2094 
Q 2938 2591 2744 2837 
Q 2550 3084 2163 3084 
Q 1697 3084 1428 2787 
Q 1159 2491 1159 1978 
L 1159 0 
L 581 0 
L 581 3500 
L 1159 3500 
L 1159 2956 
Q 1366 3272 1645 3428 
Q 1925 3584 2291 3584 
Q 2894 3584 3203 3211 
Q 3513 2838 3513 2113 
z
" transform="scale(0.015625)"/>
       <path id="DejaVuSans-64" d="M 2906 2969 
L 2906 4863 
L 3481 4863 
L 3481 0 
L 2906 0 
L 2906 525 
Q 2725 213 2448 61 
Q 2172 -91 1784 -91 
Q 1150 -91 751 415 
Q 353 922 353 1747 
Q 353 2572 751 3078 
Q 1150 3584 1784 3584 
Q 2172 3584 2448 3432 
Q 2725 3281 2906 2969 
z
M 947 1747 
Q 947 1113 1208 752 
Q 1469 391 1925 391 
Q 2381 391 2643 752 
Q 2906 1113 2906 1747 
Q 2906 2381 2643 2742 
Q 2381 3103 1925 3103 
Q 1469 3103 1208 2742 
Q 947 2381 947 1747 
z
" transform="scale(0.015625)"/>
       <path id="DejaVuSans-75" d="M 544 1381 
L 544 3500 
L 1119 3500 
L 1119 1403 
Q 1119 906 1312 657 
Q 1506 409 1894 409 
Q 2359 409 2629 706 
Q 2900 1003 2900 1516 
L 2900 3500 
L 3475 3500 
L 3475 0 
L 2900 0 
L 2900 538 
Q 2691 219 2414 64 
Q 2138 -91 1772 -91 
Q 1169 -91 856 284 
Q 544 659 544 1381 
z
M 1991 3584 
L 1991 3584 
z
" transform="scale(0.015625)"/>
       <path id="DejaVuSans-63" d="M 3122 3366 
L 3122 2828 
Q 2878 2963 2633 3030 
Q 2388 3097 2138 3097 
Q 1578 3097 1268 2742 
Q 959 2388 959 1747 
Q 959 1106 1268 751 
Q 1578 397 2138 397 
Q 2388 397 2633 464 
Q 2878 531 3122 666 
L 3122 134 
Q 2881 22 2623 -34 
Q 2366 -91 2075 -91 
Q 1284 -91 818 406 
Q 353 903 353 1747 
Q 353 2603 823 3093 
Q 1294 3584 2113 3584 
Q 2378 3584 2631 3529 
Q 2884 3475 3122 3366 
z
" transform="scale(0.015625)"/>
       <path id="DejaVuSans-74" d="M 1172 4494 
L 1172 3500 
L 2356 3500 
L 2356 3053 
L 1172 3053 
L 1172 1153 
Q 1172 725 1289 603 
Q 1406 481 1766 481 
L 2356 481 
L 2356 0 
L 1766 0 
Q 1100 0 847 248 
Q 594 497 594 1153 
L 594 3053 
L 172 3053 
L 172 3500 
L 594 3500 
L 594 4494 
L 1172 4494 
z
" transform="scale(0.015625)"/>
       <path id="DejaVuSans-76" d="M 191 3500 
L 800 3500 
L 1894 563 
L 2988 3500 
L 3597 3500 
L 2284 0 
L 1503 0 
L 191 3500 
z
" transform="scale(0.015625)"/>
       <path id="DejaVuSans-79" d="M 2059 -325 
Q 1816 -950 1584 -1140 
Q 1353 -1331 966 -1331 
L 506 -1331 
L 506 -850 
L 844 -850 
Q 1081 -850 1212 -737 
Q 1344 -625 1503 -206 
L 1606 56 
L 191 3500 
L 800 3500 
L 1894 763 
L 2988 3500 
L 3597 3500 
L 2059 -325 
z
" transform="scale(0.015625)"/>
      </defs>
      <use xlink:href="#DejaVuSans-43"/>
      <use xlink:href="#DejaVuSans-6f" x="69.824219"/>
      <use xlink:href="#DejaVuSans-6e" x="131.005859"/>
      <use xlink:href="#DejaVuSans-64" x="194.384766"/>
      <use xlink:href="#DejaVuSans-75" x="257.861328"/>
      <use xlink:href="#DejaVuSans-63" x="321.240234"/>
      <use xlink:href="#DejaVuSans-74" x="376.220703"/>
      <use xlink:href="#DejaVuSans-69" x="415.429688"/>
      <use xlink:href="#DejaVuSans-76" x="443.212891"/>
      <use xlink:href="#DejaVuSans-69" x="502.392578"/>
      <use xlink:href="#DejaVuSans-74" x="530.175781"/>
      <use xlink:href="#DejaVuSans-79" x="569.384766"/>
     </g>
    </g>
   </g>
   <g id="line2d_14">
    <path d="M 73.832727 282.126454 
L 75.219063 282.126454 
L 75.345093 279.709592 
L 75.471124 280.193232 
L 75.597154 279.709592 
L 75.723185 279.709592 
L 75.849215 280.193232 
L 75.975246 279.709592 
L 76.101276 279.709592 
L 76.227307 280.193232 
L 76.353337 279.709592 
L 76.479368 280.193232 
L 77.487612 280.193232 
L 77.613642 280.676871 
L 77.739673 280.193232 
L 77.991733 280.193232 
L 78.117764 280.676871 
L 78.873947 280.676871 
L 78.999977 281.160511 
L 79.252038 281.160511 
L 79.378069 280.676871 
L 79.504099 281.160511 
L 80.638374 281.160511 
L 80.764404 281.642815 
L 80.890435 281.160511 
L 81.142496 281.160511 
L 81.268526 281.642815 
L 82.654862 281.642815 
L 82.780892 282.126454 
L 85.049441 282.126454 
L 85.175471 282.610094 
L 85.301502 282.126454 
L 85.931654 282.126454 
L 86.057685 282.610094 
L 86.183715 282.126454 
L 87.570051 282.126454 
L 87.696081 282.610094 
L 87.822112 282.126454 
L 87.948142 282.610094 
L 88.074173 282.126454 
L 88.326234 282.126454 
L 88.452264 282.610094 
L 88.704325 282.610094 
L 88.830356 282.126454 
L 88.956386 282.610094 
L 89.082417 282.126454 
L 89.208447 282.126454 
L 89.334478 282.610094 
L 89.96463 282.610094 
L 90.090661 282.126454 
L 90.216691 282.610094 
L 91.981118 282.610094 
L 92.107149 283.092397 
L 92.233179 282.610094 
L 92.359209 283.092397 
L 92.48524 282.610094 
L 92.61127 283.092397 
L 94.375697 283.092397 
L 94.501728 283.576037 
L 95.00585 283.576037 
L 95.13188 283.092397 
L 95.257911 283.576037 
L 96.518216 283.576037 
L 96.644246 284.059676 
L 96.770277 284.059676 
L 96.896307 283.576037 
L 97.148368 283.576037 
L 97.274399 284.059676 
L 97.400429 283.576037 
L 97.52646 284.059676 
L 97.65249 283.576037 
L 98.030582 283.576037 
L 98.156612 284.54198 
L 98.408673 284.54198 
L 98.534704 284.059676 
L 99.416917 284.059676 
L 99.542947 285.02562 
L 99.668978 285.02562 
L 99.795008 285.509259 
L 99.921039 285.02562 
L 100.1731 285.02562 
L 100.29913 284.54198 
L 100.803252 284.54198 
L 100.929283 285.02562 
L 101.055313 284.54198 
L 102.063557 284.54198 
L 102.189588 283.576037 
L 102.315618 284.059676 
L 102.441649 285.02562 
L 102.567679 285.02562 
L 102.69371 285.509259 
L 103.071801 285.509259 
L 103.197832 285.02562 
L 103.323862 285.509259 
L 103.449893 285.02562 
L 103.575923 285.02562 
L 103.701954 285.509259 
L 104.332106 285.509259 
L 104.458137 285.02562 
L 104.584167 285.509259 
L 105.21432 285.509259 
L 105.34035 285.02562 
L 105.466381 285.509259 
L 106.222564 285.509259 
L 106.348594 285.02562 
L 106.600655 285.02562 
L 106.726685 285.509259 
L 106.852716 285.509259 
L 106.978746 285.991563 
L 107.104777 285.509259 
L 107.482868 285.509259 
L 107.608899 285.02562 
L 107.86096 285.991563 
L 108.113021 285.991563 
L 108.239051 285.509259 
L 108.743173 285.509259 
L 108.869204 285.991563 
L 108.995234 285.509259 
L 109.121265 285.509259 
L 109.247295 285.991563 
L 109.373326 285.509259 
L 109.499356 285.991563 
L 109.625387 285.509259 
L 109.751417 285.509259 
L 109.877448 286.475202 
L 110.003478 285.991563 
L 112.90218 285.991563 
L 113.02821 285.509259 
L 113.154241 285.991563 
L 113.532332 285.991563 
L 113.658363 285.509259 
L 113.784393 285.991563 
L 114.414545 285.991563 
L 114.540576 285.509259 
L 114.666606 285.991563 
L 114.792637 285.509259 
L 114.918667 285.991563 
L 115.044698 285.509259 
L 115.170728 285.991563 
L 115.54882 285.991563 
L 115.67485 285.509259 
L 115.800881 285.509259 
L 115.926911 285.991563 
L 116.052942 285.509259 
L 116.178972 285.991563 
L 116.431033 285.991563 
L 116.557064 285.02562 
L 116.809125 285.991563 
L 116.935155 285.991563 
L 117.061186 285.509259 
L 117.187216 285.991563 
L 117.313247 285.509259 
L 117.439277 285.991563 
L 117.565308 285.509259 
L 118.06943 285.509259 
L 118.19546 285.991563 
L 118.321491 285.509259 
L 118.825613 285.509259 
L 118.951643 285.991563 
L 119.077674 285.509259 
L 122.102405 285.509259 
L 122.228436 285.02562 
L 122.354466 285.509259 
L 123.23668 285.509259 
L 123.36271 285.02562 
L 123.488741 285.509259 
L 123.614771 285.509259 
L 123.740802 285.02562 
L 123.992863 285.02562 
L 124.118893 285.509259 
L 124.244924 285.02562 
L 124.623015 285.02562 
L 124.749046 285.509259 
L 125.253168 285.509259 
L 125.379198 285.02562 
L 125.505229 285.509259 
L 125.631259 285.02562 
L 125.88332 285.02562 
L 126.009351 285.509259 
L 126.135381 285.509259 
L 126.261412 285.02562 
L 127.269656 285.02562 
L 127.395686 285.509259 
L 127.521717 285.509259 
L 127.647747 285.02562 
L 128.151869 285.02562 
L 128.277899 284.54198 
L 128.40393 285.02562 
L 128.52996 284.54198 
L 128.655991 285.02562 
L 129.286143 285.02562 
L 129.412174 284.54198 
L 129.790265 284.54198 
L 129.916296 285.02562 
L 130.042326 285.02562 
L 130.168357 284.54198 
L 130.294387 284.54198 
L 130.420418 285.02562 
L 130.546448 284.54198 
L 132.058814 284.54198 
L 132.184845 284.059676 
L 132.310875 284.54198 
L 132.436906 284.059676 
L 132.688967 284.059676 
L 132.814997 284.54198 
L 132.941028 284.54198 
L 133.193089 283.576037 
L 133.44515 283.576037 
L 133.57118 284.059676 
L 134.201333 284.059676 
L 134.327363 283.576037 
L 134.453394 283.576037 
L 134.579424 283.092397 
L 134.705455 283.576037 
L 135.461637 283.576037 
L 135.587668 283.092397 
L 135.965759 283.092397 
L 136.09179 283.576037 
L 136.21782 283.092397 
L 136.343851 283.092397 
L 136.469881 283.576037 
L 136.595912 283.092397 
L 136.974003 283.092397 
L 137.100034 282.610094 
L 137.478125 282.610094 
L 137.604156 283.092397 
L 137.856217 282.126454 
L 138.360339 282.126454 
L 138.486369 281.642815 
L 138.990491 281.642815 
L 139.116522 280.676871 
L 139.494613 280.676871 
L 139.620644 281.160511 
L 139.746674 280.676871 
L 139.872705 279.709592 
L 139.998735 279.709592 
L 140.124766 280.193232 
L 140.628888 280.193232 
L 140.754918 279.227289 
L 141.13301 279.227289 
L 141.25904 279.709592 
L 141.385071 279.709592 
L 141.511101 277.294066 
L 141.637132 277.777706 
L 141.763162 277.777706 
L 141.889193 278.743649 
L 142.015223 275.844483 
L 142.141254 276.328123 
L 142.393315 276.328123 
L 142.519345 276.810427 
L 142.645375 276.328123 
L 142.771406 276.810427 
L 142.897436 276.328123 
L 143.023467 276.810427 
L 143.149497 274.394901 
L 143.527589 274.394901 
L 143.653619 274.87854 
L 145.039955 274.87854 
L 145.165985 274.394901 
L 145.292016 274.87854 
L 145.670107 274.87854 
L 145.796138 274.394901 
L 145.922168 274.87854 
L 146.804382 274.87854 
L 146.930412 274.394901 
L 147.056443 274.87854 
L 147.182473 274.394901 
L 147.308504 274.87854 
L 147.434534 274.87854 
L 147.560565 274.394901 
L 147.686595 271.012096 
L 147.812626 271.495735 
L 147.938656 271.495735 
L 148.064687 271.979375 
L 148.694839 271.979375 
L 148.82087 270.046152 
L 149.072931 270.046152 
L 149.198961 270.529792 
L 149.324992 270.529792 
L 149.451022 271.012096 
L 149.829113 271.012096 
L 149.955144 270.529792 
L 150.081174 265.213764 
L 150.207205 266.179708 
L 150.333235 266.179708 
L 150.585296 267.146987 
L 150.711327 260.865016 
L 150.837357 261.348656 
L 150.963388 261.348656 
L 151.089418 262.314599 
L 151.215449 255.550325 
L 151.46751 256.999907 
L 151.719571 257.965851 
L 151.845601 257.965851 
L 152.097662 245.401909 
L 152.223693 246.851492 
L 152.349723 247.335132 
L 152.601784 248.784714 
L 152.727815 249.268354 
L 152.853845 249.268354 
L 152.979876 247.818771 
L 153.105906 247.818771 
L 153.357967 243.952326 
L 153.610028 243.952326 
L 153.736059 235.25483 
L 154.11415 237.670356 
L 154.240181 238.153995 
L 154.492242 229.456499 
L 154.618272 229.940138 
L 154.744303 230.906082 
L 154.870333 230.906082 
L 154.996364 231.872025 
L 155.122394 231.872025 
L 155.248425 232.355664 
L 155.374455 232.355664 
L 155.500486 230.906082 
L 155.626516 215.926614 
L 156.130638 219.309419 
L 156.256669 219.791723 
L 156.50873 219.791723 
L 156.63476 220.275363 
L 156.760791 205.779535 
L 156.886821 207.229118 
L 157.012851 206.261838 
L 157.138882 197.082038 
L 157.516973 200.947147 
L 157.643004 201.430787 
L 157.895065 201.430787 
L 158.021095 194.665176 
L 158.147126 179.202069 
L 158.651248 185.001737 
L 158.777278 173.887378 
L 158.903309 152.1423 
L 159.533461 160.841133 
L 159.659492 161.323437 
L 160.163614 161.323437 
L 160.289644 142.478861 
L 160.415675 141.029278 
L 160.919797 145.861666 
L 161.045827 146.343969 
L 161.67598 146.343969 
L 161.928041 106.237955 
L 162.054071 108.653481 
L 162.180102 112.036286 
L 162.306132 53.568 
L 162.684224 72.896216 
L 162.810254 70.962993 
L 163.062315 73.379855 
L 163.188346 73.379855 
L 163.314376 72.896216 
L 163.440407 75.795381 
L 163.566437 72.413912 
L 163.692468 72.896216 
L 163.818498 72.413912 
L 164.070559 73.379855 
L 164.952772 73.379855 
L 165.078803 73.863495 
L 165.204833 73.379855 
L 165.330864 73.863495 
L 165.456894 73.379855 
L 165.582925 73.379855 
L 165.708955 73.863495 
L 165.834986 73.379855 
L 165.961016 73.863495 
L 166.087047 73.379855 
L 166.213077 73.379855 
L 166.339108 73.863495 
L 166.465138 73.863495 
L 166.591169 73.379855 
L 166.717199 73.863495 
L 167.095291 73.863495 
L 167.221321 73.379855 
L 167.347352 73.863495 
L 167.725443 73.863495 
L 167.851474 73.379855 
L 167.977504 73.863495 
L 168.355596 73.863495 
L 168.481626 74.345798 
L 168.733687 74.345798 
L 168.859718 73.863495 
L 168.985748 74.345798 
L 169.111779 73.863495 
L 169.237809 74.345798 
L 169.36384 73.863495 
L 169.867962 73.863495 
L 169.993992 74.829438 
L 170.120023 73.863495 
L 170.246053 73.863495 
L 170.372084 74.345798 
L 170.498114 73.863495 
L 171.254297 73.863495 
L 171.380327 75.795381 
L 171.506358 74.345798 
L 171.758419 74.345798 
L 171.884449 73.863495 
L 172.01048 74.345798 
L 172.13651 73.863495 
L 172.388571 73.863495 
L 172.514602 74.345798 
L 172.640632 74.345798 
L 172.766663 73.863495 
L 173.270785 73.863495 
L 173.396815 74.345798 
L 173.522846 73.863495 
L 173.648876 74.345798 
L 174.152998 74.345798 
L 174.279029 74.829438 
L 174.405059 74.345798 
L 174.783151 74.345798 
L 174.909181 73.863495 
L 175.035212 74.345798 
L 175.161242 74.345798 
L 175.287273 73.863495 
L 175.413303 74.345798 
L 175.665364 74.345798 
L 175.791395 73.863495 
L 175.917425 74.345798 
L 176.169486 74.345798 
L 176.295517 73.863495 
L 176.421547 74.345798 
L 176.673608 74.345798 
L 176.799639 73.863495 
L 176.925669 73.863495 
L 177.0517 74.345798 
L 177.17773 73.863495 
L 177.303761 73.863495 
L 177.429791 74.345798 
L 177.555822 73.863495 
L 177.681852 74.345798 
L 177.807883 74.345798 
L 177.933913 73.863495 
L 178.059944 74.345798 
L 178.564065 74.345798 
L 178.690096 74.829438 
L 178.816126 74.829438 
L 178.942157 74.345798 
L 179.194218 74.345798 
L 179.320248 73.863495 
L 179.446279 74.345798 
L 179.572309 73.863495 
L 179.69834 74.345798 
L 180.958645 74.345798 
L 181.084675 74.829438 
L 181.210706 73.863495 
L 181.336736 74.829438 
L 181.462767 74.345798 
L 182.849102 74.345798 
L 182.975133 73.863495 
L 183.101163 73.863495 
L 183.227194 74.345798 
L 183.353224 74.345798 
L 183.479255 73.863495 
L 183.605285 74.345798 
L 183.731316 73.863495 
L 184.991621 73.863495 
L 185.117651 74.829438 
L 185.243682 74.345798 
L 185.495743 74.345798 
L 185.621773 73.863495 
L 186.125895 73.863495 
L 186.251925 74.345798 
L 186.377956 73.863495 
L 187.51223 73.863495 
L 187.638261 74.345798 
L 187.764291 73.863495 
L 188.898566 73.863495 
L 189.024596 74.345798 
L 189.150627 73.863495 
L 189.780779 73.863495 
L 189.90681 74.345798 
L 190.03284 74.345798 
L 190.158871 73.863495 
L 190.662993 73.863495 
L 190.789023 73.379855 
L 190.915054 73.863495 
L 191.167115 73.863495 
L 191.293145 73.379855 
L 191.545206 73.379855 
L 191.671237 73.863495 
L 191.797267 73.863495 
L 191.923298 73.379855 
L 192.049328 73.379855 
L 192.175359 73.863495 
L 192.301389 73.379855 
L 192.42742 73.863495 
L 192.55345 77.244964 
L 192.805511 73.379855 
L 192.931542 73.863495 
L 193.183602 73.863495 
L 193.309633 73.379855 
L 193.939785 73.379855 
L 194.065816 75.313078 
L 194.191846 73.863495 
L 194.569938 73.863495 
L 194.695968 73.379855 
L 194.821999 73.863495 
L 195.326121 73.863495 
L 195.452151 73.379855 
L 197.846731 73.379855 
L 197.972761 72.896216 
L 198.098792 73.379855 
L 198.350853 73.379855 
L 198.476883 76.76266 
L 198.602914 75.795381 
L 198.728944 73.379855 
L 199.107036 73.379855 
L 199.233066 72.896216 
L 199.359097 73.379855 
L 199.863219 73.379855 
L 199.989249 72.896216 
L 200.11528 74.345798 
L 200.24131 73.863495 
L 200.36734 76.279021 
L 200.619401 73.379855 
L 200.871462 73.379855 
L 200.997493 72.896216 
L 201.123523 73.379855 
L 201.249554 72.896216 
L 201.375584 73.379855 
L 202.005737 73.379855 
L 202.131767 72.896216 
L 202.257798 73.379855 
L 202.76192 73.379855 
L 202.88795 72.896216 
L 203.013981 72.896216 
L 203.140011 73.379855 
L 203.266042 73.379855 
L 203.392072 72.896216 
L 203.518103 73.379855 
L 203.644133 72.896216 
L 204.022225 72.896216 
L 204.148255 73.379855 
L 204.274286 72.896216 
L 204.400316 72.896216 
L 204.526347 75.313078 
L 204.778408 72.896216 
L 204.904438 72.896216 
L 205.030469 73.379855 
L 205.156499 72.896216 
L 206.542835 72.896216 
L 206.668865 74.829438 
L 206.920926 72.896216 
L 207.299018 72.896216 
L 207.425048 73.379855 
L 207.551078 72.896216 
L 208.307261 72.896216 
L 208.433292 73.379855 
L 208.559322 72.896216 
L 209.693597 72.896216 
L 209.819627 72.413912 
L 209.945658 72.896216 
L 210.071688 72.896216 
L 210.197719 73.379855 
L 210.44978 72.413912 
L 210.57581 72.896216 
L 210.827871 72.896216 
L 210.953902 73.379855 
L 211.079932 77.728604 
L 211.331993 74.345798 
L 211.458024 72.896216 
L 211.584054 72.896216 
L 211.710085 73.379855 
L 211.836115 72.896216 
L 212.214207 72.896216 
L 212.340237 73.379855 
L 212.466268 73.379855 
L 212.592298 72.896216 
L 213.852603 72.896216 
L 213.978634 72.413912 
L 214.104664 72.413912 
L 214.230695 72.896216 
L 214.734816 72.896216 
L 214.860847 73.379855 
L 214.986877 72.896216 
L 215.238938 72.896216 
L 215.364969 72.413912 
L 215.490999 72.413912 
L 215.61703 72.896216 
L 215.74306 72.413912 
L 215.869091 72.896216 
L 215.995121 72.413912 
L 216.121152 72.896216 
L 216.247182 72.413912 
L 216.499243 72.413912 
L 216.625274 72.896216 
L 216.751304 72.413912 
L 217.129396 72.413912 
L 217.255426 72.896216 
L 217.381457 72.896216 
L 217.507487 72.413912 
L 217.633518 72.896216 
L 217.759548 73.863495 
L 217.885579 72.413912 
L 218.13764 73.379855 
L 218.26367 73.379855 
L 218.515731 72.413912 
L 219.271914 72.413912 
L 219.397945 72.896216 
L 219.523975 72.413912 
L 219.650006 72.896216 
L 219.776036 72.413912 
L 220.406189 72.413912 
L 220.532219 72.896216 
L 220.65825 72.413912 
L 220.78428 76.279021 
L 221.036341 72.413912 
L 221.162372 72.896216 
L 221.288402 72.413912 
L 221.414433 72.413912 
L 221.540463 72.896216 
L 221.666494 72.413912 
L 222.044585 72.413912 
L 222.170615 73.379855 
L 222.422676 72.413912 
L 222.800768 72.413912 
L 222.926798 73.379855 
L 223.052829 72.413912 
L 223.43092 72.413912 
L 223.556951 73.379855 
L 223.809012 72.413912 
L 225.447408 72.413912 
L 225.573439 73.863495 
L 225.699469 72.413912 
L 225.8255 72.413912 
L 225.95153 72.896216 
L 226.203591 72.896216 
L 226.329622 72.413912 
L 226.455652 72.896216 
L 226.707713 72.896216 
L 226.833744 73.379855 
L 226.959774 72.413912 
L 227.085805 72.413912 
L 227.211835 72.896216 
L 227.463896 72.896216 
L 227.589927 72.413912 
L 227.715957 72.413912 
L 227.841988 72.896216 
L 227.968018 72.413912 
L 228.47214 72.413912 
L 228.598171 72.896216 
L 228.724201 72.413912 
L 230.362597 72.413912 
L 230.488628 72.896216 
L 230.614658 72.896216 
L 230.740689 73.863495 
L 230.866719 72.413912 
L 230.99275 72.896216 
L 231.11878 72.896216 
L 231.244811 72.413912 
L 231.370841 72.896216 
L 231.496872 72.413912 
L 232.127024 72.413912 
L 232.253055 72.896216 
L 232.379085 72.413912 
L 233.009238 72.413912 
L 233.135268 71.930272 
L 233.261299 72.413912 
L 233.387329 71.930272 
L 233.51336 72.413912 
L 233.765421 72.413912 
L 233.891451 72.896216 
L 234.017482 71.930272 
L 234.143512 72.413912 
L 235.277787 72.413912 
L 235.403817 72.896216 
L 235.529848 72.413912 
L 236.538091 72.413912 
L 236.664122 72.896216 
L 236.790152 72.413912 
L 237.420305 72.413912 
L 237.546335 72.896216 
L 237.672366 72.413912 
L 238.176488 72.413912 
L 238.302518 72.896216 
L 238.428549 72.413912 
L 239.058701 72.413912 
L 239.184732 72.896216 
L 239.310762 72.413912 
L 239.814884 72.413912 
L 239.940915 71.930272 
L 240.066945 72.413912 
L 241.20122 72.413912 
L 241.32725 71.930272 
L 241.453281 72.413912 
L 241.831372 72.413912 
L 242.083433 76.279021 
L 242.335494 72.413912 
L 242.461525 71.930272 
L 242.587555 72.413912 
L 242.713586 72.413912 
L 242.839616 71.930272 
L 242.965647 72.413912 
L 243.217708 72.413912 
L 243.343738 71.930272 
L 243.469768 72.413912 
L 243.97389 72.413912 
L 244.099921 73.863495 
L 244.225951 72.413912 
L 244.730073 72.413912 
L 244.856104 72.896216 
L 244.982134 72.413912 
L 245.486256 72.413912 
L 245.612287 74.829438 
L 245.864348 71.930272 
L 245.990378 72.413912 
L 246.746561 72.413912 
L 246.872592 71.930272 
L 246.998622 72.413912 
L 248.132897 72.413912 
L 248.258927 73.863495 
L 248.510988 72.413912 
L 248.637019 71.930272 
L 248.763049 72.413912 
L 248.88908 72.413912 
L 249.01511 71.930272 
L 249.141141 71.930272 
L 249.267171 72.413912 
L 249.645263 72.413912 
L 249.771293 71.930272 
L 250.023354 71.930272 
L 250.149385 72.413912 
L 250.779537 72.413912 
L 250.905567 71.930272 
L 251.031598 72.413912 
L 251.157628 71.930272 
L 251.283659 72.413912 
L 251.409689 72.413912 
L 251.53572 71.930272 
L 251.66175 72.413912 
L 251.787781 71.930272 
L 251.913811 71.930272 
L 252.039842 72.413912 
L 252.165872 71.930272 
L 253.300147 71.930272 
L 253.426177 72.896216 
L 253.552208 71.930272 
L 253.804269 72.896216 
L 253.930299 72.413912 
L 254.18236 72.413912 
L 254.308391 71.930272 
L 254.686482 71.930272 
L 254.812513 72.413912 
L 254.938543 71.930272 
L 255.064574 72.413912 
L 255.190604 71.930272 
L 255.442665 71.930272 
L 255.568696 72.413912 
L 255.694726 76.76266 
L 255.820757 72.413912 
L 255.946787 71.930272 
L 256.072818 72.413912 
L 256.324879 72.413912 
L 256.450909 71.930272 
L 256.70297 71.930272 
L 256.829001 72.413912 
L 256.955031 72.413912 
L 257.081062 73.379855 
L 257.207092 73.379855 
L 257.459153 71.930272 
L 257.585184 72.413912 
L 257.711214 71.930272 
L 259.22358 71.930272 
L 259.34961 72.413912 
L 259.475641 72.413912 
L 259.601671 71.930272 
L 259.727702 72.413912 
L 259.853732 71.930272 
L 260.483885 71.930272 
L 260.609915 70.962993 
L 260.735946 71.930272 
L 260.861976 71.930272 
L 260.988007 72.413912 
L 261.114037 71.930272 
L 261.240068 73.863495 
L 261.366098 71.930272 
L 261.492129 72.896216 
L 261.618159 77.728604 
L 261.996251 72.413912 
L 262.122281 71.930272 
L 262.626403 71.930272 
L 262.752434 73.379855 
L 262.878464 71.930272 
L 263.130525 71.930272 
L 263.256556 76.279021 
L 263.508617 71.930272 
L 263.760678 71.930272 
L 263.886708 70.962993 
L 264.012739 71.930272 
L 264.39083 71.930272 
L 264.516861 70.962993 
L 264.642891 71.930272 
L 264.768922 74.345798 
L 264.894952 70.962993 
L 265.020982 71.930272 
L 265.525104 71.930272 
L 265.777165 72.896216 
L 266.029226 71.930272 
L 266.281287 71.930272 
L 266.407318 72.413912 
L 266.533348 73.863495 
L 266.659379 73.379855 
L 266.785409 71.930272 
L 266.91144 72.413912 
L 267.03747 72.413912 
L 267.163501 71.930272 
L 267.415562 71.930272 
L 267.541592 73.379855 
L 267.667623 72.896216 
L 267.793653 71.930272 
L 268.297775 71.930272 
L 268.423806 72.413912 
L 268.549836 70.962993 
L 268.675867 71.930272 
L 269.306019 71.930272 
L 269.55808 75.313078 
L 269.684111 71.930272 
L 270.440294 71.930272 
L 270.566324 72.413912 
L 270.692355 71.930272 
L 270.818385 71.930272 
L 270.944416 76.76266 
L 271.196477 72.413912 
L 271.322507 72.413912 
L 271.448538 71.930272 
L 271.574568 75.795381 
L 271.700599 75.795381 
L 271.826629 71.930272 
L 272.20472 71.930272 
L 272.330751 70.962993 
L 272.456781 70.962993 
L 272.582812 72.413912 
L 272.708842 71.930272 
L 273.338995 71.930272 
L 273.465025 76.279021 
L 273.717086 71.930272 
L 273.969147 71.930272 
L 274.095178 72.896216 
L 274.221208 77.244964 
L 274.473269 72.413912 
L 274.5993 72.413912 
L 274.72533 71.930272 
L 276.363727 71.930272 
L 276.489757 72.413912 
L 276.615788 71.930272 
L 276.993879 71.930272 
L 277.11991 72.896216 
L 277.24594 77.728604 
L 277.371971 72.413912 
L 277.750062 72.413912 
L 277.876093 71.930272 
L 278.002123 72.413912 
L 278.128154 71.930272 
L 278.254184 75.313078 
L 278.506245 71.930272 
L 278.758306 71.930272 
L 278.884337 72.413912 
L 279.010367 71.930272 
L 279.640519 71.930272 
L 279.76655 72.413912 
L 279.89258 71.930272 
L 281.152885 71.930272 
L 281.278916 72.413912 
L 281.404946 72.413912 
L 281.530977 71.930272 
L 281.657007 71.930272 
L 281.783038 72.413912 
L 281.909068 71.930272 
L 282.035099 72.413912 
L 282.161129 71.930272 
L 282.28716 72.413912 
L 282.41319 71.930272 
L 283.547465 71.930272 
L 283.673495 70.962993 
L 283.799526 71.930272 
L 284.051587 71.930272 
L 284.177617 72.413912 
L 284.303648 71.930272 
L 284.429678 71.930272 
L 284.555709 70.962993 
L 284.681739 71.930272 
L 284.80777 70.962993 
L 284.9338 71.930272 
L 285.311892 71.930272 
L 285.437922 70.962993 
L 285.563953 70.962993 
L 285.689983 71.930272 
L 285.816014 71.930272 
L 285.942044 70.962993 
L 286.068075 71.930272 
L 286.572196 71.930272 
L 286.698227 75.313078 
L 286.950288 71.930272 
L 287.076318 70.962993 
L 290.227081 70.962993 
L 290.353111 75.313078 
L 290.479142 70.962993 
L 290.605172 70.962993 
L 290.731203 71.930272 
L 290.857233 71.930272 
L 290.983264 70.962993 
L 291.109294 70.962993 
L 291.235325 71.930272 
L 291.361355 71.930272 
L 291.487386 72.896216 
L 291.613416 75.313078 
L 291.865477 71.930272 
L 291.991508 71.930272 
L 292.117538 70.962993 
L 292.243569 70.962993 
L 292.369599 71.930272 
L 292.49563 71.930272 
L 292.62166 70.962993 
L 292.747691 71.930272 
L 292.873721 71.930272 
L 292.999752 70.962993 
L 293.377843 70.962993 
L 293.503874 71.930272 
L 294.386087 71.930272 
L 294.512117 70.962993 
L 294.638148 71.930272 
L 294.890209 71.930272 
L 295.016239 70.962993 
L 295.14227 70.962993 
L 295.2683 71.930272 
L 295.394331 71.930272 
L 295.520361 70.962993 
L 295.772422 70.962993 
L 295.898453 71.930272 
L 296.024483 70.962993 
L 296.402575 70.962993 
L 296.654636 73.379855 
L 296.780666 76.76266 
L 297.158758 70.962993 
L 297.536849 70.962993 
L 297.66288 75.795381 
L 297.78891 71.930272 
L 297.914941 71.930272 
L 298.040971 70.962993 
L 298.419063 70.962993 
L 298.545093 71.930272 
L 298.671124 70.962993 
L 298.797154 71.930272 
L 299.175246 71.930272 
L 299.301276 70.962993 
L 299.427307 71.930272 
L 299.679368 71.930272 
L 299.805398 70.962993 
L 299.931429 71.930272 
L 300.057459 70.962993 
L 300.18349 71.930272 
L 300.30952 70.962993 
L 300.435551 71.930272 
L 300.687612 71.930272 
L 300.813642 70.962993 
L 302.83013 70.962993 
L 302.95616 71.930272 
L 303.082191 70.962993 
L 303.334252 70.962993 
L 303.586313 74.829438 
L 303.838374 76.76266 
L 304.216465 71.930272 
L 304.468526 71.930272 
L 304.720587 70.48069 
L 304.846618 70.962993 
L 304.972648 70.962993 
L 305.098679 70.48069 
L 305.224709 70.962993 
L 306.485014 70.962993 
L 306.611045 70.48069 
L 306.737075 70.48069 
L 306.863106 70.962993 
L 306.989136 70.48069 
L 307.115167 70.962993 
L 307.241197 70.48069 
L 307.367228 70.48069 
L 307.619289 74.345798 
L 307.87135 70.48069 
L 307.99738 70.962993 
L 308.123411 70.48069 
L 309.383715 70.48069 
L 309.509746 70.962993 
L 309.635776 71.930272 
L 309.887837 71.930272 
L 310.013868 70.962993 
L 310.64402 70.962993 
L 310.770051 71.930272 
L 310.896081 70.962993 
L 312.156386 70.962993 
L 312.282417 70.48069 
L 312.786539 70.48069 
L 312.912569 70.962993 
L 313.542722 70.962993 
L 313.668752 70.48069 
L 313.794783 70.962993 
L 313.920813 70.48069 
L 314.929057 70.48069 
L 315.055088 70.962993 
L 315.181118 70.48069 
L 315.81127 70.48069 
L 315.937301 70.962993 
L 316.063331 70.48069 
L 317.323636 70.48069 
L 317.449667 70.962993 
L 317.575697 70.962993 
L 317.701728 70.48069 
L 318.709972 70.48069 
L 318.836002 69.99705 
L 318.962033 70.48069 
L 319.088063 70.48069 
L 319.214094 74.829438 
L 319.340124 70.48069 
L 319.466155 73.863495 
L 319.718216 70.48069 
L 319.844246 70.962993 
L 319.970277 70.48069 
L 320.222338 70.48069 
L 320.348368 70.962993 
L 320.474399 70.962993 
L 320.600429 70.48069 
L 320.85249 70.48069 
L 320.978521 70.962993 
L 321.104551 70.48069 
L 322.364856 70.48069 
L 322.490887 69.99705 
L 322.616917 70.48069 
L 322.742947 69.99705 
L 322.868978 70.48069 
L 323.121039 70.48069 
L 323.247069 75.313078 
L 323.3731 70.48069 
L 324.003252 70.48069 
L 324.129283 69.99705 
L 324.255313 70.48069 
L 324.381344 69.99705 
L 324.507374 69.99705 
L 324.633405 70.48069 
L 324.759435 69.99705 
L 324.885466 70.48069 
L 325.011496 70.48069 
L 325.137527 69.99705 
L 325.263557 70.48069 
L 325.389588 69.99705 
L 325.641649 69.99705 
L 325.767679 70.48069 
L 326.271801 70.48069 
L 326.397832 69.99705 
L 326.523862 70.48069 
L 326.649893 70.48069 
L 326.775923 69.99705 
L 326.901954 70.48069 
L 327.027984 70.48069 
L 327.154015 69.99705 
L 327.280045 70.48069 
L 327.406076 70.48069 
L 327.532106 69.99705 
L 327.658137 70.48069 
L 328.918442 70.48069 
L 329.044472 69.99705 
L 329.170503 70.48069 
L 329.296533 69.99705 
L 329.422564 70.48069 
L 329.548594 69.99705 
L 329.674625 69.99705 
L 329.800655 70.48069 
L 329.926685 69.99705 
L 330.178746 69.99705 
L 330.304777 74.829438 
L 330.556838 70.48069 
L 330.682868 70.962993 
L 330.808899 75.313078 
L 330.934929 70.962993 
L 331.18699 69.99705 
L 331.313021 69.99705 
L 331.439051 70.48069 
L 331.565082 69.99705 
L 331.691112 70.48069 
L 331.817143 69.99705 
L 332.069204 69.99705 
L 332.195234 70.48069 
L 332.447295 69.51341 
L 332.699356 70.48069 
L 332.825387 69.99705 
L 332.951417 70.48069 
L 333.077448 69.99705 
L 333.329509 69.99705 
L 333.455539 70.48069 
L 333.58157 69.99705 
L 333.833631 70.962993 
L 333.959661 70.962993 
L 334.085692 74.829438 
L 334.337753 70.48069 
L 334.463783 69.99705 
L 335.093936 69.99705 
L 335.219966 74.829438 
L 335.345997 72.413912 
L 335.472027 76.279021 
L 335.850119 70.48069 
L 335.976149 69.99705 
L 336.22821 69.99705 
L 336.354241 70.48069 
L 336.480271 69.99705 
L 336.606302 69.99705 
L 336.732332 75.313078 
L 336.984393 69.99705 
L 337.110423 70.48069 
L 337.236454 69.99705 
L 337.614545 69.99705 
L 337.740576 70.48069 
L 337.866606 70.48069 
L 337.992637 69.99705 
L 338.118667 70.48069 
L 338.496759 70.48069 
L 338.622789 69.99705 
L 339.631033 69.99705 
L 339.757064 70.48069 
L 339.883094 69.99705 
L 340.387216 69.99705 
L 340.513247 70.48069 
L 340.639277 69.99705 
L 341.647521 69.99705 
L 341.773552 71.930272 
L 341.899582 69.99705 
L 343.033857 69.99705 
L 343.159887 69.51341 
L 343.411948 69.51341 
L 343.537979 69.99705 
L 343.79004 69.99705 
L 343.91607 69.51341 
L 344.042101 69.99705 
L 345.428436 69.99705 
L 345.554466 69.51341 
L 345.806527 69.51341 
L 345.932558 69.99705 
L 347.192863 69.99705 
L 347.318893 69.51341 
L 347.696985 69.51341 
L 347.823015 69.99705 
L 348.201107 69.99705 
L 348.327137 70.48069 
L 348.579198 70.48069 
L 348.705229 69.99705 
L 348.831259 69.99705 
L 348.95729 70.48069 
L 349.209351 70.48069 
L 349.335381 74.345798 
L 349.587442 70.48069 
L 349.713473 70.48069 
L 349.965534 72.896216 
L 350.091564 73.379855 
L 350.343625 73.379855 
L 350.469656 72.896216 
L 350.595686 72.896216 
L 350.721717 72.413912 
L 350.847747 70.962993 
L 350.973778 70.962993 
L 351.099808 71.930272 
L 351.225839 71.930272 
L 351.351869 70.962993 
L 351.60393 74.829438 
L 351.855991 70.48069 
L 351.982021 69.99705 
L 352.360113 69.99705 
L 352.486143 70.48069 
L 352.612174 75.313078 
L 352.738204 70.48069 
L 352.864235 69.99705 
L 353.242326 69.99705 
L 353.368357 73.379855 
L 353.494387 69.99705 
L 353.620418 69.99705 
L 353.746448 69.51341 
L 353.872479 69.51341 
L 353.998509 69.99705 
L 354.754692 69.99705 
L 354.880723 70.48069 
L 355.006753 70.48069 
L 355.132784 69.99705 
L 355.384845 69.99705 
L 355.510875 70.48069 
L 355.636906 69.99705 
L 356.267058 69.99705 
L 356.393089 69.51341 
L 356.519119 69.51341 
L 356.64515 69.99705 
L 357.527363 69.99705 
L 357.653394 69.51341 
L 357.779424 69.51341 
L 357.905455 69.99705 
L 358.283546 69.99705 
L 358.409577 69.51341 
L 358.535607 69.99705 
L 358.661637 69.99705 
L 358.787668 69.51341 
L 359.165759 69.51341 
L 359.29179 69.99705 
L 359.41782 69.51341 
L 359.543851 69.99705 
L 359.795912 69.99705 
L 359.921942 73.863495 
L 360.047973 69.99705 
L 360.174003 69.99705 
L 360.300034 69.51341 
L 360.426064 69.51341 
L 360.552095 69.99705 
L 360.678125 69.99705 
L 360.804156 69.51341 
L 360.930186 69.99705 
L 361.182247 69.99705 
L 361.308278 69.51341 
L 361.434308 69.51341 
L 361.560339 69.99705 
L 361.686369 69.99705 
L 361.8124 69.031107 
L 361.93843 69.51341 
L 362.064461 69.51341 
L 362.190491 69.99705 
L 362.316522 69.99705 
L 362.442552 69.51341 
L 362.946674 69.51341 
L 363.072705 69.99705 
L 363.198735 69.99705 
L 363.324766 69.51341 
L 363.450796 69.99705 
L 363.702857 69.99705 
L 363.828888 69.51341 
L 363.954918 69.99705 
L 364.080949 69.51341 
L 364.206979 69.99705 
L 364.33301 69.51341 
L 364.963162 69.51341 
L 365.089193 69.99705 
L 365.215223 69.51341 
L 365.341254 69.51341 
L 365.467284 69.99705 
L 365.593315 69.99705 
L 365.719345 72.896216 
L 365.845375 69.51341 
L 366.853619 69.51341 
L 366.97965 69.031107 
L 367.10568 69.99705 
L 367.231711 69.51341 
L 367.357741 69.51341 
L 367.483772 70.48069 
L 367.735833 69.51341 
L 368.239955 69.51341 
L 368.365985 69.99705 
L 368.870107 69.99705 
L 368.996138 69.51341 
L 369.122168 69.99705 
L 369.248199 71.930272 
L 369.50026 69.51341 
L 369.62629 69.99705 
L 369.752321 69.99705 
L 369.878351 69.51341 
L 370.130412 69.51341 
L 370.256443 69.99705 
L 370.382473 69.51341 
L 370.508504 69.99705 
L 371.012626 69.99705 
L 371.138656 69.51341 
L 371.264687 69.99705 
L 371.642778 69.99705 
L 371.768809 70.48069 
L 371.894839 69.99705 
L 373.029113 69.99705 
L 373.155144 69.51341 
L 373.281174 69.99705 
L 373.659266 69.99705 
L 373.785296 69.51341 
L 373.911327 69.99705 
L 374.163388 69.99705 
L 374.289418 69.51341 
L 374.415449 69.99705 
L 374.541479 69.99705 
L 374.66751 69.51341 
L 374.79354 69.99705 
L 374.919571 69.51341 
L 375.045601 69.99705 
L 375.171632 69.51341 
L 375.297662 69.99705 
L 375.423693 69.51341 
L 375.801784 69.51341 
L 375.927815 73.379855 
L 376.053845 69.99705 
L 376.305906 69.99705 
L 376.431937 70.48069 
L 376.557967 69.99705 
L 376.810028 69.99705 
L 376.936059 69.51341 
L 377.062089 69.99705 
L 377.31415 69.99705 
L 377.440181 69.51341 
L 377.566211 74.829438 
L 377.692242 69.51341 
L 377.818272 69.51341 
L 377.944303 70.48069 
L 378.070333 69.99705 
L 378.196364 69.99705 
L 378.322394 69.51341 
L 378.448425 69.99705 
L 379.204608 69.99705 
L 379.330638 70.48069 
L 380.843004 70.48069 
L 380.969034 69.99705 
L 381.095065 69.99705 
L 381.221095 70.48069 
L 381.347126 69.99705 
L 381.977278 69.99705 
L 382.103309 70.48069 
L 382.4814 70.48069 
L 382.607431 69.99705 
L 382.985522 69.99705 
L 383.111553 70.48069 
L 383.237583 69.99705 
L 383.741705 69.99705 
L 383.867736 69.51341 
L 383.993766 69.99705 
L 384.87598 69.99705 
L 385.00201 69.51341 
L 385.128041 69.99705 
L 385.254071 69.51341 
L 385.380102 69.99705 
L 385.506132 69.51341 
L 385.632163 69.99705 
L 385.758193 69.99705 
L 385.884224 74.345798 
L 386.136285 69.99705 
L 386.766437 69.99705 
L 387.018498 70.962993 
L 387.144529 75.795381 
L 387.64865 69.99705 
L 387.774681 69.99705 
L 387.900711 70.48069 
L 388.152772 69.51341 
L 388.278803 69.99705 
L 389.034986 69.99705 
L 389.161016 70.48069 
L 389.539108 70.48069 
L 389.665138 69.99705 
L 389.791169 70.48069 
L 389.917199 69.99705 
L 390.295291 69.99705 
L 390.421321 70.48069 
L 390.547352 70.48069 
L 390.673382 70.962993 
L 390.799413 73.863495 
L 390.925443 69.99705 
L 391.681626 69.99705 
L 391.807657 70.48069 
L 391.933687 69.99705 
L 392.059718 70.48069 
L 392.437809 70.48069 
L 392.56384 69.99705 
L 393.446053 69.99705 
L 393.572084 69.51341 
L 393.824145 70.48069 
L 394.328267 70.48069 
L 394.454297 69.99705 
L 395.714602 69.99705 
L 395.840632 69.51341 
L 395.966663 69.99705 
L 396.974907 69.99705 
L 397.100937 73.863495 
L 397.226968 69.99705 
L 397.983151 69.99705 
L 398.109181 69.51341 
L 398.235212 69.99705 
L 398.361242 69.51341 
L 398.487273 69.99705 
L 398.487273 69.99705 
" clip-path="url(#p839ec71eaf)" style="fill: none; stroke: #1f77b4; stroke-width: 1.5; stroke-linecap: square"/>
   </g>
   <g id="line2d_15">
    <path d="M 73.832727 281.474476 
L 74.084788 281.474476 
L 74.210819 281.958115 
L 74.336849 281.958115 
L 74.46288 281.474476 
L 74.58891 281.958115 
L 74.714941 281.474476 
L 75.219063 281.474476 
L 75.345093 281.958115 
L 75.471124 281.474476 
L 75.597154 281.958115 
L 75.849215 281.958115 
L 75.975246 281.474476 
L 76.227307 281.474476 
L 76.353337 281.958115 
L 76.479368 281.474476 
L 76.605398 281.958115 
L 76.731429 281.474476 
L 76.857459 281.474476 
L 76.98349 281.958115 
L 77.235551 281.958115 
L 77.361581 281.474476 
L 77.487612 281.958115 
L 78.243794 281.958115 
L 78.369825 281.474476 
L 78.495855 281.958115 
L 78.621886 281.958115 
L 78.747916 281.474476 
L 78.873947 281.958115 
L 79.63013 281.958115 
L 79.75616 281.474476 
L 80.008221 281.474476 
L 80.134252 281.958115 
L 80.764404 281.958115 
L 80.890435 281.474476 
L 81.016465 281.474476 
L 81.142496 281.958115 
L 81.394557 281.958115 
L 81.520587 281.474476 
L 81.646618 281.958115 
L 82.528831 281.958115 
L 82.654862 281.474476 
L 82.780892 281.958115 
L 82.906923 281.958115 
L 83.032953 281.474476 
L 83.158984 281.958115 
L 83.915167 281.958115 
L 84.041197 281.474476 
L 84.167228 281.958115 
L 84.67135 281.958115 
L 84.79738 281.474476 
L 84.923411 281.474476 
L 85.049441 281.958115 
L 85.679593 281.958115 
L 85.805624 281.474476 
L 85.931654 281.958115 
L 86.183715 281.958115 
L 86.309746 281.474476 
L 86.435776 281.958115 
L 87.191959 281.958115 
L 87.31799 281.474476 
L 87.44402 281.958115 
L 88.956386 281.958115 
L 89.082417 281.474476 
L 89.208447 281.958115 
L 90.342722 281.958115 
L 90.468752 281.474476 
L 90.594783 281.474476 
L 90.720813 281.958115 
L 91.224935 281.958115 
L 91.350966 281.474476 
L 91.476996 281.958115 
L 91.981118 281.958115 
L 92.107149 281.474476 
L 92.233179 281.958115 
L 94.375697 281.958115 
L 94.501728 281.474476 
L 94.627758 281.474476 
L 94.753789 281.958115 
L 95.762033 281.958115 
L 95.888063 281.474476 
L 96.014094 281.958115 
L 96.140124 281.474476 
L 96.266155 281.958115 
L 97.148368 281.958115 
L 97.274399 281.474476 
L 97.400429 281.958115 
L 99.290887 281.958115 
L 99.416917 281.474476 
L 99.542947 281.958115 
L 99.921039 281.958115 
L 100.047069 281.474476 
L 100.1731 281.958115 
L 100.425161 281.958115 
L 100.551191 281.474476 
L 100.677222 281.958115 
L 129.538204 281.958115 
L 129.664235 281.474476 
L 129.790265 281.958115 
L 192.805511 281.958115 
L 192.931542 282.441755 
L 193.057572 281.958115 
L 194.569938 281.958115 
L 194.695968 282.441755 
L 194.821999 281.958115 
L 194.948029 282.441755 
L 195.20009 282.441755 
L 195.326121 281.958115 
L 195.452151 282.441755 
L 196.334365 282.441755 
L 196.460395 281.958115 
L 196.586426 282.441755 
L 204.022225 282.441755 
L 204.148255 282.924059 
L 204.274286 282.441755 
L 206.290774 282.441755 
L 206.416804 282.924059 
L 206.794896 282.924059 
L 206.920926 282.441755 
L 207.172987 282.441755 
L 207.299018 282.924059 
L 207.425048 282.924059 
L 207.551078 282.441755 
L 207.677109 282.924059 
L 212.844359 282.924059 
L 212.97039 283.407698 
L 213.09642 282.924059 
L 213.222451 283.407698 
L 213.852603 283.407698 
L 213.978634 282.924059 
L 214.104664 283.407698 
L 217.003365 283.407698 
L 217.129396 283.891338 
L 217.633518 283.891338 
L 217.759548 283.407698 
L 217.885579 283.891338 
L 218.011609 283.407698 
L 218.13764 283.891338 
L 218.515731 283.891338 
L 218.641762 283.407698 
L 218.767792 283.891338 
L 220.406189 283.891338 
L 220.532219 284.857281 
L 220.65825 283.891338 
L 221.162372 283.891338 
L 221.288402 284.857281 
L 224.943286 284.857281 
L 225.069317 285.340921 
L 225.195347 284.857281 
L 225.321378 285.340921 
L 225.447408 284.857281 
L 225.573439 285.340921 
L 227.589927 285.340921 
L 227.715957 285.823224 
L 230.866719 285.823224 
L 230.99275 286.306864 
L 231.11878 285.823224 
L 231.244811 286.306864 
L 231.748933 286.306864 
L 231.874963 285.823224 
L 232.000994 286.306864 
L 233.387329 286.306864 
L 233.51336 286.790503 
L 233.63939 286.306864 
L 233.765421 286.790503 
L 234.017482 286.790503 
L 234.143512 286.306864 
L 234.269543 286.306864 
L 234.395573 286.790503 
L 234.647634 286.790503 
L 234.773665 286.306864 
L 234.899695 286.790503 
L 236.538091 286.790503 
L 236.664122 287.272807 
L 237.042213 287.272807 
L 237.168244 286.790503 
L 237.294274 287.272807 
L 239.310762 287.272807 
L 239.436793 287.756447 
L 239.562823 287.756447 
L 239.688854 287.272807 
L 239.814884 287.756447 
L 239.940915 287.272807 
L 240.066945 287.756447 
L 240.571067 287.756447 
L 240.697098 287.272807 
L 240.823128 287.756447 
L 241.831372 287.756447 
L 241.957403 288.240086 
L 242.083433 288.240086 
L 242.209464 287.756447 
L 242.335494 288.240086 
L 242.461525 288.240086 
L 242.587555 287.756447 
L 242.713586 288.240086 
L 244.478012 288.240086 
L 244.604043 288.723726 
L 244.730073 288.240086 
L 244.856104 288.240086 
L 244.982134 288.723726 
L 245.108165 288.723726 
L 245.234195 288.240086 
L 245.360226 288.240086 
L 245.486256 288.723726 
L 247.628775 288.723726 
L 247.754805 289.206029 
L 249.393202 289.206029 
L 249.519232 289.689669 
L 249.645263 289.206029 
L 249.897324 289.206029 
L 250.023354 289.689669 
L 250.527476 289.689669 
L 250.653506 289.206029 
L 250.779537 289.689669 
L 252.417933 289.689669 
L 252.543964 290.173309 
L 252.669994 290.173309 
L 252.796025 289.689669 
L 252.922055 290.173309 
L 254.434421 290.173309 
L 254.560452 290.655612 
L 254.686482 290.173309 
L 254.812513 290.655612 
L 256.450909 290.655612 
L 256.57694 291.139252 
L 256.70297 291.139252 
L 256.829001 290.655612 
L 256.955031 291.139252 
L 258.215336 291.139252 
L 258.341366 291.622891 
L 258.467397 291.139252 
L 258.845488 291.139252 
L 258.971519 291.622891 
L 260.988007 291.622891 
L 261.114037 292.105195 
L 263.004495 292.105195 
L 263.130525 292.588834 
L 263.256556 292.105195 
L 263.382586 292.588834 
L 265.273043 292.588834 
L 265.399074 293.072474 
L 267.541592 293.072474 
L 267.667623 293.554778 
L 267.793653 293.072474 
L 267.919684 293.554778 
L 270.062202 293.554778 
L 270.188233 294.522057 
L 272.582812 294.522057 
L 272.708842 295.00436 
L 272.834873 294.522057 
L 272.960903 294.522057 
L 273.086934 295.00436 
L 273.717086 295.00436 
L 273.843117 294.522057 
L 273.969147 295.00436 
L 277.371971 295.00436 
L 277.498001 295.488 
L 277.624032 295.488 
L 277.750062 295.00436 
L 277.876093 295.00436 
L 278.002123 295.488 
L 278.380215 295.488 
L 278.506245 295.00436 
L 278.632276 295.488 
L 282.917312 295.488 
L 283.043343 295.00436 
L 283.169373 295.488 
L 284.555709 295.488 
L 284.681739 295.00436 
L 284.80777 295.488 
L 285.059831 295.488 
L 285.185861 295.00436 
L 285.311892 295.488 
L 285.437922 295.00436 
L 285.563953 295.488 
L 285.689983 295.00436 
L 286.068075 295.00436 
L 286.194105 295.488 
L 286.446166 295.488 
L 286.572196 295.00436 
L 286.698227 295.00436 
L 286.824257 295.488 
L 286.950288 295.00436 
L 289.596928 295.00436 
L 289.722959 294.522057 
L 289.848989 295.00436 
L 289.97502 295.00436 
L 290.10105 294.522057 
L 292.369599 294.522057 
L 292.49563 293.554778 
L 292.62166 294.522057 
L 292.747691 293.554778 
L 292.873721 293.554778 
L 292.999752 294.522057 
L 293.125782 293.554778 
L 295.520361 293.554778 
L 295.646392 293.072474 
L 295.772422 293.554778 
L 295.898453 293.554778 
L 296.024483 293.072474 
L 298.545093 293.072474 
L 298.671124 292.588834 
L 298.797154 293.072474 
L 298.923185 293.072474 
L 299.049215 292.588834 
L 299.175246 293.072474 
L 299.301276 292.588834 
L 301.191733 292.588834 
L 301.317764 292.105195 
L 302.704099 292.105195 
L 302.83013 291.622891 
L 302.95616 292.105195 
L 303.208221 292.105195 
L 303.334252 291.622891 
L 303.586313 291.622891 
L 303.712343 292.105195 
L 303.838374 291.622891 
L 305.35074 291.622891 
L 305.47677 291.139252 
L 305.602801 291.622891 
L 305.728831 291.139252 
L 306.989136 291.139252 
L 307.115167 290.655612 
L 307.241197 290.655612 
L 307.367228 291.139252 
L 307.493258 290.655612 
L 307.619289 291.139252 
L 307.745319 290.655612 
L 308.501502 290.655612 
L 308.627532 290.173309 
L 308.753563 290.173309 
L 308.879593 290.655612 
L 309.131654 290.655612 
L 309.257685 290.173309 
L 309.383715 290.173309 
L 309.509746 290.655612 
L 309.635776 290.173309 
L 311.148142 290.173309 
L 311.274173 289.689669 
L 313.16463 289.689669 
L 313.290661 289.206029 
L 315.055088 289.206029 
L 315.181118 288.723726 
L 317.071575 288.723726 
L 317.197606 288.240086 
L 317.449667 288.240086 
L 317.575697 288.723726 
L 317.701728 288.240086 
L 318.457911 288.240086 
L 318.583941 287.756447 
L 318.709972 288.240086 
L 318.962033 288.240086 
L 319.088063 287.756447 
L 320.600429 287.756447 
L 320.72646 287.272807 
L 322.490887 287.272807 
L 322.616917 286.790503 
L 322.868978 286.790503 
L 322.995008 287.272807 
L 323.121039 286.790503 
L 324.003252 286.790503 
L 324.129283 286.306864 
L 324.255313 286.790503 
L 324.381344 286.790503 
L 324.507374 286.306864 
L 324.633405 286.790503 
L 324.759435 286.306864 
L 326.01974 286.306864 
L 326.145771 285.823224 
L 326.271801 285.823224 
L 326.397832 286.306864 
L 326.523862 285.823224 
L 327.658137 285.823224 
L 327.784167 285.340921 
L 327.910198 285.340921 
L 328.036228 285.823224 
L 328.162259 285.340921 
L 329.674625 285.340921 
L 329.800655 284.857281 
L 331.18699 284.857281 
L 331.313021 283.891338 
L 332.699356 283.891338 
L 332.825387 283.407698 
L 332.951417 283.407698 
L 333.077448 283.891338 
L 333.203478 283.407698 
L 334.211722 283.407698 
L 334.337753 282.924059 
L 334.715844 282.924059 
L 334.841875 283.407698 
L 334.967905 282.924059 
L 336.480271 282.924059 
L 336.606302 282.441755 
L 338.118667 282.441755 
L 338.244698 281.958115 
L 339.883094 281.958115 
L 340.009125 281.474476 
L 341.647521 281.474476 
L 341.773552 280.992172 
L 341.899582 281.474476 
L 342.025613 280.992172 
L 343.537979 280.992172 
L 343.664009 280.508533 
L 345.428436 280.508533 
L 345.554466 280.024893 
L 346.814771 280.024893 
L 346.940802 279.54259 
L 347.066832 280.024893 
L 347.318893 280.024893 
L 347.444924 279.54259 
L 348.705229 279.54259 
L 348.831259 279.05895 
L 348.95729 279.54259 
L 349.08332 279.05895 
L 349.209351 279.54259 
L 349.335381 279.05895 
L 350.721717 279.05895 
L 350.847747 278.57531 
L 350.973778 279.05895 
L 351.099808 278.57531 
L 351.225839 279.05895 
L 351.351869 278.57531 
L 351.477899 279.05895 
L 351.60393 278.57531 
L 352.234082 278.57531 
L 352.360113 278.093007 
L 352.486143 278.57531 
L 352.612174 278.093007 
L 352.738204 278.57531 
L 352.864235 278.57531 
L 352.990265 278.093007 
L 354.25057 278.093007 
L 354.376601 277.609367 
L 354.502631 278.093007 
L 354.628662 278.093007 
L 354.754692 277.609367 
L 354.880723 277.609367 
L 355.006753 278.093007 
L 355.132784 277.609367 
L 355.888967 277.609367 
L 356.014997 277.125728 
L 356.141028 277.609367 
L 356.519119 277.609367 
L 356.64515 277.125728 
L 358.283546 277.125728 
L 358.409577 276.643424 
L 360.174003 276.643424 
L 360.300034 276.159784 
L 361.686369 276.159784 
L 361.8124 275.676145 
L 363.324766 275.676145 
L 363.450796 274.710202 
L 363.576827 274.710202 
L 363.702857 275.676145 
L 363.828888 274.710202 
L 365.215223 274.710202 
L 365.341254 274.226562 
L 365.467284 274.226562 
L 365.593315 274.710202 
L 365.719345 274.710202 
L 365.845375 274.226562 
L 366.853619 274.226562 
L 366.97965 273.742922 
L 367.10568 274.226562 
L 367.357741 274.226562 
L 367.483772 273.742922 
L 368.870107 273.742922 
L 368.996138 273.260619 
L 370.760565 273.260619 
L 370.886595 272.776979 
L 372.1469 272.776979 
L 372.272931 272.29334 
L 372.398961 272.776979 
L 372.524992 272.29334 
L 374.037357 272.29334 
L 374.163388 271.811036 
L 374.289418 272.29334 
L 374.415449 271.811036 
L 376.305906 271.811036 
L 376.431937 271.327396 
L 378.070333 271.327396 
L 378.196364 270.843757 
L 378.448425 270.843757 
L 378.574455 271.327396 
L 378.700486 270.843757 
L 379.330638 270.843757 
L 379.456669 270.361453 
L 379.582699 270.843757 
L 379.960791 270.843757 
L 380.086821 270.361453 
L 380.590943 270.361453 
L 380.716973 270.843757 
L 380.843004 270.361453 
L 381.473156 270.361453 
L 381.599187 269.877814 
L 381.725217 269.877814 
L 381.851248 270.361453 
L 381.977278 269.877814 
L 383.615675 269.877814 
L 383.741705 269.394174 
L 384.119797 269.394174 
L 384.245827 269.877814 
L 384.371858 269.394174 
L 385.506132 269.394174 
L 385.632163 268.911871 
L 387.144529 268.911871 
L 387.270559 268.428231 
L 387.52262 268.428231 
L 387.64865 268.911871 
L 387.774681 268.428231 
L 389.287047 268.428231 
L 389.413077 267.944591 
L 390.799413 267.944591 
L 390.925443 267.462288 
L 391.051474 267.944591 
L 391.177504 267.462288 
L 392.68987 267.462288 
L 392.815901 266.978648 
L 392.941931 267.462288 
L 393.067962 266.978648 
L 394.454297 266.978648 
L 394.580327 266.495009 
L 394.706358 266.978648 
L 394.832388 266.495009 
L 396.848876 266.495009 
L 396.974907 265.529065 
L 398.235212 265.529065 
L 398.361242 265.045426 
L 398.487273 265.045426 
L 398.487273 265.045426 
" clip-path="url(#p839ec71eaf)" style="fill: none; stroke: #ff7f0e; stroke-width: 1.5; stroke-linecap: square"/>
   </g>
   <g id="patch_3">
    <path d="M 57.6 307.584 
L 57.6 41.472 
" style="fill: none; stroke: #000000; stroke-width: 0.8; stroke-linejoin: miter; stroke-linecap: square"/>
   </g>
   <g id="patch_4">
    <path d="M 414.72 307.584 
L 414.72 41.472 
" style="fill: none; stroke: #000000; stroke-width: 0.8; stroke-linejoin: miter; stroke-linecap: square"/>
   </g>
   <g id="patch_5">
    <path d="M 57.6 307.584 
L 414.72 307.584 
" style="fill: none; stroke: #000000; stroke-width: 0.8; stroke-linejoin: miter; stroke-linecap: square"/>
   </g>
   <g id="patch_6">
    <path d="M 57.6 41.472 
L 414.72 41.472 
" style="fill: none; stroke: #000000; stroke-width: 0.8; stroke-linejoin: miter; stroke-linecap: square"/>
   </g>
   <g id="text_16">
    <!-- Time/Conductivity for 0.1M KCl dataset -->
    <g transform="translate(119.001563 35.472) scale(0.12 -0.12)">
     <defs>
      <path id="DejaVuSans-2f" d="M 1625 4666 
L 2156 4666 
L 531 -594 
L 0 -594 
L 1625 4666 
z
" transform="scale(0.015625)"/>
      <path id="DejaVuSans-66" d="M 2375 4863 
L 2375 4384 
L 1825 4384 
Q 1516 4384 1395 4259 
Q 1275 4134 1275 3809 
L 1275 3500 
L 2222 3500 
L 2222 3053 
L 1275 3053 
L 1275 0 
L 697 0 
L 697 3053 
L 147 3053 
L 147 3500 
L 697 3500 
L 697 3744 
Q 697 4328 969 4595 
Q 1241 4863 1831 4863 
L 2375 4863 
z
" transform="scale(0.015625)"/>
      <path id="DejaVuSans-72" d="M 2631 2963 
Q 2534 3019 2420 3045 
Q 2306 3072 2169 3072 
Q 1681 3072 1420 2755 
Q 1159 2438 1159 1844 
L 1159 0 
L 581 0 
L 581 3500 
L 1159 3500 
L 1159 2956 
Q 1341 3275 1631 3429 
Q 1922 3584 2338 3584 
Q 2397 3584 2469 3576 
Q 2541 3569 2628 3553 
L 2631 2963 
z
" transform="scale(0.015625)"/>
      <path id="DejaVuSans-4d" d="M 628 4666 
L 1569 4666 
L 2759 1491 
L 3956 4666 
L 4897 4666 
L 4897 0 
L 4281 0 
L 4281 4097 
L 3078 897 
L 2444 897 
L 1241 4097 
L 1241 0 
L 628 0 
L 628 4666 
z
" transform="scale(0.015625)"/>
      <path id="DejaVuSans-4b" d="M 628 4666 
L 1259 4666 
L 1259 2694 
L 3353 4666 
L 4166 4666 
L 1850 2491 
L 4331 0 
L 3500 0 
L 1259 2247 
L 1259 0 
L 628 0 
L 628 4666 
z
" transform="scale(0.015625)"/>
      <path id="DejaVuSans-6c" d="M 603 4863 
L 1178 4863 
L 1178 0 
L 603 0 
L 603 4863 
z
" transform="scale(0.015625)"/>
      <path id="DejaVuSans-61" d="M 2194 1759 
Q 1497 1759 1228 1600 
Q 959 1441 959 1056 
Q 959 750 1161 570 
Q 1363 391 1709 391 
Q 2188 391 2477 730 
Q 2766 1069 2766 1631 
L 2766 1759 
L 2194 1759 
z
M 3341 1997 
L 3341 0 
L 2766 0 
L 2766 531 
Q 2569 213 2275 61 
Q 1981 -91 1556 -91 
Q 1019 -91 701 211 
Q 384 513 384 1019 
Q 384 1609 779 1909 
Q 1175 2209 1959 2209 
L 2766 2209 
L 2766 2266 
Q 2766 2663 2505 2880 
Q 2244 3097 1772 3097 
Q 1472 3097 1187 3025 
Q 903 2953 641 2809 
L 641 3341 
Q 956 3463 1253 3523 
Q 1550 3584 1831 3584 
Q 2591 3584 2966 3190 
Q 3341 2797 3341 1997 
z
" transform="scale(0.015625)"/>
     </defs>
     <use xlink:href="#DejaVuSans-54"/>
     <use xlink:href="#DejaVuSans-69" x="57.958984"/>
     <use xlink:href="#DejaVuSans-6d" x="85.742188"/>
     <use xlink:href="#DejaVuSans-65" x="183.154297"/>
     <use xlink:href="#DejaVuSans-2f" x="244.677734"/>
     <use xlink:href="#DejaVuSans-43" x="278.369141"/>
     <use xlink:href="#DejaVuSans-6f" x="348.193359"/>
     <use xlink:href="#DejaVuSans-6e" x="409.375"/>
     <use xlink:href="#DejaVuSans-64" x="472.753906"/>
     <use xlink:href="#DejaVuSans-75" x="536.230469"/>
     <use xlink:href="#DejaVuSans-63" x="599.609375"/>
     <use xlink:href="#DejaVuSans-74" x="654.589844"/>
     <use xlink:href="#DejaVuSans-69" x="693.798828"/>
     <use xlink:href="#DejaVuSans-76" x="721.582031"/>
     <use xlink:href="#DejaVuSans-69" x="780.761719"/>
     <use xlink:href="#DejaVuSans-74" x="808.544922"/>
     <use xlink:href="#DejaVuSans-79" x="847.753906"/>
     <use xlink:href="#DejaVuSans-20" x="906.933594"/>
     <use xlink:href="#DejaVuSans-66" x="938.720703"/>
     <use xlink:href="#DejaVuSans-6f" x="973.925781"/>
     <use xlink:href="#DejaVuSans-72" x="1035.107422"/>
     <use xlink:href="#DejaVuSans-20" x="1076.220703"/>
     <use xlink:href="#DejaVuSans-30" x="1108.007812"/>
     <use xlink:href="#DejaVuSans-2e" x="1171.630859"/>
     <use xlink:href="#DejaVuSans-31" x="1203.417969"/>
     <use xlink:href="#DejaVuSans-4d" x="1267.041016"/>
     <use xlink:href="#DejaVuSans-20" x="1353.320312"/>
     <use xlink:href="#DejaVuSans-4b" x="1385.107422"/>
     <use xlink:href="#DejaVuSans-43" x="1445.183594"/>
     <use xlink:href="#DejaVuSans-6c" x="1515.007812"/>
     <use xlink:href="#DejaVuSans-20" x="1542.791016"/>
     <use xlink:href="#DejaVuSans-64" x="1574.578125"/>
     <use xlink:href="#DejaVuSans-61" x="1638.054688"/>
     <use xlink:href="#DejaVuSans-74" x="1699.333984"/>
     <use xlink:href="#DejaVuSans-61" x="1738.542969"/>
     <use xlink:href="#DejaVuSans-73" x="1799.822266"/>
     <use xlink:href="#DejaVuSans-65" x="1851.921875"/>
     <use xlink:href="#DejaVuSans-74" x="1913.445312"/>
    </g>
   </g>
   <g id="legend_1">
    <g id="patch_7">
     <path d="M 251.660625 190.706125 
L 407.72 190.706125 
Q 409.72 190.706125 409.72 188.706125 
L 409.72 160.349875 
Q 409.72 158.349875 407.72 158.349875 
L 251.660625 158.349875 
Q 249.660625 158.349875 249.660625 160.349875 
L 249.660625 188.706125 
Q 249.660625 190.706125 251.660625 190.706125 
z
" style="fill: #ffffff; opacity: 0.8; stroke: #cccccc; stroke-linejoin: miter"/>
    </g>
    <g id="line2d_16">
     <path d="M 253.660625 166.448312 
L 263.660625 166.448312 
L 273.660625 166.448312 
" style="fill: none; stroke: #1f77b4; stroke-width: 1.5; stroke-linecap: square"/>
    </g>
    <g id="text_17">
     <!-- Conductivity feed -->
     <g transform="translate(281.660625 169.948312) scale(0.1 -0.1)">
      <use xlink:href="#DejaVuSans-43"/>
      <use xlink:href="#DejaVuSans-6f" x="69.824219"/>
      <use xlink:href="#DejaVuSans-6e" x="131.005859"/>
      <use xlink:href="#DejaVuSans-64" x="194.384766"/>
      <use xlink:href="#DejaVuSans-75" x="257.861328"/>
      <use xlink:href="#DejaVuSans-63" x="321.240234"/>
      <use xlink:href="#DejaVuSans-74" x="376.220703"/>
      <use xlink:href="#DejaVuSans-69" x="415.429688"/>
      <use xlink:href="#DejaVuSans-76" x="443.212891"/>
      <use xlink:href="#DejaVuSans-69" x="502.392578"/>
      <use xlink:href="#DejaVuSans-74" x="530.175781"/>
      <use xlink:href="#DejaVuSans-79" x="569.384766"/>
      <use xlink:href="#DejaVuSans-20" x="628.564453"/>
      <use xlink:href="#DejaVuSans-66" x="660.351562"/>
      <use xlink:href="#DejaVuSans-65" x="695.556641"/>
      <use xlink:href="#DejaVuSans-65" x="757.080078"/>
      <use xlink:href="#DejaVuSans-64" x="818.603516"/>
     </g>
    </g>
    <g id="line2d_17">
     <path d="M 253.660625 181.126437 
L 263.660625 181.126437 
L 273.660625 181.126437 
" style="fill: none; stroke: #ff7f0e; stroke-width: 1.5; stroke-linecap: square"/>
    </g>
    <g id="text_18">
     <!-- Conductivity premeate 1 -->
     <g transform="translate(281.660625 184.626437) scale(0.1 -0.1)">
      <defs>
       <path id="DejaVuSans-70" d="M 1159 525 
L 1159 -1331 
L 581 -1331 
L 581 3500 
L 1159 3500 
L 1159 2969 
Q 1341 3281 1617 3432 
Q 1894 3584 2278 3584 
Q 2916 3584 3314 3078 
Q 3713 2572 3713 1747 
Q 3713 922 3314 415 
Q 2916 -91 2278 -91 
Q 1894 -91 1617 61 
Q 1341 213 1159 525 
z
M 3116 1747 
Q 3116 2381 2855 2742 
Q 2594 3103 2138 3103 
Q 1681 3103 1420 2742 
Q 1159 2381 1159 1747 
Q 1159 1113 1420 752 
Q 1681 391 2138 391 
Q 2594 391 2855 752 
Q 3116 1113 3116 1747 
z
" transform="scale(0.015625)"/>
      </defs>
      <use xlink:href="#DejaVuSans-43"/>
      <use xlink:href="#DejaVuSans-6f" x="69.824219"/>
      <use xlink:href="#DejaVuSans-6e" x="131.005859"/>
      <use xlink:href="#DejaVuSans-64" x="194.384766"/>
      <use xlink:href="#DejaVuSans-75" x="257.861328"/>
      <use xlink:href="#DejaVuSans-63" x="321.240234"/>
      <use xlink:href="#DejaVuSans-74" x="376.220703"/>
      <use xlink:href="#DejaVuSans-69" x="415.429688"/>
      <use xlink:href="#DejaVuSans-76" x="443.212891"/>
      <use xlink:href="#DejaVuSans-69" x="502.392578"/>
      <use xlink:href="#DejaVuSans-74" x="530.175781"/>
      <use xlink:href="#DejaVuSans-79" x="569.384766"/>
      <use xlink:href="#DejaVuSans-20" x="628.564453"/>
      <use xlink:href="#DejaVuSans-70" x="660.351562"/>
      <use xlink:href="#DejaVuSans-72" x="723.828125"/>
      <use xlink:href="#DejaVuSans-65" x="762.691406"/>
      <use xlink:href="#DejaVuSans-6d" x="824.214844"/>
      <use xlink:href="#DejaVuSans-65" x="921.626953"/>
      <use xlink:href="#DejaVuSans-61" x="983.150391"/>
      <use xlink:href="#DejaVuSans-74" x="1044.429688"/>
      <use xlink:href="#DejaVuSans-65" x="1083.638672"/>
      <use xlink:href="#DejaVuSans-20" x="1145.162109"/>
      <use xlink:href="#DejaVuSans-31" x="1176.949219"/>
     </g>
    </g>
   </g>
  </g>
 </g>
 <defs>
  <clipPath id="p839ec71eaf">
   <rect x="57.6" y="41.472" width="357.12" height="266.112"/>
  </clipPath>
 </defs>
</svg>
