<?xml version="1.0" encoding="utf-8" standalone="no"?>
<!DOCTYPE svg PUBLIC "-//W3C//DTD SVG 1.1//EN"
  "http://www.w3.org/Graphics/SVG/1.1/DTD/svg11.dtd">
<svg xmlns:xlink="http://www.w3.org/1999/xlink" width="460.8pt" height="345.6pt" viewBox="0 0 460.8 345.6" xmlns="http://www.w3.org/2000/svg" version="1.1">
 <metadata>
  <rdf:RDF xmlns:dc="http://purl.org/dc/elements/1.1/" xmlns:cc="http://creativecommons.org/ns#" xmlns:rdf="http://www.w3.org/1999/02/22-rdf-syntax-ns#">
   <cc:Work>
    <dc:type rdf:resource="http://purl.org/dc/dcmitype/StillImage"/>
    <dc:date>2023-06-19T18:59:18.872916</dc:date>
    <dc:format>image/svg+xml</dc:format>
    <dc:creator>
     <cc:Agent>
      <dc:title>Matplotlib v3.7.1, https://matplotlib.org/</dc:title>
     </cc:Agent>
    </dc:creator>
   </cc:Work>
  </rdf:RDF>
 </metadata>
 <defs>
  <style type="text/css">*{stroke-linejoin: round; stroke-linecap: butt}</style>
 </defs>
 <g id="figure_1">
  <g id="patch_1">
   <path d="M 0 345.6 
L 460.8 345.6 
L 460.8 0 
L 0 0 
z
" style="fill: #ffffff"/>
  </g>
  <g id="axes_1">
   <g id="patch_2">
    <path d="M 57.6 307.584 
L 414.72 307.584 
L 414.72 41.472 
L 57.6 41.472 
z
" style="fill: #ffffff"/>
   </g>
   <g id="matplotlib.axis_1">
    <g id="xtick_1">
     <g id="line2d_1">
      <defs>
       <path id="mff9adf522c" d="M 0 0 
L 0 3.5 
" style="stroke: #000000; stroke-width: 0.8"/>
      </defs>
      <g>
       <use xlink:href="#mff9adf522c" x="73.69357" y="307.584" style="stroke: #000000; stroke-width: 0.8"/>
      </g>
     </g>
     <g id="text_1">
      <!-- 0.0 -->
      <g transform="translate(65.742007 322.182437) scale(0.1 -0.1)">
       <defs>
        <path id="DejaVuSans-30" d="M 2034 4250 
Q 1547 4250 1301 3770 
Q 1056 3291 1056 2328 
Q 1056 1369 1301 889 
Q 1547 409 2034 409 
Q 2525 409 2770 889 
Q 3016 1369 3016 2328 
Q 3016 3291 2770 3770 
Q 2525 4250 2034 4250 
z
M 2034 4750 
Q 2819 4750 3233 4129 
Q 3647 3509 3647 2328 
Q 3647 1150 3233 529 
Q 2819 -91 2034 -91 
Q 1250 -91 836 529 
Q 422 1150 422 2328 
Q 422 3509 836 4129 
Q 1250 4750 2034 4750 
z
" transform="scale(0.015625)"/>
        <path id="DejaVuSans-2e" d="M 684 794 
L 1344 794 
L 1344 0 
L 684 0 
L 684 794 
z
" transform="scale(0.015625)"/>
       </defs>
       <use xlink:href="#DejaVuSans-30"/>
       <use xlink:href="#DejaVuSans-2e" x="63.623047"/>
       <use xlink:href="#DejaVuSans-30" x="95.410156"/>
      </g>
     </g>
    </g>
    <g id="xtick_2">
     <g id="line2d_2">
      <g>
       <use xlink:href="#mff9adf522c" x="115.440832" y="307.584" style="stroke: #000000; stroke-width: 0.8"/>
      </g>
     </g>
     <g id="text_2">
      <!-- 2.5 -->
      <g transform="translate(107.48927 322.182437) scale(0.1 -0.1)">
       <defs>
        <path id="DejaVuSans-32" d="M 1228 531 
L 3431 531 
L 3431 0 
L 469 0 
L 469 531 
Q 828 903 1448 1529 
Q 2069 2156 2228 2338 
Q 2531 2678 2651 2914 
Q 2772 3150 2772 3378 
Q 2772 3750 2511 3984 
Q 2250 4219 1831 4219 
Q 1534 4219 1204 4116 
Q 875 4013 500 3803 
L 500 4441 
Q 881 4594 1212 4672 
Q 1544 4750 1819 4750 
Q 2544 4750 2975 4387 
Q 3406 4025 3406 3419 
Q 3406 3131 3298 2873 
Q 3191 2616 2906 2266 
Q 2828 2175 2409 1742 
Q 1991 1309 1228 531 
z
" transform="scale(0.015625)"/>
        <path id="DejaVuSans-35" d="M 691 4666 
L 3169 4666 
L 3169 4134 
L 1269 4134 
L 1269 2991 
Q 1406 3038 1543 3061 
Q 1681 3084 1819 3084 
Q 2600 3084 3056 2656 
Q 3513 2228 3513 1497 
Q 3513 744 3044 326 
Q 2575 -91 1722 -91 
Q 1428 -91 1123 -41 
Q 819 9 494 109 
L 494 744 
Q 775 591 1075 516 
Q 1375 441 1709 441 
Q 2250 441 2565 725 
Q 2881 1009 2881 1497 
Q 2881 1984 2565 2268 
Q 2250 2553 1709 2553 
Q 1456 2553 1204 2497 
Q 953 2441 691 2322 
L 691 4666 
z
" transform="scale(0.015625)"/>
       </defs>
       <use xlink:href="#DejaVuSans-32"/>
       <use xlink:href="#DejaVuSans-2e" x="63.623047"/>
       <use xlink:href="#DejaVuSans-35" x="95.410156"/>
      </g>
     </g>
    </g>
    <g id="xtick_3">
     <g id="line2d_3">
      <g>
       <use xlink:href="#mff9adf522c" x="157.188095" y="307.584" style="stroke: #000000; stroke-width: 0.8"/>
      </g>
     </g>
     <g id="text_3">
      <!-- 5.0 -->
      <g transform="translate(149.236532 322.182437) scale(0.1 -0.1)">
       <use xlink:href="#DejaVuSans-35"/>
       <use xlink:href="#DejaVuSans-2e" x="63.623047"/>
       <use xlink:href="#DejaVuSans-30" x="95.410156"/>
      </g>
     </g>
    </g>
    <g id="xtick_4">
     <g id="line2d_4">
      <g>
       <use xlink:href="#mff9adf522c" x="198.935358" y="307.584" style="stroke: #000000; stroke-width: 0.8"/>
      </g>
     </g>
     <g id="text_4">
      <!-- 7.5 -->
      <g transform="translate(190.983795 322.182437) scale(0.1 -0.1)">
       <defs>
        <path id="DejaVuSans-37" d="M 525 4666 
L 3525 4666 
L 3525 4397 
L 1831 0 
L 1172 0 
L 2766 4134 
L 525 4134 
L 525 4666 
z
" transform="scale(0.015625)"/>
       </defs>
       <use xlink:href="#DejaVuSans-37"/>
       <use xlink:href="#DejaVuSans-2e" x="63.623047"/>
       <use xlink:href="#DejaVuSans-35" x="95.410156"/>
      </g>
     </g>
    </g>
    <g id="xtick_5">
     <g id="line2d_5">
      <g>
       <use xlink:href="#mff9adf522c" x="240.68262" y="307.584" style="stroke: #000000; stroke-width: 0.8"/>
      </g>
     </g>
     <g id="text_5">
      <!-- 10.0 -->
      <g transform="translate(229.549808 322.182437) scale(0.1 -0.1)">
       <defs>
        <path id="DejaVuSans-31" d="M 794 531 
L 1825 531 
L 1825 4091 
L 703 3866 
L 703 4441 
L 1819 4666 
L 2450 4666 
L 2450 531 
L 3481 531 
L 3481 0 
L 794 0 
L 794 531 
z
" transform="scale(0.015625)"/>
       </defs>
       <use xlink:href="#DejaVuSans-31"/>
       <use xlink:href="#DejaVuSans-30" x="63.623047"/>
       <use xlink:href="#DejaVuSans-2e" x="127.246094"/>
       <use xlink:href="#DejaVuSans-30" x="159.033203"/>
      </g>
     </g>
    </g>
    <g id="xtick_6">
     <g id="line2d_6">
      <g>
       <use xlink:href="#mff9adf522c" x="282.429883" y="307.584" style="stroke: #000000; stroke-width: 0.8"/>
      </g>
     </g>
     <g id="text_6">
      <!-- 12.5 -->
      <g transform="translate(271.29707 322.182437) scale(0.1 -0.1)">
       <use xlink:href="#DejaVuSans-31"/>
       <use xlink:href="#DejaVuSans-32" x="63.623047"/>
       <use xlink:href="#DejaVuSans-2e" x="127.246094"/>
       <use xlink:href="#DejaVuSans-35" x="159.033203"/>
      </g>
     </g>
    </g>
    <g id="xtick_7">
     <g id="line2d_7">
      <g>
       <use xlink:href="#mff9adf522c" x="324.177145" y="307.584" style="stroke: #000000; stroke-width: 0.8"/>
      </g>
     </g>
     <g id="text_7">
      <!-- 15.0 -->
      <g transform="translate(313.044333 322.182437) scale(0.1 -0.1)">
       <use xlink:href="#DejaVuSans-31"/>
       <use xlink:href="#DejaVuSans-35" x="63.623047"/>
       <use xlink:href="#DejaVuSans-2e" x="127.246094"/>
       <use xlink:href="#DejaVuSans-30" x="159.033203"/>
      </g>
     </g>
    </g>
    <g id="xtick_8">
     <g id="line2d_8">
      <g>
       <use xlink:href="#mff9adf522c" x="365.924408" y="307.584" style="stroke: #000000; stroke-width: 0.8"/>
      </g>
     </g>
     <g id="text_8">
      <!-- 17.5 -->
      <g transform="translate(354.791595 322.182437) scale(0.1 -0.1)">
       <use xlink:href="#DejaVuSans-31"/>
       <use xlink:href="#DejaVuSans-37" x="63.623047"/>
       <use xlink:href="#DejaVuSans-2e" x="127.246094"/>
       <use xlink:href="#DejaVuSans-35" x="159.033203"/>
      </g>
     </g>
    </g>
    <g id="xtick_9">
     <g id="line2d_9">
      <g>
       <use xlink:href="#mff9adf522c" x="407.67167" y="307.584" style="stroke: #000000; stroke-width: 0.8"/>
      </g>
     </g>
     <g id="text_9">
      <!-- 20.0 -->
      <g transform="translate(396.538858 322.182437) scale(0.1 -0.1)">
       <use xlink:href="#DejaVuSans-32"/>
       <use xlink:href="#DejaVuSans-30" x="63.623047"/>
       <use xlink:href="#DejaVuSans-2e" x="127.246094"/>
       <use xlink:href="#DejaVuSans-30" x="159.033203"/>
      </g>
     </g>
    </g>
    <g id="text_10">
     <!-- Time (s) -->
     <g transform="translate(215.831094 335.860562) scale(0.1 -0.1)">
      <defs>
       <path id="DejaVuSans-54" d="M -19 4666 
L 3928 4666 
L 3928 4134 
L 2272 4134 
L 2272 0 
L 1638 0 
L 1638 4134 
L -19 4134 
L -19 4666 
z
" transform="scale(0.015625)"/>
       <path id="DejaVuSans-69" d="M 603 3500 
L 1178 3500 
L 1178 0 
L 603 0 
L 603 3500 
z
M 603 4863 
L 1178 4863 
L 1178 4134 
L 603 4134 
L 603 4863 
z
" transform="scale(0.015625)"/>
       <path id="DejaVuSans-6d" d="M 3328 2828 
Q 3544 3216 3844 3400 
Q 4144 3584 4550 3584 
Q 5097 3584 5394 3201 
Q 5691 2819 5691 2113 
L 5691 0 
L 5113 0 
L 5113 2094 
Q 5113 2597 4934 2840 
Q 4756 3084 4391 3084 
Q 3944 3084 3684 2787 
Q 3425 2491 3425 1978 
L 3425 0 
L 2847 0 
L 2847 2094 
Q 2847 2600 2669 2842 
Q 2491 3084 2119 3084 
Q 1678 3084 1418 2786 
Q 1159 2488 1159 1978 
L 1159 0 
L 581 0 
L 581 3500 
L 1159 3500 
L 1159 2956 
Q 1356 3278 1631 3431 
Q 1906 3584 2284 3584 
Q 2666 3584 2933 3390 
Q 3200 3197 3328 2828 
z
" transform="scale(0.015625)"/>
       <path id="DejaVuSans-65" d="M 3597 1894 
L 3597 1613 
L 953 1613 
Q 991 1019 1311 708 
Q 1631 397 2203 397 
Q 2534 397 2845 478 
Q 3156 559 3463 722 
L 3463 178 
Q 3153 47 2828 -22 
Q 2503 -91 2169 -91 
Q 1331 -91 842 396 
Q 353 884 353 1716 
Q 353 2575 817 3079 
Q 1281 3584 2069 3584 
Q 2775 3584 3186 3129 
Q 3597 2675 3597 1894 
z
M 3022 2063 
Q 3016 2534 2758 2815 
Q 2500 3097 2075 3097 
Q 1594 3097 1305 2825 
Q 1016 2553 972 2059 
L 3022 2063 
z
" transform="scale(0.015625)"/>
       <path id="DejaVuSans-20" transform="scale(0.015625)"/>
       <path id="DejaVuSans-28" d="M 1984 4856 
Q 1566 4138 1362 3434 
Q 1159 2731 1159 2009 
Q 1159 1288 1364 580 
Q 1569 -128 1984 -844 
L 1484 -844 
Q 1016 -109 783 600 
Q 550 1309 550 2009 
Q 550 2706 781 3412 
Q 1013 4119 1484 4856 
L 1984 4856 
z
" transform="scale(0.015625)"/>
       <path id="DejaVuSans-73" d="M 2834 3397 
L 2834 2853 
Q 2591 2978 2328 3040 
Q 2066 3103 1784 3103 
Q 1356 3103 1142 2972 
Q 928 2841 928 2578 
Q 928 2378 1081 2264 
Q 1234 2150 1697 2047 
L 1894 2003 
Q 2506 1872 2764 1633 
Q 3022 1394 3022 966 
Q 3022 478 2636 193 
Q 2250 -91 1575 -91 
Q 1294 -91 989 -36 
Q 684 19 347 128 
L 347 722 
Q 666 556 975 473 
Q 1284 391 1588 391 
Q 1994 391 2212 530 
Q 2431 669 2431 922 
Q 2431 1156 2273 1281 
Q 2116 1406 1581 1522 
L 1381 1569 
Q 847 1681 609 1914 
Q 372 2147 372 2553 
Q 372 3047 722 3315 
Q 1072 3584 1716 3584 
Q 2034 3584 2315 3537 
Q 2597 3491 2834 3397 
z
" transform="scale(0.015625)"/>
       <path id="DejaVuSans-29" d="M 513 4856 
L 1013 4856 
Q 1481 4119 1714 3412 
Q 1947 2706 1947 2009 
Q 1947 1309 1714 600 
Q 1481 -109 1013 -844 
L 513 -844 
Q 928 -128 1133 580 
Q 1338 1288 1338 2009 
Q 1338 2731 1133 3434 
Q 928 4138 513 4856 
z
" transform="scale(0.015625)"/>
      </defs>
      <use xlink:href="#DejaVuSans-54"/>
      <use xlink:href="#DejaVuSans-69" x="57.958984"/>
      <use xlink:href="#DejaVuSans-6d" x="85.742188"/>
      <use xlink:href="#DejaVuSans-65" x="183.154297"/>
      <use xlink:href="#DejaVuSans-20" x="244.677734"/>
      <use xlink:href="#DejaVuSans-28" x="276.464844"/>
      <use xlink:href="#DejaVuSans-73" x="315.478516"/>
      <use xlink:href="#DejaVuSans-29" x="367.578125"/>
     </g>
    </g>
   </g>
   <g id="matplotlib.axis_2">
    <g id="ytick_1">
     <g id="line2d_10">
      <defs>
       <path id="me9b2307f45" d="M 0 0 
L -3.5 0 
" style="stroke: #000000; stroke-width: 0.8"/>
      </defs>
      <g>
       <use xlink:href="#me9b2307f45" x="57.6" y="293.26855" style="stroke: #000000; stroke-width: 0.8"/>
      </g>
     </g>
     <g id="text_11">
      <!-- 2 -->
      <g transform="translate(44.2375 297.067769) scale(0.1 -0.1)">
       <use xlink:href="#DejaVuSans-32"/>
      </g>
     </g>
    </g>
    <g id="ytick_2">
     <g id="line2d_11">
      <g>
       <use xlink:href="#me9b2307f45" x="57.6" y="261.562128" style="stroke: #000000; stroke-width: 0.8"/>
      </g>
     </g>
     <g id="text_12">
      <!-- 3 -->
      <g transform="translate(44.2375 265.361347) scale(0.1 -0.1)">
       <defs>
        <path id="DejaVuSans-33" d="M 2597 2516 
Q 3050 2419 3304 2112 
Q 3559 1806 3559 1356 
Q 3559 666 3084 287 
Q 2609 -91 1734 -91 
Q 1441 -91 1130 -33 
Q 819 25 488 141 
L 488 750 
Q 750 597 1062 519 
Q 1375 441 1716 441 
Q 2309 441 2620 675 
Q 2931 909 2931 1356 
Q 2931 1769 2642 2001 
Q 2353 2234 1838 2234 
L 1294 2234 
L 1294 2753 
L 1863 2753 
Q 2328 2753 2575 2939 
Q 2822 3125 2822 3475 
Q 2822 3834 2567 4026 
Q 2313 4219 1838 4219 
Q 1578 4219 1281 4162 
Q 984 4106 628 3988 
L 628 4550 
Q 988 4650 1302 4700 
Q 1616 4750 1894 4750 
Q 2613 4750 3031 4423 
Q 3450 4097 3450 3541 
Q 3450 3153 3228 2886 
Q 3006 2619 2597 2516 
z
" transform="scale(0.015625)"/>
       </defs>
       <use xlink:href="#DejaVuSans-33"/>
      </g>
     </g>
    </g>
    <g id="ytick_3">
     <g id="line2d_12">
      <g>
       <use xlink:href="#me9b2307f45" x="57.6" y="229.855706" style="stroke: #000000; stroke-width: 0.8"/>
      </g>
     </g>
     <g id="text_13">
      <!-- 4 -->
      <g transform="translate(44.2375 233.654925) scale(0.1 -0.1)">
       <defs>
        <path id="DejaVuSans-34" d="M 2419 4116 
L 825 1625 
L 2419 1625 
L 2419 4116 
z
M 2253 4666 
L 3047 4666 
L 3047 1625 
L 3713 1625 
L 3713 1100 
L 3047 1100 
L 3047 0 
L 2419 0 
L 2419 1100 
L 313 1100 
L 313 1709 
L 2253 4666 
z
" transform="scale(0.015625)"/>
       </defs>
       <use xlink:href="#DejaVuSans-34"/>
      </g>
     </g>
    </g>
    <g id="ytick_4">
     <g id="line2d_13">
      <g>
       <use xlink:href="#me9b2307f45" x="57.6" y="198.149284" style="stroke: #000000; stroke-width: 0.8"/>
      </g>
     </g>
     <g id="text_14">
      <!-- 5 -->
      <g transform="translate(44.2375 201.948503) scale(0.1 -0.1)">
       <use xlink:href="#DejaVuSans-35"/>
      </g>
     </g>
    </g>
    <g id="ytick_5">
     <g id="line2d_14">
      <g>
       <use xlink:href="#me9b2307f45" x="57.6" y="166.442862" style="stroke: #000000; stroke-width: 0.8"/>
      </g>
     </g>
     <g id="text_15">
      <!-- 6 -->
      <g transform="translate(44.2375 170.242081) scale(0.1 -0.1)">
       <defs>
        <path id="DejaVuSans-36" d="M 2113 2584 
Q 1688 2584 1439 2293 
Q 1191 2003 1191 1497 
Q 1191 994 1439 701 
Q 1688 409 2113 409 
Q 2538 409 2786 701 
Q 3034 994 3034 1497 
Q 3034 2003 2786 2293 
Q 2538 2584 2113 2584 
z
M 3366 4563 
L 3366 3988 
Q 3128 4100 2886 4159 
Q 2644 4219 2406 4219 
Q 1781 4219 1451 3797 
Q 1122 3375 1075 2522 
Q 1259 2794 1537 2939 
Q 1816 3084 2150 3084 
Q 2853 3084 3261 2657 
Q 3669 2231 3669 1497 
Q 3669 778 3244 343 
Q 2819 -91 2113 -91 
Q 1303 -91 875 529 
Q 447 1150 447 2328 
Q 447 3434 972 4092 
Q 1497 4750 2381 4750 
Q 2619 4750 2861 4703 
Q 3103 4656 3366 4563 
z
" transform="scale(0.015625)"/>
       </defs>
       <use xlink:href="#DejaVuSans-36"/>
      </g>
     </g>
    </g>
    <g id="ytick_6">
     <g id="line2d_15">
      <g>
       <use xlink:href="#me9b2307f45" x="57.6" y="134.73644" style="stroke: #000000; stroke-width: 0.8"/>
      </g>
     </g>
     <g id="text_16">
      <!-- 7 -->
      <g transform="translate(44.2375 138.535659) scale(0.1 -0.1)">
       <use xlink:href="#DejaVuSans-37"/>
      </g>
     </g>
    </g>
    <g id="ytick_7">
     <g id="line2d_16">
      <g>
       <use xlink:href="#me9b2307f45" x="57.6" y="103.030018" style="stroke: #000000; stroke-width: 0.8"/>
      </g>
     </g>
     <g id="text_17">
      <!-- 8 -->
      <g transform="translate(44.2375 106.829237) scale(0.1 -0.1)">
       <defs>
        <path id="DejaVuSans-38" d="M 2034 2216 
Q 1584 2216 1326 1975 
Q 1069 1734 1069 1313 
Q 1069 891 1326 650 
Q 1584 409 2034 409 
Q 2484 409 2743 651 
Q 3003 894 3003 1313 
Q 3003 1734 2745 1975 
Q 2488 2216 2034 2216 
z
M 1403 2484 
Q 997 2584 770 2862 
Q 544 3141 544 3541 
Q 544 4100 942 4425 
Q 1341 4750 2034 4750 
Q 2731 4750 3128 4425 
Q 3525 4100 3525 3541 
Q 3525 3141 3298 2862 
Q 3072 2584 2669 2484 
Q 3125 2378 3379 2068 
Q 3634 1759 3634 1313 
Q 3634 634 3220 271 
Q 2806 -91 2034 -91 
Q 1263 -91 848 271 
Q 434 634 434 1313 
Q 434 1759 690 2068 
Q 947 2378 1403 2484 
z
M 1172 3481 
Q 1172 3119 1398 2916 
Q 1625 2713 2034 2713 
Q 2441 2713 2670 2916 
Q 2900 3119 2900 3481 
Q 2900 3844 2670 4047 
Q 2441 4250 2034 4250 
Q 1625 4250 1398 4047 
Q 1172 3844 1172 3481 
z
" transform="scale(0.015625)"/>
       </defs>
       <use xlink:href="#DejaVuSans-38"/>
      </g>
     </g>
    </g>
    <g id="ytick_8">
     <g id="line2d_17">
      <g>
       <use xlink:href="#me9b2307f45" x="57.6" y="71.323596" style="stroke: #000000; stroke-width: 0.8"/>
      </g>
     </g>
     <g id="text_18">
      <!-- 9 -->
      <g transform="translate(44.2375 75.122815) scale(0.1 -0.1)">
       <defs>
        <path id="DejaVuSans-39" d="M 703 97 
L 703 672 
Q 941 559 1184 500 
Q 1428 441 1663 441 
Q 2288 441 2617 861 
Q 2947 1281 2994 2138 
Q 2813 1869 2534 1725 
Q 2256 1581 1919 1581 
Q 1219 1581 811 2004 
Q 403 2428 403 3163 
Q 403 3881 828 4315 
Q 1253 4750 1959 4750 
Q 2769 4750 3195 4129 
Q 3622 3509 3622 2328 
Q 3622 1225 3098 567 
Q 2575 -91 1691 -91 
Q 1453 -91 1209 -44 
Q 966 3 703 97 
z
M 1959 2075 
Q 2384 2075 2632 2365 
Q 2881 2656 2881 3163 
Q 2881 3666 2632 3958 
Q 2384 4250 1959 4250 
Q 1534 4250 1286 3958 
Q 1038 3666 1038 3163 
Q 1038 2656 1286 2365 
Q 1534 2075 1959 2075 
z
" transform="scale(0.015625)"/>
       </defs>
       <use xlink:href="#DejaVuSans-39"/>
      </g>
     </g>
    </g>
    <g id="text_19">
     <!-- pH -->
     <g transform="translate(38.157812 181.462375) rotate(-90) scale(0.1 -0.1)">
      <defs>
       <path id="DejaVuSans-70" d="M 1159 525 
L 1159 -1331 
L 581 -1331 
L 581 3500 
L 1159 3500 
L 1159 2969 
Q 1341 3281 1617 3432 
Q 1894 3584 2278 3584 
Q 2916 3584 3314 3078 
Q 3713 2572 3713 1747 
Q 3713 922 3314 415 
Q 2916 -91 2278 -91 
Q 1894 -91 1617 61 
Q 1341 213 1159 525 
z
M 3116 1747 
Q 3116 2381 2855 2742 
Q 2594 3103 2138 3103 
Q 1681 3103 1420 2742 
Q 1159 2381 1159 1747 
Q 1159 1113 1420 752 
Q 1681 391 2138 391 
Q 2594 391 2855 752 
Q 3116 1113 3116 1747 
z
" transform="scale(0.015625)"/>
       <path id="DejaVuSans-48" d="M 628 4666 
L 1259 4666 
L 1259 2753 
L 3553 2753 
L 3553 4666 
L 4184 4666 
L 4184 0 
L 3553 0 
L 3553 2222 
L 1259 2222 
L 1259 0 
L 628 0 
L 628 4666 
z
" transform="scale(0.015625)"/>
      </defs>
      <use xlink:href="#DejaVuSans-70"/>
      <use xlink:href="#DejaVuSans-48" x="63.476562"/>
     </g>
    </g>
   </g>
   <g id="line2d_18">
    <path d="M 73.832727 53.568 
L 73.971885 53.568 
L 74.2502 54.202128 
L 74.528515 54.202128 
L 74.667673 53.885064 
L 75.085145 53.885064 
L 75.224303 54.202128 
L 75.780933 54.202128 
L 75.92009 54.519193 
L 76.337563 54.519193 
L 76.476721 54.836257 
L 77.172508 54.836257 
L 77.311666 55.153321 
L 77.868296 55.153321 
L 78.007454 55.470385 
L 78.703241 55.470385 
L 78.842399 55.78745 
L 79.399029 55.78745 
L 79.538186 56.104514 
L 79.955659 56.104514 
L 80.094817 56.421578 
L 80.373132 86.225615 
L 80.512289 89.396257 
L 80.651447 88.762128 
L 81.347235 76.713688 
L 81.62555 75.128367 
L 81.764707 75.128367 
L 81.903865 74.811303 
L 82.18218 75.445431 
L 82.460495 98.274055 
L 82.73881 104.932404 
L 83.017125 107.468917 
L 83.29544 108.42011 
L 83.434598 108.42011 
L 83.573755 110.005431 
L 83.85207 116.66378 
L 84.130385 120.151486 
L 84.547858 121.736807 
L 84.687016 122.053872 
L 84.826173 122.053872 
L 85.104488 122.688 
L 85.382803 129.980477 
L 85.661118 133.151119 
L 86.217749 135.370569 
L 86.496064 145.833688 
L 86.774379 147.419009 
L 86.913536 147.736073 
L 87.052694 147.736073 
L 87.191851 147.419009 
L 87.331009 147.419009 
L 87.609324 146.784881 
L 87.748481 146.784881 
L 87.887639 146.467817 
L 88.722584 146.467817 
L 88.861742 146.784881 
L 89.140057 155.979743 
L 89.418372 157.248 
L 89.55753 157.248 
L 89.975002 156.296807 
L 90.11416 155.662679 
L 90.253317 155.662679 
L 90.392475 155.02855 
L 90.809947 155.02855 
L 90.949105 154.711486 
L 91.088262 155.02855 
L 91.22742 154.711486 
L 91.366578 155.02855 
L 91.505735 155.02855 
L 91.644893 155.345615 
L 91.923208 169.613505 
L 92.062365 169.613505 
L 92.201523 169.29644 
L 93.175626 165.174606 
L 93.314783 164.857541 
L 94.149728 164.857541 
L 94.428043 196.563963 
L 94.567201 196.563963 
L 95.819619 188.320294 
L 96.237092 187.369101 
L 96.932879 187.369101 
L 97.072037 198.783413 
L 97.211194 200.368734 
L 97.350352 200.05167 
L 97.767824 198.466349 
L 97.906982 198.149284 
L 98.185297 197.198092 
L 98.60277 196.246899 
L 99.020242 196.246899 
L 99.1594 203.539376 
L 99.298557 204.173505 
L 100.133503 202.271119 
L 100.27266 211.783046 
L 100.411818 212.417174 
L 100.550975 212.10011 
L 100.82929 211.148917 
L 101.525078 209.563596 
L 102.499181 209.563596 
L 102.638338 215.904881 
L 102.777496 217.173138 
L 103.612441 215.270752 
L 103.751599 215.270752 
L 103.890756 214.953688 
L 104.029914 214.953688 
L 104.169071 215.587817 
L 104.308229 222.563229 
L 104.447387 222.563229 
L 105.143174 220.977908 
L 105.282332 220.977908 
L 105.421489 220.660844 
L 105.699804 220.660844 
L 105.838962 220.34378 
L 105.978119 226.368 
L 106.117277 227.319193 
L 106.256435 227.002128 
L 106.395592 227.002128 
L 106.952222 225.733872 
L 107.230537 225.733872 
L 107.369695 225.416807 
L 107.64801 225.416807 
L 107.787168 225.733872 
L 107.926325 225.416807 
L 108.20464 234.61167 
L 108.76127 233.343413 
L 108.900428 239.684697 
L 109.039585 239.684697 
L 109.3179 238.733505 
L 109.596216 238.099376 
L 109.735373 238.099376 
L 109.874531 237.782312 
L 110.013688 239.684697 
L 110.152846 244.123596 
L 110.292003 243.806532 
L 110.431161 247.611303 
L 110.570318 248.245431 
L 110.987791 247.294239 
L 111.266106 251.733138 
L 111.683579 250.781945 
L 111.822736 250.781945 
L 111.961894 254.90378 
L 112.240209 254.90378 
L 112.518524 254.269651 
L 112.657681 254.269651 
L 112.935997 253.635523 
L 113.214312 258.074422 
L 113.353469 258.074422 
L 113.492627 257.757358 
L 113.631784 258.391486 
L 113.770942 261.562128 
L 113.910099 261.245064 
L 114.049257 261.245064 
L 114.188414 260.928 
L 114.327572 264.415706 
L 114.605887 265.049835 
L 114.745045 268.854606 
L 114.884202 268.537541 
L 115.02336 272.659376 
L 115.162517 272.659376 
L 115.301675 272.342312 
L 115.440832 276.781211 
L 115.57999 276.781211 
L 115.719147 280.585982 
L 115.858305 281.22011 
L 116.13662 280.268917 
L 116.414935 279.634789 
L 116.554093 283.756624 
L 116.69325 284.073688 
L 116.832408 283.756624 
L 116.971565 284.707817 
L 117.110723 288.512587 
L 117.24988 288.512587 
L 117.528195 287.878459 
L 117.806511 291.366165 
L 117.945668 291.049101 
L 118.084826 291.049101 
L 118.363141 294.536807 
L 118.502298 294.219743 
L 118.780613 295.488 
L 118.919771 295.488 
L 119.198086 294.853872 
L 119.615559 294.853872 
L 119.754716 294.536807 
L 124.207757 294.536807 
L 124.346915 294.853872 
L 124.486073 294.853872 
L 124.62523 294.536807 
L 125.18186 294.536807 
L 125.321018 294.853872 
L 125.460175 294.536807 
L 125.599333 294.536807 
L 125.73849 294.853872 
L 126.016806 294.853872 
L 126.155963 294.536807 
L 126.295121 294.853872 
L 126.712593 294.853872 
L 126.851751 294.536807 
L 126.990908 294.853872 
L 127.130066 294.536807 
L 127.547538 294.536807 
L 127.686696 294.853872 
L 127.965011 294.853872 
L 128.104169 294.536807 
L 128.243326 294.853872 
L 128.382484 294.853872 
L 128.521641 294.536807 
L 128.799956 294.536807 
L 128.939114 294.853872 
L 130.330689 294.853872 
L 130.469847 294.536807 
L 130.609004 294.853872 
L 130.748162 294.536807 
L 131.026477 294.536807 
L 131.165635 294.853872 
L 131.722265 294.853872 
L 131.861422 294.536807 
L 132.139737 294.536807 
L 132.278895 294.853872 
L 132.55721 294.853872 
L 132.696368 294.536807 
L 132.974683 294.536807 
L 133.11384 294.853872 
L 133.392155 294.853872 
L 133.531313 294.536807 
L 133.67047 294.853872 
L 133.948785 294.853872 
L 134.087943 294.536807 
L 134.2271 294.853872 
L 134.366258 294.536807 
L 134.505416 294.853872 
L 138.540984 294.853872 
L 138.680142 294.536807 
L 138.819299 294.853872 
L 140.071717 294.853872 
L 140.210875 294.536807 
L 140.350032 294.853872 
L 140.628347 294.853872 
L 140.767505 294.536807 
L 140.906663 294.853872 
L 141.04582 294.536807 
L 141.184978 294.853872 
L 143.550656 294.853872 
L 143.689813 294.536807 
L 143.828971 294.853872 
L 146.194649 294.853872 
L 146.333807 294.536807 
L 146.472964 294.853872 
L 147.447067 294.853872 
L 147.586225 294.536807 
L 147.725382 294.853872 
L 148.42117 294.853872 
L 148.560327 294.536807 
L 148.699485 294.853872 
L 149.812745 294.853872 
L 149.951903 294.536807 
L 150.09106 294.853872 
L 151.760951 294.853872 
L 151.900108 294.536807 
L 152.178423 294.536807 
L 152.317581 294.853872 
L 152.456738 294.536807 
L 152.595896 294.853872 
L 152.735054 294.536807 
L 152.874211 294.853872 
L 154.683259 294.853872 
L 154.822417 294.536807 
L 154.961574 294.536807 
L 155.100732 294.853872 
L 155.239889 294.536807 
L 155.379047 294.853872 
L 155.518204 294.536807 
L 155.657362 294.853872 
L 155.79652 294.536807 
L 155.935677 294.853872 
L 156.492307 294.853872 
L 156.631465 294.536807 
L 156.770622 294.536807 
L 156.90978 294.853872 
L 158.57967 294.853872 
L 158.718828 294.536807 
L 158.857985 294.853872 
L 160.249561 294.853872 
L 160.388718 294.536807 
L 160.527876 294.853872 
L 160.667033 294.536807 
L 160.945349 294.536807 
L 161.084506 294.853872 
L 161.223664 294.536807 
L 161.362821 294.536807 
L 161.501979 294.853872 
L 162.197766 294.853872 
L 162.336924 294.536807 
L 162.476082 294.853872 
L 162.893554 294.853872 
L 163.032712 294.536807 
L 163.311027 294.536807 
L 163.450184 294.853872 
L 163.589342 294.536807 
L 163.867657 294.536807 
L 164.006814 294.853872 
L 164.145972 294.536807 
L 164.980917 294.536807 
L 165.120075 294.853872 
L 165.259232 294.853872 
L 165.39839 294.536807 
L 165.815863 294.536807 
L 165.95502 294.853872 
L 166.094178 294.536807 
L 166.233335 294.536807 
L 166.372493 294.853872 
L 166.51165 294.536807 
L 167.624911 294.536807 
L 167.764068 294.853872 
L 167.903226 294.853872 
L 168.042383 294.536807 
L 169.433959 294.536807 
L 169.573116 294.853872 
L 169.712274 294.536807 
L 169.851431 294.536807 
L 169.990589 294.853872 
L 170.129746 294.536807 
L 170.686376 294.536807 
L 170.825534 294.853872 
L 170.964692 294.536807 
L 171.103849 294.853872 
L 171.382164 294.853872 
L 171.521322 294.536807 
L 171.660479 294.536807 
L 171.799637 294.853872 
L 171.938794 294.536807 
L 172.356267 294.536807 
L 172.495425 294.853872 
L 172.634582 294.853872 
L 172.77374 294.536807 
L 173.191212 294.536807 
L 173.33037 294.853872 
L 173.608685 294.853872 
L 173.747842 294.536807 
L 173.887 294.536807 
L 174.026158 294.853872 
L 174.304473 294.853872 
L 174.44363 294.536807 
L 175.417733 294.536807 
L 175.55689 294.853872 
L 175.696048 294.536807 
L 175.974363 294.536807 
L 176.113521 294.853872 
L 176.252678 294.536807 
L 176.809308 294.536807 
L 176.948466 294.853872 
L 177.087623 294.536807 
L 177.226781 294.536807 
L 177.365939 294.853872 
L 177.505096 294.853872 
L 177.644254 294.536807 
L 177.783411 294.536807 
L 177.922569 294.853872 
L 178.061726 294.853872 
L 178.200884 294.536807 
L 178.757514 294.536807 
L 178.896671 294.853872 
L 179.035829 294.853872 
L 179.174987 294.536807 
L 179.592459 294.536807 
L 179.731617 294.853872 
L 179.870774 294.536807 
L 180.009932 294.853872 
L 180.149089 294.536807 
L 180.288247 294.536807 
L 180.427404 294.853872 
L 180.566562 294.536807 
L 180.70572 294.853872 
L 181.123192 294.853872 
L 181.26235 294.536807 
L 181.401507 294.853872 
L 181.540665 294.536807 
L 181.679822 294.536807 
L 181.81898 294.853872 
L 181.958137 294.536807 
L 182.097295 294.536807 
L 182.236452 294.853872 
L 182.37561 294.536807 
L 182.514768 294.853872 
L 182.653925 294.853872 
L 182.793083 294.536807 
L 184.602131 294.536807 
L 184.741288 294.853872 
L 184.880446 294.536807 
L 185.437076 294.536807 
L 185.576233 294.853872 
L 185.715391 294.536807 
L 185.854549 294.536807 
L 185.993706 294.853872 
L 186.132864 294.536807 
L 187.941912 294.536807 
L 188.081069 294.853872 
L 188.220227 294.536807 
L 192.116638 294.536807 
L 192.255796 294.853872 
L 192.394953 294.536807 
L 192.673268 294.536807 
L 192.812426 294.853872 
L 192.951583 294.536807 
L 194.343159 294.536807 
L 194.482316 294.853872 
L 194.621474 294.536807 
L 197.265467 294.536807 
L 197.404625 294.853872 
L 197.543782 294.536807 
L 197.68294 294.853872 
L 197.822097 294.536807 
L 198.517885 294.536807 
L 198.657042 294.853872 
L 198.7962 294.536807 
L 199.213673 294.536807 
L 199.35283 294.853872 
L 199.491988 294.853872 
L 199.631145 294.536807 
L 206.032392 294.536807 
L 206.17155 294.853872 
L 206.310707 294.536807 
L 217.164996 294.536807 
L 217.304153 294.853872 
L 217.443311 294.536807 
L 219.252359 294.536807 
L 219.391516 294.853872 
L 219.530674 294.536807 
L 232.75064 294.536807 
L 232.889798 294.853872 
L 233.028955 294.536807 
L 234.142216 294.536807 
L 234.281373 294.853872 
L 234.420531 294.536807 
L 235.255476 294.536807 
L 235.394634 294.853872 
L 235.533791 294.536807 
L 236.090421 294.536807 
L 236.229579 294.853872 
L 236.368736 294.536807 
L 236.507894 294.536807 
L 236.647051 294.853872 
L 236.786209 294.536807 
L 244.579031 294.536807 
L 244.718189 294.853872 
L 244.857346 294.536807 
L 245.413977 294.536807 
L 245.553134 294.853872 
L 245.692292 294.536807 
L 245.831449 294.536807 
L 245.970607 294.853872 
L 246.109764 294.536807 
L 247.223025 294.536807 
L 247.362182 294.853872 
L 247.50134 294.536807 
L 286.465451 294.536807 
L 286.604609 294.853872 
L 286.743767 294.536807 
L 351.591181 294.536807 
L 351.730339 294.853872 
L 351.869496 294.853872 
L 352.008654 294.536807 
L 354.513489 294.536807 
L 354.652647 294.853872 
L 354.791805 294.536807 
L 359.523161 294.536807 
L 359.662319 294.853872 
L 359.801476 294.536807 
L 364.254517 294.536807 
L 364.393675 294.853872 
L 364.532832 294.536807 
L 398.487273 294.536807 
L 398.487273 294.536807 
" clip-path="url(#p260e22199f)" style="fill: none; stroke: #1f77b4; stroke-width: 1.5; stroke-linecap: square"/>
   </g>
   <g id="line2d_19">
    <path d="M 73.832727 57.689835 
L 74.667673 57.689835 
L 74.80683 58.006899 
L 75.780933 58.006899 
L 75.92009 58.323963 
L 77.450823 58.323963 
L 77.589981 58.641028 
L 78.703241 58.641028 
L 78.842399 58.958092 
L 79.538186 58.958092 
L 79.677344 59.275156 
L 80.929762 59.275156 
L 81.068919 59.59222 
L 81.903865 59.59222 
L 82.043022 59.909284 
L 83.156283 59.909284 
L 83.29544 60.226349 
L 84.547858 60.226349 
L 84.687016 60.543413 
L 85.800276 60.543413 
L 85.939433 60.860477 
L 87.052694 60.860477 
L 87.191851 61.177541 
L 88.305112 61.177541 
L 88.444269 61.494606 
L 90.531632 61.494606 
L 90.67079 61.81167 
L 91.644893 61.81167 
L 91.78405 62.128734 
L 92.758153 62.128734 
L 92.897311 62.445798 
L 94.288886 62.445798 
L 94.428043 62.762862 
L 95.541304 62.762862 
L 95.680461 63.079927 
L 97.211194 63.079927 
L 97.350352 63.396991 
L 99.1594 63.396991 
L 99.298557 63.714055 
L 100.411818 63.714055 
L 100.550975 64.031119 
L 102.916654 64.031119 
L 103.055811 64.348183 
L 104.725702 64.348183 
L 104.864859 64.665248 
L 106.673907 64.665248 
L 106.813065 64.982312 
L 107.787168 64.982312 
L 107.926325 65.299376 
L 109.178743 65.299376 
L 109.3179 65.61644 
L 109.457058 65.299376 
L 109.596216 65.61644 
L 110.013688 65.61644 
L 110.152846 65.299376 
L 113.353469 65.299376 
L 113.492627 64.982312 
L 125.321018 64.982312 
L 125.460175 65.299376 
L 125.599333 64.982312 
L 125.73849 65.299376 
L 126.434278 65.299376 
L 126.573436 65.61644 
L 128.104169 65.61644 
L 128.243326 65.933505 
L 128.939114 65.933505 
L 129.078271 66.250569 
L 129.495744 66.250569 
L 129.634902 66.567633 
L 130.052374 66.567633 
L 130.191532 66.884697 
L 130.330689 66.884697 
L 130.469847 67.201761 
L 130.609004 67.201761 
L 130.748162 67.518826 
L 130.887319 67.518826 
L 131.026477 67.83589 
L 131.165635 67.83589 
L 131.304792 68.152954 
L 131.583107 68.152954 
L 131.722265 68.470018 
L 131.861422 68.470018 
L 132.00058 68.787083 
L 132.139737 68.787083 
L 132.278895 69.104147 
L 132.418052 69.104147 
L 132.55721 69.421211 
L 132.696368 69.421211 
L 132.835525 69.738275 
L 132.974683 69.738275 
L 133.11384 70.055339 
L 133.252998 70.055339 
L 133.392155 70.372404 
L 133.531313 70.372404 
L 133.67047 70.689468 
L 134.366258 70.689468 
L 134.505416 71.006532 
L 135.062046 71.006532 
L 135.201203 71.323596 
L 135.896991 71.323596 
L 136.036149 71.640661 
L 136.731936 71.640661 
L 136.871094 71.957725 
L 137.706039 71.957725 
L 137.845197 72.274789 
L 138.401827 72.274789 
L 138.680142 72.908917 
L 138.819299 72.908917 
L 138.958457 73.225982 
L 139.097614 73.225982 
L 139.236772 73.543046 
L 139.515087 73.543046 
L 139.654245 73.86011 
L 139.793402 73.86011 
L 139.93256 74.177174 
L 140.071717 74.177174 
L 140.210875 74.494239 
L 140.48919 74.494239 
L 140.628347 74.811303 
L 140.767505 74.811303 
L 140.906663 75.128367 
L 141.184978 75.128367 
L 141.463293 75.762495 
L 141.741608 75.762495 
L 141.880765 76.07956 
L 142.019923 76.07956 
L 142.15908 76.396624 
L 142.298238 76.396624 
L 142.437395 76.713688 
L 142.576553 76.713688 
L 142.715711 77.030752 
L 142.854868 77.030752 
L 142.994026 77.347817 
L 143.133183 77.347817 
L 143.272341 77.664881 
L 144.107286 77.664881 
L 144.246444 77.981945 
L 144.803074 80.201394 
L 144.942231 80.518459 
L 145.081389 80.518459 
L 145.359704 81.152587 
L 145.498861 81.152587 
L 146.751279 84.006165 
L 146.890437 84.006165 
L 147.168752 84.957358 
L 147.307909 85.274422 
L 147.447067 85.274422 
L 147.725382 86.225615 
L 147.86454 85.591486 
L 148.282012 82.737908 
L 148.560327 81.786716 
L 148.9778 80.835523 
L 149.673588 80.835523 
L 150.508533 82.737908 
L 150.786848 83.689101 
L 151.065163 84.323229 
L 151.204321 84.323229 
L 151.482636 85.274422 
L 151.621793 85.274422 
L 151.900108 85.90855 
L 152.039266 85.90855 
L 152.317581 86.542679 
L 152.456738 86.542679 
L 152.595896 86.859743 
L 152.735054 86.859743 
L 153.013369 87.493872 
L 153.152526 87.493872 
L 153.430841 88.128 
L 153.569999 88.128 
L 153.709156 88.445064 
L 153.848314 88.445064 
L 154.126629 89.079193 
L 154.265787 89.079193 
L 154.961574 90.664514 
L 155.239889 91.615706 
L 155.379047 91.932771 
L 155.657362 92.883963 
L 155.79652 93.201028 
L 156.074835 98.274055 
L 156.492307 105.883596 
L 157.048937 110.322495 
L 157.605568 113.176073 
L 159.275458 123.956257 
L 159.971246 127.443963 
L 161.501979 137.272954 
L 161.780294 138.858275 
L 162.336924 142.028917 
L 162.754397 143.931303 
L 163.032712 145.833688 
L 163.589342 148.687266 
L 164.28513 152.809101 
L 164.84176 155.662679 
L 165.676705 160.735706 
L 165.95502 162.321028 
L 166.789965 167.394055 
L 167.06828 168.979376 
L 169.016486 181.661945 
L 169.294801 183.247266 
L 171.103849 196.246899 
L 171.660479 200.368734 
L 172.495425 206.710018 
L 173.608685 215.904881 
L 177.087623 239.367633 
L 177.365939 239.367633 
L 177.644254 240.001761 
L 178.200884 242.855339 
L 179.035829 247.928367 
L 180.009932 252.050202 
L 180.566562 253.318459 
L 180.70572 253.952587 
L 180.844877 253.952587 
L 181.540665 255.537908 
L 181.679822 255.537908 
L 181.958137 256.172037 
L 182.097295 256.172037 
L 182.37561 256.806165 
L 182.514768 256.806165 
L 182.793083 257.440294 
L 182.93224 257.440294 
L 183.210555 258.074422 
L 183.349713 258.074422 
L 183.48887 258.391486 
L 183.628028 258.391486 
L 183.906343 259.025615 
L 184.045501 259.025615 
L 184.323816 259.659743 
L 184.462973 259.659743 
L 184.602131 259.976807 
L 184.741288 259.976807 
L 184.880446 260.293872 
L 185.158761 260.293872 
L 185.437076 260.928 
L 185.715391 260.928 
L 185.854549 261.245064 
L 185.993706 261.245064 
L 186.132864 261.562128 
L 186.272021 261.562128 
L 186.411179 261.879193 
L 186.689494 261.879193 
L 186.828651 262.196257 
L 187.106966 262.196257 
L 187.246124 262.513321 
L 187.524439 262.513321 
L 187.663597 262.830385 
L 187.802754 262.830385 
L 188.081069 263.464514 
L 188.498542 265.049835 
L 188.637699 265.049835 
L 188.916014 265.683963 
L 189.055172 265.683963 
L 189.19433 266.001028 
L 189.333487 266.001028 
L 189.611802 266.635156 
L 189.75096 266.635156 
L 189.890117 266.95222 
L 190.029275 266.95222 
L 190.30759 267.586349 
L 190.446747 267.586349 
L 190.86422 268.537541 
L 191.003378 268.537541 
L 191.281693 269.17167 
L 191.42085 269.17167 
L 191.838323 270.122862 
L 191.97748 270.122862 
L 192.394953 271.074055 
L 192.534111 271.074055 
L 192.951583 272.025248 
L 193.090741 272.025248 
L 193.369056 272.659376 
L 193.508213 272.659376 
L 193.647371 272.97644 
L 193.786528 272.97644 
L 194.064844 273.610569 
L 194.204001 273.610569 
L 195.178104 275.830018 
L 195.317261 275.830018 
L 195.595577 276.464147 
L 195.734734 276.464147 
L 196.013049 277.098275 
L 196.152207 277.098275 
L 196.430522 277.732404 
L 196.569679 277.732404 
L 196.987152 278.683596 
L 197.126309 278.683596 
L 197.404625 279.317725 
L 197.543782 279.317725 
L 197.961255 280.268917 
L 198.100412 280.268917 
L 198.378727 280.903046 
L 198.517885 280.903046 
L 198.657042 281.22011 
L 198.7962 281.22011 
L 198.935358 281.537174 
L 199.074515 281.537174 
L 199.213673 281.854239 
L 199.35283 281.854239 
L 199.491988 282.171303 
L 199.631145 282.171303 
L 199.770303 282.488367 
L 200.048618 282.488367 
L 200.187775 282.805431 
L 200.46609 282.805431 
L 200.605248 283.122495 
L 200.883563 283.122495 
L 201.022721 283.43956 
L 201.301036 283.43956 
L 201.440193 283.756624 
L 201.857666 283.756624 
L 201.996823 284.073688 
L 202.275139 284.073688 
L 202.414296 284.390752 
L 202.831769 284.390752 
L 202.970926 284.707817 
L 203.110084 284.707817 
L 203.249241 285.024881 
L 203.805871 285.024881 
L 203.945029 285.341945 
L 204.362502 285.341945 
L 204.501659 285.659009 
L 204.779974 285.659009 
L 204.919132 285.976073 
L 205.197447 285.976073 
L 205.336604 286.293138 
L 205.475762 286.293138 
L 205.61492 286.610202 
L 206.310707 286.610202 
L 206.449865 286.927266 
L 206.867337 286.927266 
L 207.006495 287.24433 
L 207.423968 287.24433 
L 207.563125 287.561394 
L 208.119755 287.561394 
L 208.258913 287.878459 
L 209.093858 287.878459 
L 209.233016 288.195523 
L 211.042064 288.195523 
L 211.181221 287.878459 
L 212.433639 287.878459 
L 212.572797 288.195523 
L 213.686057 288.195523 
L 213.825215 288.512587 
L 216.469208 288.512587 
L 216.608365 288.829651 
L 220.365619 288.829651 
L 220.504777 289.146716 
L 223.7054 289.146716 
L 223.844558 289.46378 
L 227.880126 289.46378 
L 228.019284 289.780844 
L 228.854229 289.780844 
L 228.993387 290.097908 
L 229.967489 290.097908 
L 230.106647 290.414972 
L 231.08075 290.414972 
L 231.219907 290.732037 
L 232.333168 290.732037 
L 232.472325 291.049101 
L 234.003058 291.049101 
L 234.142216 291.366165 
L 237.203682 291.366165 
L 237.342839 291.683229 
L 240.404305 291.683229 
L 240.543463 292.000294 
L 244.579031 292.000294 
L 244.718189 292.317358 
L 267.261711 292.317358 
L 267.400868 292.634422 
L 267.540026 292.317358 
L 267.818341 292.317358 
L 267.957498 292.634422 
L 268.096656 292.634422 
L 268.235813 292.317358 
L 268.374971 292.317358 
L 268.514129 292.634422 
L 268.653286 292.317358 
L 268.792444 292.634422 
L 268.931601 292.317358 
L 269.070759 292.317358 
L 269.209916 292.634422 
L 269.349074 292.634422 
L 269.488231 292.317358 
L 269.627389 292.317358 
L 269.766546 292.634422 
L 269.905704 292.317358 
L 270.044861 292.317358 
L 270.184019 292.634422 
L 272.132225 292.634422 
L 272.271382 292.317358 
L 272.41054 292.634422 
L 272.549697 292.317358 
L 272.688855 292.634422 
L 272.828012 292.317358 
L 272.96717 292.317358 
L 273.106327 292.634422 
L 277.141896 292.634422 
L 277.281054 292.951486 
L 292.449226 292.951486 
L 292.588383 293.26855 
L 299.963733 293.26855 
L 300.102891 293.585615 
L 310.261391 293.585615 
L 310.400549 293.902679 
L 335.727221 293.902679 
L 335.866379 294.219743 
L 348.80803 294.219743 
L 348.947188 294.536807 
L 397.930643 294.536807 
L 398.0698 294.853872 
L 398.487273 294.853872 
L 398.487273 294.853872 
" clip-path="url(#p260e22199f)" style="fill: none; stroke: #ff7f0e; stroke-width: 1.5; stroke-linecap: square"/>
   </g>
   <g id="patch_3">
    <path d="M 57.6 307.584 
L 57.6 41.472 
" style="fill: none; stroke: #000000; stroke-width: 0.8; stroke-linejoin: miter; stroke-linecap: square"/>
   </g>
   <g id="patch_4">
    <path d="M 414.72 307.584 
L 414.72 41.472 
" style="fill: none; stroke: #000000; stroke-width: 0.8; stroke-linejoin: miter; stroke-linecap: square"/>
   </g>
   <g id="patch_5">
    <path d="M 57.6 307.584 
L 414.72 307.584 
" style="fill: none; stroke: #000000; stroke-width: 0.8; stroke-linejoin: miter; stroke-linecap: square"/>
   </g>
   <g id="patch_6">
    <path d="M 57.6 41.472 
L 414.72 41.472 
" style="fill: none; stroke: #000000; stroke-width: 0.8; stroke-linejoin: miter; stroke-linecap: square"/>
   </g>
   <g id="text_20">
    <!-- Time/pH for 0.1M KCl dataset -->
    <g transform="translate(148.395 35.472) scale(0.12 -0.12)">
     <defs>
      <path id="DejaVuSans-2f" d="M 1625 4666 
L 2156 4666 
L 531 -594 
L 0 -594 
L 1625 4666 
z
" transform="scale(0.015625)"/>
      <path id="DejaVuSans-66" d="M 2375 4863 
L 2375 4384 
L 1825 4384 
Q 1516 4384 1395 4259 
Q 1275 4134 1275 3809 
L 1275 3500 
L 2222 3500 
L 2222 3053 
L 1275 3053 
L 1275 0 
L 697 0 
L 697 3053 
L 147 3053 
L 147 3500 
L 697 3500 
L 697 3744 
Q 697 4328 969 4595 
Q 1241 4863 1831 4863 
L 2375 4863 
z
" transform="scale(0.015625)"/>
      <path id="DejaVuSans-6f" d="M 1959 3097 
Q 1497 3097 1228 2736 
Q 959 2375 959 1747 
Q 959 1119 1226 758 
Q 1494 397 1959 397 
Q 2419 397 2687 759 
Q 2956 1122 2956 1747 
Q 2956 2369 2687 2733 
Q 2419 3097 1959 3097 
z
M 1959 3584 
Q 2709 3584 3137 3096 
Q 3566 2609 3566 1747 
Q 3566 888 3137 398 
Q 2709 -91 1959 -91 
Q 1206 -91 779 398 
Q 353 888 353 1747 
Q 353 2609 779 3096 
Q 1206 3584 1959 3584 
z
" transform="scale(0.015625)"/>
      <path id="DejaVuSans-72" d="M 2631 2963 
Q 2534 3019 2420 3045 
Q 2306 3072 2169 3072 
Q 1681 3072 1420 2755 
Q 1159 2438 1159 1844 
L 1159 0 
L 581 0 
L 581 3500 
L 1159 3500 
L 1159 2956 
Q 1341 3275 1631 3429 
Q 1922 3584 2338 3584 
Q 2397 3584 2469 3576 
Q 2541 3569 2628 3553 
L 2631 2963 
z
" transform="scale(0.015625)"/>
      <path id="DejaVuSans-4d" d="M 628 4666 
L 1569 4666 
L 2759 1491 
L 3956 4666 
L 4897 4666 
L 4897 0 
L 4281 0 
L 4281 4097 
L 3078 897 
L 2444 897 
L 1241 4097 
L 1241 0 
L 628 0 
L 628 4666 
z
" transform="scale(0.015625)"/>
      <path id="DejaVuSans-4b" d="M 628 4666 
L 1259 4666 
L 1259 2694 
L 3353 4666 
L 4166 4666 
L 1850 2491 
L 4331 0 
L 3500 0 
L 1259 2247 
L 1259 0 
L 628 0 
L 628 4666 
z
" transform="scale(0.015625)"/>
      <path id="DejaVuSans-43" d="M 4122 4306 
L 4122 3641 
Q 3803 3938 3442 4084 
Q 3081 4231 2675 4231 
Q 1875 4231 1450 3742 
Q 1025 3253 1025 2328 
Q 1025 1406 1450 917 
Q 1875 428 2675 428 
Q 3081 428 3442 575 
Q 3803 722 4122 1019 
L 4122 359 
Q 3791 134 3420 21 
Q 3050 -91 2638 -91 
Q 1578 -91 968 557 
Q 359 1206 359 2328 
Q 359 3453 968 4101 
Q 1578 4750 2638 4750 
Q 3056 4750 3426 4639 
Q 3797 4528 4122 4306 
z
" transform="scale(0.015625)"/>
      <path id="DejaVuSans-6c" d="M 603 4863 
L 1178 4863 
L 1178 0 
L 603 0 
L 603 4863 
z
" transform="scale(0.015625)"/>
      <path id="DejaVuSans-64" d="M 2906 2969 
L 2906 4863 
L 3481 4863 
L 3481 0 
L 2906 0 
L 2906 525 
Q 2725 213 2448 61 
Q 2172 -91 1784 -91 
Q 1150 -91 751 415 
Q 353 922 353 1747 
Q 353 2572 751 3078 
Q 1150 3584 1784 3584 
Q 2172 3584 2448 3432 
Q 2725 3281 2906 2969 
z
M 947 1747 
Q 947 1113 1208 752 
Q 1469 391 1925 391 
Q 2381 391 2643 752 
Q 2906 1113 2906 1747 
Q 2906 2381 2643 2742 
Q 2381 3103 1925 3103 
Q 1469 3103 1208 2742 
Q 947 2381 947 1747 
z
" transform="scale(0.015625)"/>
      <path id="DejaVuSans-61" d="M 2194 1759 
Q 1497 1759 1228 1600 
Q 959 1441 959 1056 
Q 959 750 1161 570 
Q 1363 391 1709 391 
Q 2188 391 2477 730 
Q 2766 1069 2766 1631 
L 2766 1759 
L 2194 1759 
z
M 3341 1997 
L 3341 0 
L 2766 0 
L 2766 531 
Q 2569 213 2275 61 
Q 1981 -91 1556 -91 
Q 1019 -91 701 211 
Q 384 513 384 1019 
Q 384 1609 779 1909 
Q 1175 2209 1959 2209 
L 2766 2209 
L 2766 2266 
Q 2766 2663 2505 2880 
Q 2244 3097 1772 3097 
Q 1472 3097 1187 3025 
Q 903 2953 641 2809 
L 641 3341 
Q 956 3463 1253 3523 
Q 1550 3584 1831 3584 
Q 2591 3584 2966 3190 
Q 3341 2797 3341 1997 
z
" transform="scale(0.015625)"/>
      <path id="DejaVuSans-74" d="M 1172 4494 
L 1172 3500 
L 2356 3500 
L 2356 3053 
L 1172 3053 
L 1172 1153 
Q 1172 725 1289 603 
Q 1406 481 1766 481 
L 2356 481 
L 2356 0 
L 1766 0 
Q 1100 0 847 248 
Q 594 497 594 1153 
L 594 3053 
L 172 3053 
L 172 3500 
L 594 3500 
L 594 4494 
L 1172 4494 
z
" transform="scale(0.015625)"/>
     </defs>
     <use xlink:href="#DejaVuSans-54"/>
     <use xlink:href="#DejaVuSans-69" x="57.958984"/>
     <use xlink:href="#DejaVuSans-6d" x="85.742188"/>
     <use xlink:href="#DejaVuSans-65" x="183.154297"/>
     <use xlink:href="#DejaVuSans-2f" x="244.677734"/>
     <use xlink:href="#DejaVuSans-70" x="278.369141"/>
     <use xlink:href="#DejaVuSans-48" x="341.845703"/>
     <use xlink:href="#DejaVuSans-20" x="417.041016"/>
     <use xlink:href="#DejaVuSans-66" x="448.828125"/>
     <use xlink:href="#DejaVuSans-6f" x="484.033203"/>
     <use xlink:href="#DejaVuSans-72" x="545.214844"/>
     <use xlink:href="#DejaVuSans-20" x="586.328125"/>
     <use xlink:href="#DejaVuSans-30" x="618.115234"/>
     <use xlink:href="#DejaVuSans-2e" x="681.738281"/>
     <use xlink:href="#DejaVuSans-31" x="713.525391"/>
     <use xlink:href="#DejaVuSans-4d" x="777.148438"/>
     <use xlink:href="#DejaVuSans-20" x="863.427734"/>
     <use xlink:href="#DejaVuSans-4b" x="895.214844"/>
     <use xlink:href="#DejaVuSans-43" x="955.291016"/>
     <use xlink:href="#DejaVuSans-6c" x="1025.115234"/>
     <use xlink:href="#DejaVuSans-20" x="1052.898438"/>
     <use xlink:href="#DejaVuSans-64" x="1084.685547"/>
     <use xlink:href="#DejaVuSans-61" x="1148.162109"/>
     <use xlink:href="#DejaVuSans-74" x="1209.441406"/>
     <use xlink:href="#DejaVuSans-61" x="1248.650391"/>
     <use xlink:href="#DejaVuSans-73" x="1309.929688"/>
     <use xlink:href="#DejaVuSans-65" x="1362.029297"/>
     <use xlink:href="#DejaVuSans-74" x="1423.552734"/>
    </g>
   </g>
   <g id="legend_1">
    <g id="patch_7">
     <path d="M 300.649688 78.82825 
L 407.72 78.82825 
Q 409.72 78.82825 409.72 76.82825 
L 409.72 48.472 
Q 409.72 46.472 407.72 46.472 
L 300.649688 46.472 
Q 298.649688 46.472 298.649688 48.472 
L 298.649688 76.82825 
Q 298.649688 78.82825 300.649688 78.82825 
z
" style="fill: #ffffff; opacity: 0.8; stroke: #cccccc; stroke-linejoin: miter"/>
    </g>
    <g id="line2d_20">
     <path d="M 302.649688 54.570437 
L 312.649688 54.570437 
L 322.649688 54.570437 
" style="fill: none; stroke: #1f77b4; stroke-width: 1.5; stroke-linecap: square"/>
    </g>
    <g id="text_21">
     <!-- pH feed -->
     <g transform="translate(330.649688 58.070437) scale(0.1 -0.1)">
      <use xlink:href="#DejaVuSans-70"/>
      <use xlink:href="#DejaVuSans-48" x="63.476562"/>
      <use xlink:href="#DejaVuSans-20" x="138.671875"/>
      <use xlink:href="#DejaVuSans-66" x="170.458984"/>
      <use xlink:href="#DejaVuSans-65" x="205.664062"/>
      <use xlink:href="#DejaVuSans-65" x="267.1875"/>
      <use xlink:href="#DejaVuSans-64" x="328.710938"/>
     </g>
    </g>
    <g id="line2d_21">
     <path d="M 302.649688 69.248562 
L 312.649688 69.248562 
L 322.649688 69.248562 
" style="fill: none; stroke: #ff7f0e; stroke-width: 1.5; stroke-linecap: square"/>
    </g>
    <g id="text_22">
     <!-- pH premeate 1 -->
     <g transform="translate(330.649688 72.748562) scale(0.1 -0.1)">
      <use xlink:href="#DejaVuSans-70"/>
      <use xlink:href="#DejaVuSans-48" x="63.476562"/>
      <use xlink:href="#DejaVuSans-20" x="138.671875"/>
      <use xlink:href="#DejaVuSans-70" x="170.458984"/>
      <use xlink:href="#DejaVuSans-72" x="233.935547"/>
      <use xlink:href="#DejaVuSans-65" x="272.798828"/>
      <use xlink:href="#DejaVuSans-6d" x="334.322266"/>
      <use xlink:href="#DejaVuSans-65" x="431.734375"/>
      <use xlink:href="#DejaVuSans-61" x="493.257812"/>
      <use xlink:href="#DejaVuSans-74" x="554.537109"/>
      <use xlink:href="#DejaVuSans-65" x="593.746094"/>
      <use xlink:href="#DejaVuSans-20" x="655.269531"/>
      <use xlink:href="#DejaVuSans-31" x="687.056641"/>
     </g>
    </g>
   </g>
  </g>
 </g>
 <defs>
  <clipPath id="p260e22199f">
   <rect x="57.6" y="41.472" width="357.12" height="266.112"/>
  </clipPath>
 </defs>
</svg>
