<?xml version="1.0" encoding="utf-8" standalone="no"?>
<!DOCTYPE svg PUBLIC "-//W3C//DTD SVG 1.1//EN"
  "http://www.w3.org/Graphics/SVG/1.1/DTD/svg11.dtd">
<svg xmlns:xlink="http://www.w3.org/1999/xlink" width="460.8pt" height="345.6pt" viewBox="0 0 460.8 345.6" xmlns="http://www.w3.org/2000/svg" version="1.1">
 <metadata>
  <rdf:RDF xmlns:dc="http://purl.org/dc/elements/1.1/" xmlns:cc="http://creativecommons.org/ns#" xmlns:rdf="http://www.w3.org/1999/02/22-rdf-syntax-ns#">
   <cc:Work>
    <dc:type rdf:resource="http://purl.org/dc/dcmitype/StillImage"/>
    <dc:date>2023-06-19T18:59:15.809345</dc:date>
    <dc:format>image/svg+xml</dc:format>
    <dc:creator>
     <cc:Agent>
      <dc:title>Matplotlib v3.7.1, https://matplotlib.org/</dc:title>
     </cc:Agent>
    </dc:creator>
   </cc:Work>
  </rdf:RDF>
 </metadata>
 <defs>
  <style type="text/css">*{stroke-linejoin: round; stroke-linecap: butt}</style>
 </defs>
 <g id="figure_1">
  <g id="patch_1">
   <path d="M 0 345.6 
L 460.8 345.6 
L 460.8 0 
L 0 0 
z
" style="fill: #ffffff"/>
  </g>
  <g id="axes_1">
   <g id="patch_2">
    <path d="M 57.6 307.584 
L 414.72 307.584 
L 414.72 41.472 
L 57.6 41.472 
z
" style="fill: #ffffff"/>
   </g>
   <g id="matplotlib.axis_1">
    <g id="xtick_1">
     <g id="line2d_1">
      <defs>
       <path id="m50a581a408" d="M 0 0 
L 0 3.5 
" style="stroke: #000000; stroke-width: 0.8"/>
      </defs>
      <g>
       <use xlink:href="#m50a581a408" x="73.706697" y="307.584" style="stroke: #000000; stroke-width: 0.8"/>
      </g>
     </g>
     <g id="text_1">
      <!-- 0 -->
      <g transform="translate(70.525447 322.182437) scale(0.1 -0.1)">
       <defs>
        <path id="DejaVuSans-30" d="M 2034 4250 
Q 1547 4250 1301 3770 
Q 1056 3291 1056 2328 
Q 1056 1369 1301 889 
Q 1547 409 2034 409 
Q 2525 409 2770 889 
Q 3016 1369 3016 2328 
Q 3016 3291 2770 3770 
Q 2525 4250 2034 4250 
z
M 2034 4750 
Q 2819 4750 3233 4129 
Q 3647 3509 3647 2328 
Q 3647 1150 3233 529 
Q 2819 -91 2034 -91 
Q 1250 -91 836 529 
Q 422 1150 422 2328 
Q 422 3509 836 4129 
Q 1250 4750 2034 4750 
z
" transform="scale(0.015625)"/>
       </defs>
       <use xlink:href="#DejaVuSans-30"/>
      </g>
     </g>
    </g>
    <g id="xtick_2">
     <g id="line2d_2">
      <g>
       <use xlink:href="#m50a581a408" x="149.324992" y="307.584" style="stroke: #000000; stroke-width: 0.8"/>
      </g>
     </g>
     <g id="text_2">
      <!-- 5 -->
      <g transform="translate(146.143742 322.182437) scale(0.1 -0.1)">
       <defs>
        <path id="DejaVuSans-35" d="M 691 4666 
L 3169 4666 
L 3169 4134 
L 1269 4134 
L 1269 2991 
Q 1406 3038 1543 3061 
Q 1681 3084 1819 3084 
Q 2600 3084 3056 2656 
Q 3513 2228 3513 1497 
Q 3513 744 3044 326 
Q 2575 -91 1722 -91 
Q 1428 -91 1123 -41 
Q 819 9 494 109 
L 494 744 
Q 775 591 1075 516 
Q 1375 441 1709 441 
Q 2250 441 2565 725 
Q 2881 1009 2881 1497 
Q 2881 1984 2565 2268 
Q 2250 2553 1709 2553 
Q 1456 2553 1204 2497 
Q 953 2441 691 2322 
L 691 4666 
z
" transform="scale(0.015625)"/>
       </defs>
       <use xlink:href="#DejaVuSans-35"/>
      </g>
     </g>
    </g>
    <g id="xtick_3">
     <g id="line2d_3">
      <g>
       <use xlink:href="#m50a581a408" x="224.943286" y="307.584" style="stroke: #000000; stroke-width: 0.8"/>
      </g>
     </g>
     <g id="text_3">
      <!-- 10 -->
      <g transform="translate(218.580786 322.182437) scale(0.1 -0.1)">
       <defs>
        <path id="DejaVuSans-31" d="M 794 531 
L 1825 531 
L 1825 4091 
L 703 3866 
L 703 4441 
L 1819 4666 
L 2450 4666 
L 2450 531 
L 3481 531 
L 3481 0 
L 794 0 
L 794 531 
z
" transform="scale(0.015625)"/>
       </defs>
       <use xlink:href="#DejaVuSans-31"/>
       <use xlink:href="#DejaVuSans-30" x="63.623047"/>
      </g>
     </g>
    </g>
    <g id="xtick_4">
     <g id="line2d_4">
      <g>
       <use xlink:href="#m50a581a408" x="300.561581" y="307.584" style="stroke: #000000; stroke-width: 0.8"/>
      </g>
     </g>
     <g id="text_4">
      <!-- 15 -->
      <g transform="translate(294.199081 322.182437) scale(0.1 -0.1)">
       <use xlink:href="#DejaVuSans-31"/>
       <use xlink:href="#DejaVuSans-35" x="63.623047"/>
      </g>
     </g>
    </g>
    <g id="xtick_5">
     <g id="line2d_5">
      <g>
       <use xlink:href="#m50a581a408" x="376.179876" y="307.584" style="stroke: #000000; stroke-width: 0.8"/>
      </g>
     </g>
     <g id="text_5">
      <!-- 20 -->
      <g transform="translate(369.817376 322.182437) scale(0.1 -0.1)">
       <defs>
        <path id="DejaVuSans-32" d="M 1228 531 
L 3431 531 
L 3431 0 
L 469 0 
L 469 531 
Q 828 903 1448 1529 
Q 2069 2156 2228 2338 
Q 2531 2678 2651 2914 
Q 2772 3150 2772 3378 
Q 2772 3750 2511 3984 
Q 2250 4219 1831 4219 
Q 1534 4219 1204 4116 
Q 875 4013 500 3803 
L 500 4441 
Q 881 4594 1212 4672 
Q 1544 4750 1819 4750 
Q 2544 4750 2975 4387 
Q 3406 4025 3406 3419 
Q 3406 3131 3298 2873 
Q 3191 2616 2906 2266 
Q 2828 2175 2409 1742 
Q 1991 1309 1228 531 
z
" transform="scale(0.015625)"/>
       </defs>
       <use xlink:href="#DejaVuSans-32"/>
       <use xlink:href="#DejaVuSans-30" x="63.623047"/>
      </g>
     </g>
    </g>
    <g id="text_6">
     <!-- Time (s) -->
     <g transform="translate(215.831094 335.860562) scale(0.1 -0.1)">
      <defs>
       <path id="DejaVuSans-54" d="M -19 4666 
L 3928 4666 
L 3928 4134 
L 2272 4134 
L 2272 0 
L 1638 0 
L 1638 4134 
L -19 4134 
L -19 4666 
z
" transform="scale(0.015625)"/>
       <path id="DejaVuSans-69" d="M 603 3500 
L 1178 3500 
L 1178 0 
L 603 0 
L 603 3500 
z
M 603 4863 
L 1178 4863 
L 1178 4134 
L 603 4134 
L 603 4863 
z
" transform="scale(0.015625)"/>
       <path id="DejaVuSans-6d" d="M 3328 2828 
Q 3544 3216 3844 3400 
Q 4144 3584 4550 3584 
Q 5097 3584 5394 3201 
Q 5691 2819 5691 2113 
L 5691 0 
L 5113 0 
L 5113 2094 
Q 5113 2597 4934 2840 
Q 4756 3084 4391 3084 
Q 3944 3084 3684 2787 
Q 3425 2491 3425 1978 
L 3425 0 
L 2847 0 
L 2847 2094 
Q 2847 2600 2669 2842 
Q 2491 3084 2119 3084 
Q 1678 3084 1418 2786 
Q 1159 2488 1159 1978 
L 1159 0 
L 581 0 
L 581 3500 
L 1159 3500 
L 1159 2956 
Q 1356 3278 1631 3431 
Q 1906 3584 2284 3584 
Q 2666 3584 2933 3390 
Q 3200 3197 3328 2828 
z
" transform="scale(0.015625)"/>
       <path id="DejaVuSans-65" d="M 3597 1894 
L 3597 1613 
L 953 1613 
Q 991 1019 1311 708 
Q 1631 397 2203 397 
Q 2534 397 2845 478 
Q 3156 559 3463 722 
L 3463 178 
Q 3153 47 2828 -22 
Q 2503 -91 2169 -91 
Q 1331 -91 842 396 
Q 353 884 353 1716 
Q 353 2575 817 3079 
Q 1281 3584 2069 3584 
Q 2775 3584 3186 3129 
Q 3597 2675 3597 1894 
z
M 3022 2063 
Q 3016 2534 2758 2815 
Q 2500 3097 2075 3097 
Q 1594 3097 1305 2825 
Q 1016 2553 972 2059 
L 3022 2063 
z
" transform="scale(0.015625)"/>
       <path id="DejaVuSans-20" transform="scale(0.015625)"/>
       <path id="DejaVuSans-28" d="M 1984 4856 
Q 1566 4138 1362 3434 
Q 1159 2731 1159 2009 
Q 1159 1288 1364 580 
Q 1569 -128 1984 -844 
L 1484 -844 
Q 1016 -109 783 600 
Q 550 1309 550 2009 
Q 550 2706 781 3412 
Q 1013 4119 1484 4856 
L 1984 4856 
z
" transform="scale(0.015625)"/>
       <path id="DejaVuSans-73" d="M 2834 3397 
L 2834 2853 
Q 2591 2978 2328 3040 
Q 2066 3103 1784 3103 
Q 1356 3103 1142 2972 
Q 928 2841 928 2578 
Q 928 2378 1081 2264 
Q 1234 2150 1697 2047 
L 1894 2003 
Q 2506 1872 2764 1633 
Q 3022 1394 3022 966 
Q 3022 478 2636 193 
Q 2250 -91 1575 -91 
Q 1294 -91 989 -36 
Q 684 19 347 128 
L 347 722 
Q 666 556 975 473 
Q 1284 391 1588 391 
Q 1994 391 2212 530 
Q 2431 669 2431 922 
Q 2431 1156 2273 1281 
Q 2116 1406 1581 1522 
L 1381 1569 
Q 847 1681 609 1914 
Q 372 2147 372 2553 
Q 372 3047 722 3315 
Q 1072 3584 1716 3584 
Q 2034 3584 2315 3537 
Q 2597 3491 2834 3397 
z
" transform="scale(0.015625)"/>
       <path id="DejaVuSans-29" d="M 513 4856 
L 1013 4856 
Q 1481 4119 1714 3412 
Q 1947 2706 1947 2009 
Q 1947 1309 1714 600 
Q 1481 -109 1013 -844 
L 513 -844 
Q 928 -128 1133 580 
Q 1338 1288 1338 2009 
Q 1338 2731 1133 3434 
Q 928 4138 513 4856 
z
" transform="scale(0.015625)"/>
      </defs>
      <use xlink:href="#DejaVuSans-54"/>
      <use xlink:href="#DejaVuSans-69" x="57.958984"/>
      <use xlink:href="#DejaVuSans-6d" x="85.742188"/>
      <use xlink:href="#DejaVuSans-65" x="183.154297"/>
      <use xlink:href="#DejaVuSans-20" x="244.677734"/>
      <use xlink:href="#DejaVuSans-28" x="276.464844"/>
      <use xlink:href="#DejaVuSans-73" x="315.478516"/>
      <use xlink:href="#DejaVuSans-29" x="367.578125"/>
     </g>
    </g>
   </g>
   <g id="matplotlib.axis_2">
    <g id="ytick_1">
     <g id="line2d_6">
      <defs>
       <path id="m0cfc99407b" d="M 0 0 
L -3.5 0 
" style="stroke: #000000; stroke-width: 0.8"/>
      </defs>
      <g>
       <use xlink:href="#m0cfc99407b" x="57.6" y="295.488" style="stroke: #000000; stroke-width: 0.8"/>
      </g>
     </g>
     <g id="text_7">
      <!-- 2 -->
      <g transform="translate(44.2375 299.287219) scale(0.1 -0.1)">
       <use xlink:href="#DejaVuSans-32"/>
      </g>
     </g>
    </g>
    <g id="ytick_2">
     <g id="line2d_7">
      <g>
       <use xlink:href="#m0cfc99407b" x="57.6" y="244.01566" style="stroke: #000000; stroke-width: 0.8"/>
      </g>
     </g>
     <g id="text_8">
      <!-- 4 -->
      <g transform="translate(44.2375 247.814878) scale(0.1 -0.1)">
       <defs>
        <path id="DejaVuSans-34" d="M 2419 4116 
L 825 1625 
L 2419 1625 
L 2419 4116 
z
M 2253 4666 
L 3047 4666 
L 3047 1625 
L 3713 1625 
L 3713 1100 
L 3047 1100 
L 3047 0 
L 2419 0 
L 2419 1100 
L 313 1100 
L 313 1709 
L 2253 4666 
z
" transform="scale(0.015625)"/>
       </defs>
       <use xlink:href="#DejaVuSans-34"/>
      </g>
     </g>
    </g>
    <g id="ytick_3">
     <g id="line2d_8">
      <g>
       <use xlink:href="#m0cfc99407b" x="57.6" y="192.543319" style="stroke: #000000; stroke-width: 0.8"/>
      </g>
     </g>
     <g id="text_9">
      <!-- 6 -->
      <g transform="translate(44.2375 196.342538) scale(0.1 -0.1)">
       <defs>
        <path id="DejaVuSans-36" d="M 2113 2584 
Q 1688 2584 1439 2293 
Q 1191 2003 1191 1497 
Q 1191 994 1439 701 
Q 1688 409 2113 409 
Q 2538 409 2786 701 
Q 3034 994 3034 1497 
Q 3034 2003 2786 2293 
Q 2538 2584 2113 2584 
z
M 3366 4563 
L 3366 3988 
Q 3128 4100 2886 4159 
Q 2644 4219 2406 4219 
Q 1781 4219 1451 3797 
Q 1122 3375 1075 2522 
Q 1259 2794 1537 2939 
Q 1816 3084 2150 3084 
Q 2853 3084 3261 2657 
Q 3669 2231 3669 1497 
Q 3669 778 3244 343 
Q 2819 -91 2113 -91 
Q 1303 -91 875 529 
Q 447 1150 447 2328 
Q 447 3434 972 4092 
Q 1497 4750 2381 4750 
Q 2619 4750 2861 4703 
Q 3103 4656 3366 4563 
z
" transform="scale(0.015625)"/>
       </defs>
       <use xlink:href="#DejaVuSans-36"/>
      </g>
     </g>
    </g>
    <g id="ytick_4">
     <g id="line2d_9">
      <g>
       <use xlink:href="#m0cfc99407b" x="57.6" y="141.070979" style="stroke: #000000; stroke-width: 0.8"/>
      </g>
     </g>
     <g id="text_10">
      <!-- 8 -->
      <g transform="translate(44.2375 144.870197) scale(0.1 -0.1)">
       <defs>
        <path id="DejaVuSans-38" d="M 2034 2216 
Q 1584 2216 1326 1975 
Q 1069 1734 1069 1313 
Q 1069 891 1326 650 
Q 1584 409 2034 409 
Q 2484 409 2743 651 
Q 3003 894 3003 1313 
Q 3003 1734 2745 1975 
Q 2488 2216 2034 2216 
z
M 1403 2484 
Q 997 2584 770 2862 
Q 544 3141 544 3541 
Q 544 4100 942 4425 
Q 1341 4750 2034 4750 
Q 2731 4750 3128 4425 
Q 3525 4100 3525 3541 
Q 3525 3141 3298 2862 
Q 3072 2584 2669 2484 
Q 3125 2378 3379 2068 
Q 3634 1759 3634 1313 
Q 3634 634 3220 271 
Q 2806 -91 2034 -91 
Q 1263 -91 848 271 
Q 434 634 434 1313 
Q 434 1759 690 2068 
Q 947 2378 1403 2484 
z
M 1172 3481 
Q 1172 3119 1398 2916 
Q 1625 2713 2034 2713 
Q 2441 2713 2670 2916 
Q 2900 3119 2900 3481 
Q 2900 3844 2670 4047 
Q 2441 4250 2034 4250 
Q 1625 4250 1398 4047 
Q 1172 3844 1172 3481 
z
" transform="scale(0.015625)"/>
       </defs>
       <use xlink:href="#DejaVuSans-38"/>
      </g>
     </g>
    </g>
    <g id="ytick_5">
     <g id="line2d_10">
      <g>
       <use xlink:href="#m0cfc99407b" x="57.6" y="89.598638" style="stroke: #000000; stroke-width: 0.8"/>
      </g>
     </g>
     <g id="text_11">
      <!-- 10 -->
      <g transform="translate(37.875 93.397857) scale(0.1 -0.1)">
       <use xlink:href="#DejaVuSans-31"/>
       <use xlink:href="#DejaVuSans-30" x="63.623047"/>
      </g>
     </g>
    </g>
    <g id="text_12">
     <!-- pH -->
     <g transform="translate(31.795313 181.462375) rotate(-90) scale(0.1 -0.1)">
      <defs>
       <path id="DejaVuSans-70" d="M 1159 525 
L 1159 -1331 
L 581 -1331 
L 581 3500 
L 1159 3500 
L 1159 2969 
Q 1341 3281 1617 3432 
Q 1894 3584 2278 3584 
Q 2916 3584 3314 3078 
Q 3713 2572 3713 1747 
Q 3713 922 3314 415 
Q 2916 -91 2278 -91 
Q 1894 -91 1617 61 
Q 1341 213 1159 525 
z
M 3116 1747 
Q 3116 2381 2855 2742 
Q 2594 3103 2138 3103 
Q 1681 3103 1420 2742 
Q 1159 2381 1159 1747 
Q 1159 1113 1420 752 
Q 1681 391 2138 391 
Q 2594 391 2855 752 
Q 3116 1113 3116 1747 
z
" transform="scale(0.015625)"/>
       <path id="DejaVuSans-48" d="M 628 4666 
L 1259 4666 
L 1259 2753 
L 3553 2753 
L 3553 4666 
L 4184 4666 
L 4184 0 
L 3553 0 
L 3553 2222 
L 1259 2222 
L 1259 0 
L 628 0 
L 628 4666 
z
" transform="scale(0.015625)"/>
      </defs>
      <use xlink:href="#DejaVuSans-70"/>
      <use xlink:href="#DejaVuSans-48" x="63.476562"/>
     </g>
    </g>
   </g>
   <g id="line2d_11">
    <path d="M 73.832727 56.398979 
L 74.210819 56.398979 
L 74.46288 55.884255 
L 75.219063 55.884255 
L 75.345093 59.487319 
L 75.723185 59.487319 
L 75.849215 60.002043 
L 76.479368 60.002043 
L 76.605398 60.259404 
L 76.731429 60.774128 
L 76.857459 60.516766 
L 77.10952 60.516766 
L 77.235551 60.774128 
L 77.865703 60.774128 
L 78.117764 62.318298 
L 78.243794 62.318298 
L 78.495855 61.803574 
L 78.873947 61.803574 
L 79.126008 63.862468 
L 79.378069 63.347745 
L 81.520587 63.347745 
L 81.646618 63.605106 
L 83.411045 63.605106 
L 83.537075 63.862468 
L 83.663106 63.605106 
L 83.789136 63.605106 
L 83.915167 63.862468 
L 86.561807 63.862468 
L 86.687837 64.11983 
L 89.460508 64.11983 
L 89.586539 64.377191 
L 91.350966 64.377191 
L 91.476996 64.634553 
L 91.603027 64.377191 
L 91.729057 64.634553 
L 91.855088 64.634553 
L 91.981118 64.891915 
L 92.107149 66.693447 
L 92.233179 66.436085 
L 92.48524 66.436085 
L 92.61127 66.178723 
L 94.501728 66.178723 
L 94.753789 68.75234 
L 95.00585 68.237617 
L 95.13188 68.237617 
L 95.257911 67.980255 
L 95.762033 67.980255 
L 95.888063 68.237617 
L 96.014094 68.237617 
L 96.266155 71.840681 
L 96.518216 71.068596 
L 96.644246 70.811234 
L 96.770277 70.811234 
L 96.896307 70.553872 
L 97.022338 70.553872 
L 97.148368 70.811234 
L 97.904551 70.811234 
L 98.030582 72.355404 
L 98.156612 83.421957 
L 98.660734 78.274723 
L 98.786765 78.017362 
L 99.038826 78.017362 
L 99.164856 78.274723 
L 99.416917 78.274723 
L 99.668978 127.945532 
L 99.795008 122.026213 
L 100.047069 100.150468 
L 100.29913 95.260596 
L 100.425161 95.260596 
L 100.803252 96.032681 
L 101.307374 96.032681 
L 101.433405 95.775319 
L 102.063557 95.775319 
L 102.189588 99.378383 
L 102.441649 144.931404 
L 102.69371 151.108085 
L 102.945771 153.166979 
L 103.449893 154.196426 
L 103.701954 155.483234 
L 103.827984 155.740596 
L 104.080045 156.512681 
L 104.206076 156.512681 
L 104.332106 156.770043 
L 104.458137 156.770043 
L 104.584167 157.027404 
L 104.962259 157.027404 
L 105.088289 157.284766 
L 106.222564 157.284766 
L 106.348594 157.027404 
L 106.474625 159.086298 
L 106.726685 165.777702 
L 106.978746 167.321872 
L 107.104777 167.836596 
L 107.230807 167.836596 
L 107.356838 167.579234 
L 107.482868 167.579234 
L 107.608899 170.924936 
L 107.86096 188.425532 
L 107.98699 188.16817 
L 108.239051 186.109277 
L 108.491112 184.307745 
L 108.743173 183.53566 
L 109.373326 183.53566 
L 109.499356 183.278298 
L 109.625387 183.278298 
L 109.877448 214.933787 
L 110.129509 210.301277 
L 110.5076 203.352511 
L 110.759661 202.065702 
L 110.885692 202.065702 
L 111.011722 202.323064 
L 111.515844 202.323064 
L 111.641875 202.065702 
L 111.767905 202.065702 
L 111.893936 201.80834 
L 112.019966 201.80834 
L 112.145997 201.550979 
L 112.398058 201.550979 
L 112.524088 201.293617 
L 112.650119 201.293617 
L 112.776149 201.036255 
L 113.02821 201.036255 
L 113.154241 200.778894 
L 113.406302 200.778894 
L 113.532332 200.521532 
L 113.784393 200.521532 
L 113.910423 200.26417 
L 114.162484 200.26417 
L 114.288515 200.006809 
L 114.666606 200.006809 
L 114.792637 199.749447 
L 114.918667 199.749447 
L 115.044698 199.492085 
L 115.422789 199.492085 
L 115.54882 199.234723 
L 115.926911 199.234723 
L 116.052942 198.977362 
L 116.431033 198.977362 
L 116.683094 227.029787 
L 116.935155 225.228255 
L 117.313247 221.882553 
L 117.439277 221.36783 
L 117.817369 221.36783 
L 117.943399 221.625191 
L 118.06943 221.625191 
L 118.19546 221.36783 
L 118.699582 221.36783 
L 118.825613 221.110468 
L 119.833857 221.110468 
L 119.959887 220.853106 
L 120.842101 220.853106 
L 120.968131 220.595745 
L 121.094161 220.595745 
L 121.220192 228.573957 
L 121.346222 228.573957 
L 121.850344 226.772426 
L 121.976375 226.515064 
L 123.614771 226.515064 
L 123.740802 231.91966 
L 123.866832 231.91966 
L 124.118893 231.147574 
L 124.496985 230.375489 
L 127.143625 230.375489 
L 127.269656 230.118128 
L 127.395686 230.375489 
L 127.521717 230.118128 
L 128.025839 230.118128 
L 128.151869 230.375489 
L 128.277899 237.581617 
L 128.40393 237.324255 
L 128.782021 236.037447 
L 128.908052 235.780085 
L 129.160113 235.780085 
L 129.412174 238.611064 
L 129.790265 237.838979 
L 130.042326 237.838979 
L 130.294387 240.155234 
L 130.420418 240.155234 
L 130.672479 239.640511 
L 130.798509 239.640511 
L 130.92454 239.383149 
L 131.05057 239.383149 
L 131.176601 243.243574 
L 131.302631 243.243574 
L 131.806753 242.214128 
L 132.058814 242.214128 
L 132.184845 245.045106 
L 132.310875 245.302468 
L 132.436906 245.045106 
L 132.562936 244.530383 
L 133.067058 244.530383 
L 133.193089 247.876085 
L 133.319119 248.133447 
L 133.823241 247.104 
L 134.201333 247.104 
L 134.327363 247.361362 
L 134.453394 250.19234 
L 134.705455 249.677617 
L 134.831485 249.677617 
L 134.957516 249.420255 
L 135.461637 249.420255 
L 135.713698 252.508596 
L 135.839729 252.251234 
L 135.965759 252.251234 
L 136.21782 251.736511 
L 136.974003 251.736511 
L 137.100034 254.567489 
L 137.352095 254.052766 
L 137.478125 254.052766 
L 137.604156 253.795404 
L 137.730186 253.795404 
L 137.856217 254.567489 
L 137.982247 256.369021 
L 138.108278 256.369021 
L 138.234308 256.11166 
L 138.360339 256.11166 
L 138.486369 258.685277 
L 138.864461 257.913191 
L 138.990491 257.913191 
L 139.242552 260.486809 
L 139.368583 260.229447 
L 139.494613 260.229447 
L 139.620644 259.972085 
L 139.746674 259.972085 
L 139.872705 262.545702 
L 140.124766 262.030979 
L 140.250796 262.030979 
L 140.376827 261.773617 
L 140.628888 261.773617 
L 140.754918 264.347234 
L 141.006979 263.832511 
L 141.13301 263.832511 
L 141.25904 263.575149 
L 141.385071 263.575149 
L 141.637132 266.148766 
L 141.763162 265.891404 
L 141.889193 265.891404 
L 142.141254 268.20766 
L 142.267284 268.20766 
L 142.519345 267.692936 
L 142.645375 267.692936 
L 142.771406 267.435574 
L 142.897436 267.435574 
L 143.023467 267.692936 
L 143.275528 270.781277 
L 143.653619 270.009191 
L 145.418046 270.009191 
L 145.544077 269.75183 
L 145.670107 270.009191 
L 145.796138 269.75183 
L 145.922168 270.009191 
L 146.30026 270.009191 
L 146.42629 269.75183 
L 146.552321 270.009191 
L 146.678351 269.75183 
L 146.804382 270.009191 
L 147.560565 270.009191 
L 147.686595 273.612255 
L 147.812626 273.354894 
L 147.938656 273.354894 
L 148.064687 272.84017 
L 148.190717 272.84017 
L 148.316748 272.582809 
L 148.694839 272.582809 
L 148.82087 275.413787 
L 148.9469 275.671149 
L 149.198961 275.156426 
L 149.324992 275.156426 
L 149.451022 274.899064 
L 149.955144 274.899064 
L 150.081174 278.244766 
L 150.207205 278.244766 
L 150.585296 277.472681 
L 150.837357 280.561021 
L 150.963388 280.30366 
L 151.089418 280.30366 
L 151.341479 282.619915 
L 151.59354 282.105191 
L 151.845601 282.105191 
L 151.971632 282.619915 
L 152.097662 285.965617 
L 152.223693 285.965617 
L 152.601784 285.193532 
L 152.727815 285.193532 
L 152.853845 284.93617 
L 152.979876 285.450894 
L 153.231937 285.450894 
L 153.357967 286.737702 
L 153.483998 286.48034 
L 153.610028 286.48034 
L 153.736059 288.539234 
L 153.862089 288.281872 
L 153.98812 288.281872 
L 154.11415 288.024511 
L 154.240181 288.024511 
L 154.366211 288.539234 
L 154.492242 289.826043 
L 154.618272 289.826043 
L 154.744303 289.568681 
L 154.870333 289.568681 
L 154.996364 289.311319 
L 155.500486 289.311319 
L 155.626516 291.627574 
L 155.878577 291.627574 
L 156.004608 291.370213 
L 156.130638 291.370213 
L 156.256669 291.112851 
L 156.63476 291.112851 
L 156.886821 293.171745 
L 157.012851 293.171745 
L 157.138882 294.458553 
L 157.264912 294.201191 
L 157.390943 294.201191 
L 157.516973 293.94383 
L 157.895065 293.94383 
L 158.021095 294.458553 
L 158.147126 295.488 
L 398.487273 295.488 
L 398.487273 295.488 
" clip-path="url(#pef9f887190)" style="fill: none; stroke: #1f77b4; stroke-width: 1.5; stroke-linecap: square"/>
   </g>
   <g id="line2d_12">
    <path d="M 73.832727 57.943149 
L 90.720813 57.943149 
L 90.846844 58.200511 
L 90.972874 57.943149 
L 92.107149 57.943149 
L 92.233179 58.200511 
L 92.359209 57.943149 
L 94.123636 57.943149 
L 94.249667 58.200511 
L 94.375697 58.200511 
L 94.501728 57.943149 
L 100.047069 57.943149 
L 100.1731 58.200511 
L 101.685466 58.200511 
L 101.811496 57.943149 
L 102.189588 57.943149 
L 102.315618 58.200511 
L 143.653619 58.200511 
L 143.77965 58.457872 
L 144.031711 58.457872 
L 144.157741 58.200511 
L 145.796138 58.200511 
L 145.922168 58.457872 
L 146.048199 58.200511 
L 147.686595 58.200511 
L 147.812626 58.457872 
L 206.920926 58.457872 
L 207.046957 58.200511 
L 207.172987 58.200511 
L 207.299018 58.457872 
L 207.425048 58.457872 
L 207.551078 58.200511 
L 207.677109 58.200511 
L 207.803139 58.457872 
L 207.92917 58.200511 
L 208.433292 58.200511 
L 208.559322 58.457872 
L 208.685353 58.457872 
L 208.811383 58.200511 
L 208.937414 58.200511 
L 209.063444 58.457872 
L 209.567566 58.457872 
L 209.693597 58.200511 
L 210.071688 58.200511 
L 210.197719 58.457872 
L 210.323749 58.457872 
L 210.44978 58.200511 
L 210.953902 58.200511 
L 211.079932 58.457872 
L 211.205963 58.457872 
L 211.331993 58.200511 
L 211.710085 58.200511 
L 211.836115 58.457872 
L 213.600542 58.457872 
L 213.726573 58.200511 
L 214.230695 58.200511 
L 214.356725 58.457872 
L 215.490999 58.457872 
L 215.61703 58.200511 
L 215.74306 58.200511 
L 215.869091 58.457872 
L 218.13764 58.457872 
L 218.26367 58.200511 
L 218.389701 58.457872 
L 218.893823 58.457872 
L 219.019853 58.200511 
L 219.145884 58.457872 
L 219.650006 58.457872 
L 219.776036 58.200511 
L 219.902067 58.457872 
L 222.044585 58.457872 
L 222.170615 58.200511 
L 222.296646 58.457872 
L 223.935042 58.457872 
L 224.061073 58.200511 
L 224.187103 58.457872 
L 224.817256 58.457872 
L 224.943286 58.200511 
L 225.195347 58.200511 
L 225.321378 58.457872 
L 225.447408 58.200511 
L 225.573439 58.200511 
L 225.699469 58.457872 
L 227.841988 58.457872 
L 227.968018 58.200511 
L 228.094049 58.457872 
L 229.228323 58.457872 
L 229.354353 58.200511 
L 229.480384 58.200511 
L 229.606414 58.457872 
L 230.236567 58.457872 
L 230.362597 58.200511 
L 230.488628 58.200511 
L 230.614658 58.457872 
L 230.99275 58.457872 
L 231.11878 58.200511 
L 231.244811 58.457872 
L 231.370841 58.200511 
L 231.496872 58.200511 
L 231.622902 58.457872 
L 231.748933 58.200511 
L 232.127024 58.200511 
L 232.253055 58.457872 
L 232.379085 58.457872 
L 232.505116 58.200511 
L 232.631146 58.200511 
L 232.757177 58.457872 
L 232.883207 58.200511 
L 233.009238 58.457872 
L 233.135268 58.200511 
L 233.891451 58.200511 
L 234.017482 58.457872 
L 234.521604 58.457872 
L 234.647634 58.200511 
L 234.773665 58.457872 
L 234.899695 58.200511 
L 235.025726 58.200511 
L 235.151756 58.457872 
L 235.277787 58.457872 
L 235.403817 58.200511 
L 235.529848 58.457872 
L 236.664122 58.457872 
L 236.790152 58.200511 
L 236.916183 58.457872 
L 238.554579 58.457872 
L 238.68061 58.200511 
L 238.80664 58.457872 
L 299.427307 58.457872 
L 299.553337 58.715234 
L 299.679368 58.715234 
L 299.805398 58.457872 
L 305.098679 58.457872 
L 305.224709 58.715234 
L 335.598058 58.715234 
L 335.724088 58.972596 
L 335.850119 58.715234 
L 335.976149 58.972596 
L 336.354241 58.972596 
L 336.480271 58.715234 
L 336.606302 58.972596 
L 336.732332 58.972596 
L 336.858363 58.715234 
L 336.984393 58.972596 
L 337.110423 58.715234 
L 337.236454 58.972596 
L 337.362484 58.715234 
L 337.488515 58.972596 
L 337.614545 58.972596 
L 337.740576 58.715234 
L 337.866606 58.972596 
L 338.244698 58.972596 
L 338.370728 58.715234 
L 338.496759 58.972596 
L 338.87485 58.972596 
L 339.000881 58.715234 
L 339.126911 58.715234 
L 339.252942 58.972596 
L 339.378972 58.972596 
L 339.505003 58.715234 
L 339.631033 58.715234 
L 339.757064 58.972596 
L 339.883094 58.715234 
L 340.009125 58.972596 
L 340.261186 58.972596 
L 340.387216 58.715234 
L 340.513247 58.972596 
L 341.773552 58.972596 
L 341.899582 58.715234 
L 342.025613 58.972596 
L 342.277674 58.972596 
L 342.403704 58.715234 
L 342.529735 58.972596 
L 343.285918 58.972596 
L 343.411948 58.715234 
L 343.537979 58.972596 
L 343.664009 58.972596 
L 343.79004 58.715234 
L 343.91607 58.972596 
L 353.242326 58.972596 
L 353.368357 59.229957 
L 354.12454 59.229957 
L 354.25057 58.972596 
L 354.376601 59.229957 
L 354.754692 59.229957 
L 354.880723 58.972596 
L 355.006753 58.972596 
L 355.132784 59.229957 
L 363.828888 59.229957 
L 363.954918 59.487319 
L 370.886595 59.487319 
L 371.012626 59.744681 
L 371.894839 59.744681 
L 372.02087 59.487319 
L 372.1469 59.744681 
L 374.919571 59.744681 
L 375.045601 60.002043 
L 375.549723 60.002043 
L 375.675754 59.744681 
L 375.801784 60.002043 
L 377.944303 60.002043 
L 378.070333 60.259404 
L 378.952547 60.259404 
L 379.078577 60.516766 
L 379.204608 60.259404 
L 379.330638 60.259404 
L 379.456669 60.516766 
L 380.212851 60.516766 
L 380.338882 60.774128 
L 380.464912 60.516766 
L 380.590943 60.774128 
L 381.725217 60.774128 
L 381.851248 61.031489 
L 383.363614 61.031489 
L 383.489644 61.288851 
L 385.254071 61.288851 
L 385.380102 61.546213 
L 386.640407 61.546213 
L 386.766437 61.803574 
L 387.774681 61.803574 
L 387.900711 62.060936 
L 388.026742 62.060936 
L 388.152772 61.803574 
L 388.530864 61.803574 
L 388.656894 62.060936 
L 389.161016 62.060936 
L 389.287047 62.318298 
L 389.917199 62.318298 
L 390.04323 62.060936 
L 390.16926 62.060936 
L 390.295291 62.318298 
L 390.673382 62.318298 
L 390.799413 62.57566 
L 391.681626 62.57566 
L 391.807657 62.318298 
L 391.933687 62.318298 
L 392.059718 62.57566 
L 392.311779 62.57566 
L 392.437809 62.833021 
L 393.193992 62.833021 
L 393.320023 63.090383 
L 393.446053 63.090383 
L 393.572084 62.833021 
L 393.824145 62.833021 
L 393.950175 63.090383 
L 394.328267 63.090383 
L 394.454297 63.347745 
L 395.33651 63.347745 
L 395.462541 63.090383 
L 395.588571 63.090383 
L 395.714602 63.347745 
L 395.840632 63.347745 
L 395.966663 63.605106 
L 396.848876 63.605106 
L 396.974907 63.862468 
L 397.100937 63.862468 
L 397.226968 63.605106 
L 397.479029 63.605106 
L 397.73109 64.11983 
L 398.487273 64.11983 
L 398.487273 64.11983 
" clip-path="url(#pef9f887190)" style="fill: none; stroke: #ff7f0e; stroke-width: 1.5; stroke-linecap: square"/>
   </g>
   <g id="line2d_13">
    <path d="M 73.832727 53.568 
L 75.219063 53.568 
L 75.345093 54.082723 
L 76.101276 54.082723 
L 76.227307 54.340085 
L 82.15074 54.340085 
L 82.27677 54.597447 
L 82.402801 54.340085 
L 82.528831 54.597447 
L 83.032953 54.597447 
L 83.158984 54.340085 
L 83.285014 54.597447 
L 89.712569 54.597447 
L 89.8386 54.854809 
L 94.753789 54.854809 
L 94.879819 55.11217 
L 98.786765 55.11217 
L 98.912795 55.369532 
L 99.038826 55.11217 
L 99.164856 55.369532 
L 99.290887 55.369532 
L 99.416917 55.11217 
L 99.542947 55.369532 
L 103.575923 55.369532 
L 103.701954 55.626894 
L 103.827984 55.369532 
L 103.954015 55.626894 
L 115.170728 55.626894 
L 115.296759 55.884255 
L 115.422789 55.626894 
L 116.052942 55.626894 
L 116.178972 55.884255 
L 116.809125 55.884255 
L 116.935155 55.626894 
L 117.061186 55.884255 
L 132.688967 55.884255 
L 132.814997 56.141617 
L 132.941028 55.884255 
L 133.067058 56.141617 
L 133.193089 55.884255 
L 133.44515 55.884255 
L 133.57118 56.141617 
L 134.201333 56.141617 
L 134.327363 55.884255 
L 134.453394 56.141617 
L 134.705455 56.141617 
L 134.831485 55.884255 
L 134.957516 55.884255 
L 135.083546 56.141617 
L 136.469881 56.141617 
L 136.595912 55.884255 
L 136.721942 55.884255 
L 136.847973 56.141617 
L 144.787894 56.141617 
L 144.913924 56.398979 
L 145.039955 56.398979 
L 145.165985 56.141617 
L 145.796138 56.141617 
L 145.922168 56.398979 
L 146.30026 56.398979 
L 146.42629 56.141617 
L 147.686595 56.141617 
L 147.812626 56.398979 
L 185.873834 56.398979 
L 185.999864 56.141617 
L 186.125895 56.398979 
L 186.251925 56.141617 
L 186.377956 56.141617 
L 186.503986 56.398979 
L 186.630017 56.398979 
L 186.756047 56.141617 
L 211.836115 56.141617 
L 211.962146 55.884255 
L 212.088176 56.141617 
L 212.214207 55.884255 
L 212.340237 56.141617 
L 212.466268 56.141617 
L 212.592298 55.884255 
L 212.718329 56.141617 
L 212.844359 56.141617 
L 212.97039 55.884255 
L 213.09642 56.141617 
L 213.222451 56.141617 
L 213.348481 55.884255 
L 213.600542 55.884255 
L 213.726573 56.141617 
L 213.852603 56.141617 
L 213.978634 55.884255 
L 214.104664 56.141617 
L 214.230695 55.884255 
L 214.608786 55.884255 
L 214.734816 56.141617 
L 214.860847 55.884255 
L 214.986877 55.884255 
L 215.112908 56.141617 
L 215.238938 55.884255 
L 215.364969 55.884255 
L 215.490999 56.141617 
L 215.61703 55.884255 
L 215.74306 56.141617 
L 216.121152 56.141617 
L 216.247182 55.884255 
L 216.373213 56.141617 
L 216.499243 55.884255 
L 216.625274 56.141617 
L 216.751304 56.141617 
L 216.877335 55.884255 
L 217.129396 55.884255 
L 217.255426 56.141617 
L 217.381457 55.884255 
L 217.507487 56.141617 
L 217.633518 56.141617 
L 217.759548 55.884255 
L 217.885579 56.141617 
L 218.011609 56.141617 
L 218.13764 55.884255 
L 218.26367 55.884255 
L 218.389701 56.141617 
L 218.515731 55.884255 
L 218.641762 56.141617 
L 218.767792 55.884255 
L 219.145884 55.884255 
L 219.271914 56.141617 
L 219.397945 56.141617 
L 219.523975 55.884255 
L 219.650006 56.141617 
L 219.776036 55.884255 
L 219.902067 55.884255 
L 220.028097 56.141617 
L 220.532219 56.141617 
L 220.65825 55.884255 
L 220.78428 55.884255 
L 220.910311 56.141617 
L 221.036341 55.884255 
L 221.666494 55.884255 
L 221.792524 56.141617 
L 221.918554 55.884255 
L 222.674737 55.884255 
L 222.800768 56.141617 
L 223.178859 56.141617 
L 223.30489 55.884255 
L 223.556951 55.884255 
L 223.682981 56.141617 
L 223.935042 56.141617 
L 224.061073 55.884255 
L 224.439164 55.884255 
L 224.565195 56.141617 
L 224.817256 56.141617 
L 224.943286 55.884255 
L 225.069317 56.141617 
L 267.667623 56.141617 
L 267.793653 56.398979 
L 268.171745 56.398979 
L 268.297775 56.141617 
L 268.423806 56.398979 
L 268.549836 56.398979 
L 268.675867 56.141617 
L 268.801897 56.398979 
L 269.306019 56.398979 
L 269.43205 56.141617 
L 269.55808 56.141617 
L 269.684111 56.398979 
L 269.936172 56.398979 
L 270.062202 56.141617 
L 270.188233 56.398979 
L 270.818385 56.398979 
L 270.944416 56.141617 
L 271.070446 56.398979 
L 272.20472 56.398979 
L 272.330751 56.141617 
L 272.456781 56.398979 
L 272.582812 56.141617 
L 272.708842 56.398979 
L 287.958532 56.398979 
L 288.084562 56.65634 
L 288.210593 56.398979 
L 288.336623 56.65634 
L 288.462654 56.65634 
L 288.588684 56.398979 
L 288.840745 56.398979 
L 288.966776 56.65634 
L 289.092806 56.398979 
L 289.218837 56.65634 
L 289.344867 56.65634 
L 289.470898 56.398979 
L 289.596928 56.65634 
L 289.97502 56.65634 
L 290.10105 56.398979 
L 290.479142 56.398979 
L 290.605172 56.65634 
L 290.857233 56.65634 
L 290.983264 56.398979 
L 292.243569 56.398979 
L 292.369599 56.65634 
L 308.249441 56.65634 
L 308.375471 56.913702 
L 308.501502 56.913702 
L 308.627532 56.65634 
L 308.753563 56.65634 
L 308.879593 56.913702 
L 327.280045 56.913702 
L 327.406076 57.171064 
L 340.639277 57.171064 
L 340.765308 57.428426 
L 354.628662 57.428426 
L 354.754692 57.685787 
L 361.8124 57.685787 
L 361.93843 57.943149 
L 365.467284 57.943149 
L 365.593315 58.200511 
L 368.870107 58.200511 
L 368.996138 58.457872 
L 369.122168 58.200511 
L 369.50026 58.200511 
L 369.62629 58.457872 
L 373.029113 58.457872 
L 373.155144 58.715234 
L 375.675754 58.715234 
L 375.801784 58.972596 
L 377.31415 58.972596 
L 377.440181 59.229957 
L 377.566211 59.229957 
L 377.692242 58.972596 
L 377.818272 59.229957 
L 379.456669 59.229957 
L 379.582699 59.487319 
L 381.095065 59.487319 
L 381.221095 59.744681 
L 382.607431 59.744681 
L 382.733461 60.002043 
L 383.993766 60.002043 
L 384.119797 60.259404 
L 385.254071 60.259404 
L 385.380102 60.516766 
L 386.010254 60.516766 
L 386.136285 60.774128 
L 387.396589 60.774128 
L 387.52262 61.031489 
L 388.404833 61.031489 
L 388.530864 61.288851 
L 389.665138 61.288851 
L 389.791169 61.546213 
L 390.547352 61.546213 
L 390.673382 61.803574 
L 391.555596 61.803574 
L 391.681626 62.060936 
L 392.437809 62.060936 
L 392.56384 62.318298 
L 393.320023 62.318298 
L 393.446053 62.57566 
L 394.076206 62.57566 
L 394.202236 62.833021 
L 394.580327 62.833021 
L 394.706358 63.090383 
L 395.21048 63.090383 
L 395.33651 63.347745 
L 395.588571 63.347745 
L 395.714602 63.605106 
L 396.092693 63.605106 
L 396.218724 63.862468 
L 396.470785 63.862468 
L 396.596815 64.11983 
L 396.848876 64.11983 
L 396.974907 64.377191 
L 397.352998 64.377191 
L 397.479029 64.634553 
L 397.73109 64.634553 
L 397.85712 64.891915 
L 398.235212 64.891915 
L 398.361242 65.149277 
L 398.487273 65.149277 
L 398.487273 65.149277 
" clip-path="url(#pef9f887190)" style="fill: none; stroke: #2ca02c; stroke-width: 1.5; stroke-linecap: square"/>
   </g>
   <g id="patch_3">
    <path d="M 57.6 307.584 
L 57.6 41.472 
" style="fill: none; stroke: #000000; stroke-width: 0.8; stroke-linejoin: miter; stroke-linecap: square"/>
   </g>
   <g id="patch_4">
    <path d="M 414.72 307.584 
L 414.72 41.472 
" style="fill: none; stroke: #000000; stroke-width: 0.8; stroke-linejoin: miter; stroke-linecap: square"/>
   </g>
   <g id="patch_5">
    <path d="M 57.6 307.584 
L 414.72 307.584 
" style="fill: none; stroke: #000000; stroke-width: 0.8; stroke-linejoin: miter; stroke-linecap: square"/>
   </g>
   <g id="patch_6">
    <path d="M 57.6 41.472 
L 414.72 41.472 
" style="fill: none; stroke: #000000; stroke-width: 0.8; stroke-linejoin: miter; stroke-linecap: square"/>
   </g>
   <g id="text_13">
    <!-- Time/pH for 0.1M NaCl dataset -->
    <g transform="translate(143.834063 35.472) scale(0.12 -0.12)">
     <defs>
      <path id="DejaVuSans-2f" d="M 1625 4666 
L 2156 4666 
L 531 -594 
L 0 -594 
L 1625 4666 
z
" transform="scale(0.015625)"/>
      <path id="DejaVuSans-66" d="M 2375 4863 
L 2375 4384 
L 1825 4384 
Q 1516 4384 1395 4259 
Q 1275 4134 1275 3809 
L 1275 3500 
L 2222 3500 
L 2222 3053 
L 1275 3053 
L 1275 0 
L 697 0 
L 697 3053 
L 147 3053 
L 147 3500 
L 697 3500 
L 697 3744 
Q 697 4328 969 4595 
Q 1241 4863 1831 4863 
L 2375 4863 
z
" transform="scale(0.015625)"/>
      <path id="DejaVuSans-6f" d="M 1959 3097 
Q 1497 3097 1228 2736 
Q 959 2375 959 1747 
Q 959 1119 1226 758 
Q 1494 397 1959 397 
Q 2419 397 2687 759 
Q 2956 1122 2956 1747 
Q 2956 2369 2687 2733 
Q 2419 3097 1959 3097 
z
M 1959 3584 
Q 2709 3584 3137 3096 
Q 3566 2609 3566 1747 
Q 3566 888 3137 398 
Q 2709 -91 1959 -91 
Q 1206 -91 779 398 
Q 353 888 353 1747 
Q 353 2609 779 3096 
Q 1206 3584 1959 3584 
z
" transform="scale(0.015625)"/>
      <path id="DejaVuSans-72" d="M 2631 2963 
Q 2534 3019 2420 3045 
Q 2306 3072 2169 3072 
Q 1681 3072 1420 2755 
Q 1159 2438 1159 1844 
L 1159 0 
L 581 0 
L 581 3500 
L 1159 3500 
L 1159 2956 
Q 1341 3275 1631 3429 
Q 1922 3584 2338 3584 
Q 2397 3584 2469 3576 
Q 2541 3569 2628 3553 
L 2631 2963 
z
" transform="scale(0.015625)"/>
      <path id="DejaVuSans-2e" d="M 684 794 
L 1344 794 
L 1344 0 
L 684 0 
L 684 794 
z
" transform="scale(0.015625)"/>
      <path id="DejaVuSans-4d" d="M 628 4666 
L 1569 4666 
L 2759 1491 
L 3956 4666 
L 4897 4666 
L 4897 0 
L 4281 0 
L 4281 4097 
L 3078 897 
L 2444 897 
L 1241 4097 
L 1241 0 
L 628 0 
L 628 4666 
z
" transform="scale(0.015625)"/>
      <path id="DejaVuSans-4e" d="M 628 4666 
L 1478 4666 
L 3547 763 
L 3547 4666 
L 4159 4666 
L 4159 0 
L 3309 0 
L 1241 3903 
L 1241 0 
L 628 0 
L 628 4666 
z
" transform="scale(0.015625)"/>
      <path id="DejaVuSans-61" d="M 2194 1759 
Q 1497 1759 1228 1600 
Q 959 1441 959 1056 
Q 959 750 1161 570 
Q 1363 391 1709 391 
Q 2188 391 2477 730 
Q 2766 1069 2766 1631 
L 2766 1759 
L 2194 1759 
z
M 3341 1997 
L 3341 0 
L 2766 0 
L 2766 531 
Q 2569 213 2275 61 
Q 1981 -91 1556 -91 
Q 1019 -91 701 211 
Q 384 513 384 1019 
Q 384 1609 779 1909 
Q 1175 2209 1959 2209 
L 2766 2209 
L 2766 2266 
Q 2766 2663 2505 2880 
Q 2244 3097 1772 3097 
Q 1472 3097 1187 3025 
Q 903 2953 641 2809 
L 641 3341 
Q 956 3463 1253 3523 
Q 1550 3584 1831 3584 
Q 2591 3584 2966 3190 
Q 3341 2797 3341 1997 
z
" transform="scale(0.015625)"/>
      <path id="DejaVuSans-43" d="M 4122 4306 
L 4122 3641 
Q 3803 3938 3442 4084 
Q 3081 4231 2675 4231 
Q 1875 4231 1450 3742 
Q 1025 3253 1025 2328 
Q 1025 1406 1450 917 
Q 1875 428 2675 428 
Q 3081 428 3442 575 
Q 3803 722 4122 1019 
L 4122 359 
Q 3791 134 3420 21 
Q 3050 -91 2638 -91 
Q 1578 -91 968 557 
Q 359 1206 359 2328 
Q 359 3453 968 4101 
Q 1578 4750 2638 4750 
Q 3056 4750 3426 4639 
Q 3797 4528 4122 4306 
z
" transform="scale(0.015625)"/>
      <path id="DejaVuSans-6c" d="M 603 4863 
L 1178 4863 
L 1178 0 
L 603 0 
L 603 4863 
z
" transform="scale(0.015625)"/>
      <path id="DejaVuSans-64" d="M 2906 2969 
L 2906 4863 
L 3481 4863 
L 3481 0 
L 2906 0 
L 2906 525 
Q 2725 213 2448 61 
Q 2172 -91 1784 -91 
Q 1150 -91 751 415 
Q 353 922 353 1747 
Q 353 2572 751 3078 
Q 1150 3584 1784 3584 
Q 2172 3584 2448 3432 
Q 2725 3281 2906 2969 
z
M 947 1747 
Q 947 1113 1208 752 
Q 1469 391 1925 391 
Q 2381 391 2643 752 
Q 2906 1113 2906 1747 
Q 2906 2381 2643 2742 
Q 2381 3103 1925 3103 
Q 1469 3103 1208 2742 
Q 947 2381 947 1747 
z
" transform="scale(0.015625)"/>
      <path id="DejaVuSans-74" d="M 1172 4494 
L 1172 3500 
L 2356 3500 
L 2356 3053 
L 1172 3053 
L 1172 1153 
Q 1172 725 1289 603 
Q 1406 481 1766 481 
L 2356 481 
L 2356 0 
L 1766 0 
Q 1100 0 847 248 
Q 594 497 594 1153 
L 594 3053 
L 172 3053 
L 172 3500 
L 594 3500 
L 594 4494 
L 1172 4494 
z
" transform="scale(0.015625)"/>
     </defs>
     <use xlink:href="#DejaVuSans-54"/>
     <use xlink:href="#DejaVuSans-69" x="57.958984"/>
     <use xlink:href="#DejaVuSans-6d" x="85.742188"/>
     <use xlink:href="#DejaVuSans-65" x="183.154297"/>
     <use xlink:href="#DejaVuSans-2f" x="244.677734"/>
     <use xlink:href="#DejaVuSans-70" x="278.369141"/>
     <use xlink:href="#DejaVuSans-48" x="341.845703"/>
     <use xlink:href="#DejaVuSans-20" x="417.041016"/>
     <use xlink:href="#DejaVuSans-66" x="448.828125"/>
     <use xlink:href="#DejaVuSans-6f" x="484.033203"/>
     <use xlink:href="#DejaVuSans-72" x="545.214844"/>
     <use xlink:href="#DejaVuSans-20" x="586.328125"/>
     <use xlink:href="#DejaVuSans-30" x="618.115234"/>
     <use xlink:href="#DejaVuSans-2e" x="681.738281"/>
     <use xlink:href="#DejaVuSans-31" x="713.525391"/>
     <use xlink:href="#DejaVuSans-4d" x="777.148438"/>
     <use xlink:href="#DejaVuSans-20" x="863.427734"/>
     <use xlink:href="#DejaVuSans-4e" x="895.214844"/>
     <use xlink:href="#DejaVuSans-61" x="970.019531"/>
     <use xlink:href="#DejaVuSans-43" x="1031.298828"/>
     <use xlink:href="#DejaVuSans-6c" x="1101.123047"/>
     <use xlink:href="#DejaVuSans-20" x="1128.90625"/>
     <use xlink:href="#DejaVuSans-64" x="1160.693359"/>
     <use xlink:href="#DejaVuSans-61" x="1224.169922"/>
     <use xlink:href="#DejaVuSans-74" x="1285.449219"/>
     <use xlink:href="#DejaVuSans-61" x="1324.658203"/>
     <use xlink:href="#DejaVuSans-73" x="1385.9375"/>
     <use xlink:href="#DejaVuSans-65" x="1438.037109"/>
     <use xlink:href="#DejaVuSans-74" x="1499.560547"/>
    </g>
   </g>
   <g id="legend_1">
    <g id="patch_7">
     <path d="M 300.649688 198.045187 
L 407.72 198.045187 
Q 409.72 198.045187 409.72 196.045187 
L 409.72 153.010812 
Q 409.72 151.010812 407.72 151.010812 
L 300.649688 151.010812 
Q 298.649688 151.010812 298.649688 153.010812 
L 298.649688 196.045187 
Q 298.649688 198.045187 300.649688 198.045187 
z
" style="fill: #ffffff; opacity: 0.8; stroke: #cccccc; stroke-linejoin: miter"/>
    </g>
    <g id="line2d_14">
     <path d="M 302.649688 159.10925 
L 312.649688 159.10925 
L 322.649688 159.10925 
" style="fill: none; stroke: #1f77b4; stroke-width: 1.5; stroke-linecap: square"/>
    </g>
    <g id="text_14">
     <!-- pH feed -->
     <g transform="translate(330.649688 162.60925) scale(0.1 -0.1)">
      <use xlink:href="#DejaVuSans-70"/>
      <use xlink:href="#DejaVuSans-48" x="63.476562"/>
      <use xlink:href="#DejaVuSans-20" x="138.671875"/>
      <use xlink:href="#DejaVuSans-66" x="170.458984"/>
      <use xlink:href="#DejaVuSans-65" x="205.664062"/>
      <use xlink:href="#DejaVuSans-65" x="267.1875"/>
      <use xlink:href="#DejaVuSans-64" x="328.710938"/>
     </g>
    </g>
    <g id="line2d_15">
     <path d="M 302.649688 173.787375 
L 312.649688 173.787375 
L 322.649688 173.787375 
" style="fill: none; stroke: #ff7f0e; stroke-width: 1.5; stroke-linecap: square"/>
    </g>
    <g id="text_15">
     <!-- pH premeate 1 -->
     <g transform="translate(330.649688 177.287375) scale(0.1 -0.1)">
      <use xlink:href="#DejaVuSans-70"/>
      <use xlink:href="#DejaVuSans-48" x="63.476562"/>
      <use xlink:href="#DejaVuSans-20" x="138.671875"/>
      <use xlink:href="#DejaVuSans-70" x="170.458984"/>
      <use xlink:href="#DejaVuSans-72" x="233.935547"/>
      <use xlink:href="#DejaVuSans-65" x="272.798828"/>
      <use xlink:href="#DejaVuSans-6d" x="334.322266"/>
      <use xlink:href="#DejaVuSans-65" x="431.734375"/>
      <use xlink:href="#DejaVuSans-61" x="493.257812"/>
      <use xlink:href="#DejaVuSans-74" x="554.537109"/>
      <use xlink:href="#DejaVuSans-65" x="593.746094"/>
      <use xlink:href="#DejaVuSans-20" x="655.269531"/>
      <use xlink:href="#DejaVuSans-31" x="687.056641"/>
     </g>
    </g>
    <g id="line2d_16">
     <path d="M 302.649688 188.4655 
L 312.649688 188.4655 
L 322.649688 188.4655 
" style="fill: none; stroke: #2ca02c; stroke-width: 1.5; stroke-linecap: square"/>
    </g>
    <g id="text_16">
     <!-- pH premeate 2 -->
     <g transform="translate(330.649688 191.9655) scale(0.1 -0.1)">
      <use xlink:href="#DejaVuSans-70"/>
      <use xlink:href="#DejaVuSans-48" x="63.476562"/>
      <use xlink:href="#DejaVuSans-20" x="138.671875"/>
      <use xlink:href="#DejaVuSans-70" x="170.458984"/>
      <use xlink:href="#DejaVuSans-72" x="233.935547"/>
      <use xlink:href="#DejaVuSans-65" x="272.798828"/>
      <use xlink:href="#DejaVuSans-6d" x="334.322266"/>
      <use xlink:href="#DejaVuSans-65" x="431.734375"/>
      <use xlink:href="#DejaVuSans-61" x="493.257812"/>
      <use xlink:href="#DejaVuSans-74" x="554.537109"/>
      <use xlink:href="#DejaVuSans-65" x="593.746094"/>
      <use xlink:href="#DejaVuSans-20" x="655.269531"/>
      <use xlink:href="#DejaVuSans-32" x="687.056641"/>
     </g>
    </g>
   </g>
  </g>
 </g>
 <defs>
  <clipPath id="pef9f887190">
   <rect x="57.6" y="41.472" width="357.12" height="266.112"/>
  </clipPath>
 </defs>
</svg>
